<svg xmlns="http://www.w3.org/2000/svg" xmlns:xlink="http://www.w3.org/1999/xlink" width="1366" zoomAndPan="magnify" viewBox="0 0 1024.5 576" height="768" preserveAspectRatio="xMidYMid meet" version="1.0"><defs><filter x="0%" y="0%" width="100%" height="100%" id="c067db5e15"><feColorMatrix values="0 0 0 0 1 0 0 0 0 1 0 0 0 0 1 0 0 0 1 0" color-interpolation-filters="sRGB"/></filter><g/><mask id="ff02ea9db2"><g filter="url(#c067db5e15)"><rect x="-102.45" width="1229.4" fill="#000000" y="-57.6" height="691.2" fill-opacity="0.49"/></g></mask><clipPath id="2fa259d556"><rect x="0" width="621" y="0" height="228"/></clipPath></defs><g mask="url(#ff02ea9db2)"><g transform="matrix(1, 0, 0, 1, 199, 170)"><g clip-path="url(#2fa259d556)"><g fill="#163459" fill-opacity="1"><g transform="translate(65.184591, 96.608876)"><g><path d="M 22.40625 0 L 0.90625 0 C 2.125 -1.21875 2.957031 -2.660156 3.40625 -4.328125 C 3.863281 -5.992188 4.09375 -8.132812 4.09375 -10.75 L 4.09375 -80.34375 C 4.09375 -82.957031 3.863281 -85.097656 3.40625 -86.765625 C 2.957031 -88.429688 2.125 -89.875 0.90625 -91.09375 L 25.046875 -91.09375 C 26.203125 -91.09375 27.296875 -90.378906 28.328125 -88.953125 C 29.359375 -87.523438 29.875 -86.019531 29.875 -84.4375 C 29.875 -81.707031 29.359375 -79.429688 28.328125 -77.609375 C 27.296875 -75.785156 25.972656 -74.28125 24.359375 -73.09375 C 22.753906 -71.914062 21.054688 -70.914062 19.265625 -70.09375 C 17.472656 -69.269531 15.769531 -68.476562 14.15625 -67.71875 C 12.550781 -66.96875 11.234375 -66.101562 10.203125 -65.125 C 9.171875 -64.15625 8.65625 -62.910156 8.65625 -61.390625 C 8.65625 -60.972656 8.820312 -60.566406 9.15625 -60.171875 C 9.488281 -59.773438 9.898438 -59.578125 10.390625 -59.578125 C 11.296875 -59.578125 12.328125 -59.894531 13.484375 -60.53125 C 14.640625 -61.164062 16.113281 -61.894531 17.90625 -62.71875 C 19.695312 -63.539062 22.03125 -64.269531 24.90625 -64.90625 C 27.789062 -65.539062 31.421875 -65.859375 35.796875 -65.859375 C 40.171875 -65.859375 43.816406 -65.539062 46.734375 -64.90625 C 49.648438 -64.269531 52.03125 -63.539062 53.875 -62.71875 C 55.726562 -61.894531 57.257812 -61.164062 58.46875 -60.53125 C 59.6875 -59.894531 60.753906 -59.578125 61.671875 -59.578125 C 62.160156 -59.578125 62.570312 -59.773438 62.90625 -60.171875 C 63.238281 -60.566406 63.40625 -60.972656 63.40625 -61.390625 C 63.40625 -62.910156 62.882812 -64.15625 61.84375 -65.125 C 60.8125 -66.101562 59.488281 -66.96875 57.875 -67.71875 C 56.269531 -68.476562 54.570312 -69.269531 52.78125 -70.09375 C 51 -70.914062 49.300781 -71.914062 47.6875 -73.09375 C 46.082031 -74.28125 44.757812 -75.785156 43.71875 -77.609375 C 42.6875 -79.429688 42.171875 -81.707031 42.171875 -84.4375 C 42.171875 -86.019531 42.6875 -87.523438 43.71875 -88.953125 C 44.757812 -90.378906 45.851562 -91.09375 47 -91.09375 L 71.140625 -91.09375 C 69.929688 -89.875 69.097656 -88.429688 68.640625 -86.765625 C 68.179688 -85.097656 67.953125 -82.957031 67.953125 -80.34375 L 67.953125 -10.75 C 67.953125 -8.132812 68.179688 -5.992188 68.640625 -4.328125 C 69.097656 -2.660156 69.929688 -1.21875 71.140625 0 L 49.640625 0 C 47.210938 0 45.300781 -0.421875 43.90625 -1.265625 C 42.507812 -2.117188 41.535156 -3.164062 40.984375 -4.40625 C 40.441406 -5.65625 40.171875 -6.890625 40.171875 -8.109375 C 40.171875 -11.023438 40.734375 -13.816406 41.859375 -16.484375 C 42.984375 -19.160156 44.425781 -21.710938 46.1875 -24.140625 C 47.945312 -26.566406 49.8125 -28.875 51.78125 -31.0625 C 53.757812 -33.25 55.628906 -35.328125 57.390625 -37.296875 C 59.148438 -39.273438 60.59375 -41.144531 61.71875 -42.90625 C 62.84375 -44.664062 63.40625 -46.335938 63.40625 -47.921875 C 63.40625 -48.953125 62.945312 -49.46875 62.03125 -49.46875 C 61.238281 -49.46875 60.328125 -49.085938 59.296875 -48.328125 C 58.265625 -47.566406 56.820312 -46.695312 54.96875 -45.71875 C 53.125 -44.75 50.632812 -43.882812 47.5 -43.125 C 44.375 -42.375 40.351562 -42 35.4375 -42 C 30.519531 -42 26.554688 -42.375 23.546875 -43.125 C 20.535156 -43.882812 18.179688 -44.75 16.484375 -45.71875 C 14.785156 -46.695312 13.476562 -47.566406 12.5625 -48.328125 C 11.65625 -49.085938 10.804688 -49.46875 10.015625 -49.46875 C 9.109375 -49.46875 8.65625 -48.953125 8.65625 -47.921875 C 8.65625 -46.335938 9.21875 -44.664062 10.34375 -42.90625 C 11.46875 -41.144531 12.910156 -39.273438 14.671875 -37.296875 C 16.429688 -35.328125 18.296875 -33.25 20.265625 -31.0625 C 22.242188 -28.875 24.113281 -26.566406 25.875 -24.140625 C 27.632812 -21.710938 29.078125 -19.160156 30.203125 -16.484375 C 31.328125 -13.816406 31.890625 -11.023438 31.890625 -8.109375 C 31.890625 -6.890625 31.613281 -5.65625 31.0625 -4.40625 C 30.519531 -3.164062 29.5625 -2.117188 28.1875 -1.265625 C 26.820312 -0.421875 24.894531 0 22.40625 0 Z M 22.40625 0 "/></g></g></g><g fill="#163459" fill-opacity="1"><g transform="translate(133.685748, 96.608876)"><g><path d="M 0 0 C 1.882812 -1.582031 3.398438 -3.984375 4.546875 -7.203125 C 5.703125 -10.421875 6.859375 -13.910156 8.015625 -17.671875 C 9.835938 -23.867188 11.429688 -29.515625 12.796875 -34.609375 C 14.160156 -39.710938 15.375 -44.675781 16.4375 -49.5 C 17.5 -54.332031 18.53125 -59.359375 19.53125 -64.578125 C 20.539062 -69.804688 21.625 -75.578125 22.78125 -81.890625 C 23.082031 -83.648438 23.078125 -85.378906 22.765625 -87.078125 C 22.460938 -88.785156 21.796875 -90.125 20.765625 -91.09375 L 61.125 -91.09375 C 60.15625 -90.125 59.503906 -88.785156 59.171875 -87.078125 C 58.835938 -85.378906 58.820312 -83.648438 59.125 -81.890625 C 60.269531 -75.578125 61.34375 -69.804688 62.34375 -64.578125 C 63.351562 -59.359375 64.390625 -54.332031 65.453125 -49.5 C 66.515625 -44.675781 67.726562 -39.710938 69.09375 -34.609375 C 70.457031 -29.515625 72.050781 -23.867188 73.875 -17.671875 C 75.03125 -13.910156 76.179688 -10.421875 77.328125 -7.203125 C 78.484375 -3.984375 80.003906 -1.582031 81.890625 0 L 44.265625 0 C 45.296875 -1.21875 46.097656 -2.707031 46.671875 -4.46875 C 47.253906 -6.226562 47.546875 -8.046875 47.546875 -9.921875 C 47.546875 -11.441406 47.269531 -14.265625 46.71875 -18.390625 C 46.175781 -22.523438 45.453125 -27.175781 44.546875 -32.34375 L 31.15625 -32.34375 C 32.726562 -28.507812 34.164062 -24.707031 35.46875 -20.9375 C 36.78125 -17.175781 37.4375 -13.414062 37.4375 -9.65625 C 37.4375 -8.257812 37.253906 -6.800781 36.890625 -5.28125 C 36.523438 -3.757812 35.867188 -2.5 34.921875 -1.5 C 33.984375 -0.5 32.609375 0 30.796875 0 Z M 29.421875 -36.4375 L 43.71875 -36.4375 C 42.875 -40.8125 41.9375 -45.164062 40.90625 -49.5 C 39.875 -53.84375 38.765625 -57.804688 37.578125 -61.390625 C 36.390625 -64.972656 35.171875 -67.84375 33.921875 -70 C 32.679688 -72.15625 31.425781 -73.234375 30.15625 -73.234375 C 28.570312 -73.234375 27.320312 -72.566406 26.40625 -71.234375 C 25.5 -69.898438 24.847656 -68.15625 24.453125 -66 C 24.054688 -63.84375 23.859375 -61.550781 23.859375 -59.125 C 23.859375 -55.113281 24.421875 -51.222656 25.546875 -47.453125 C 26.671875 -43.691406 27.960938 -40.019531 29.421875 -36.4375 Z M 29.421875 -36.4375 "/></g></g></g><g fill="#163459" fill-opacity="1"><g transform="translate(212.024858, 96.608876)"><g><path d="M 0.90625 -91.09375 L 37.625 -91.09375 C 45.03125 -91.09375 50.960938 -89.921875 55.421875 -87.578125 C 59.890625 -85.242188 63.140625 -82.085938 65.171875 -78.109375 C 67.210938 -74.128906 68.234375 -69.679688 68.234375 -64.765625 C 68.234375 -61.242188 67.757812 -57.765625 66.8125 -54.328125 C 65.875 -50.898438 64.375 -47.804688 62.3125 -45.046875 C 60.25 -42.285156 57.609375 -40.066406 54.390625 -38.390625 C 51.171875 -36.722656 47.28125 -35.890625 42.71875 -35.890625 C 39.257812 -35.890625 36.269531 -36.390625 33.75 -37.390625 C 31.226562 -38.390625 29.054688 -39.632812 27.234375 -41.125 C 25.410156 -42.613281 23.816406 -44.117188 22.453125 -45.640625 C 21.085938 -47.160156 19.875 -48.421875 18.8125 -49.421875 C 17.75 -50.421875 16.703125 -50.921875 15.671875 -50.921875 C 14.453125 -50.921875 13.628906 -50.613281 13.203125 -50 C 12.785156 -49.394531 12.578125 -48.726562 12.578125 -48 C 12.578125 -46.789062 13.210938 -45.578125 14.484375 -44.359375 C 15.753906 -43.148438 17.46875 -41.96875 19.625 -40.8125 C 21.78125 -39.65625 24.164062 -38.546875 26.78125 -37.484375 C 29.394531 -36.421875 32.003906 -35.375 34.609375 -34.34375 C 37.285156 -33.375 40.125 -32.296875 43.125 -31.109375 C 46.132812 -29.921875 49.066406 -28.597656 51.921875 -27.140625 C 54.773438 -25.679688 57.351562 -24.039062 59.65625 -22.21875 C 61.96875 -20.40625 63.820312 -18.34375 65.21875 -16.03125 C 66.613281 -13.726562 67.3125 -11.148438 67.3125 -8.296875 C 67.3125 -5.378906 66.867188 -3.265625 65.984375 -1.953125 C 65.109375 -0.648438 63.550781 0 61.3125 0 L 41.625 0 C 41.019531 0 40.425781 -0.148438 39.84375 -0.453125 C 39.269531 -0.753906 38.984375 -1.300781 38.984375 -2.09375 C 38.984375 -3.1875 39.117188 -4.140625 39.390625 -4.953125 C 39.671875 -5.773438 39.929688 -6.65625 40.171875 -7.59375 C 40.410156 -8.539062 40.53125 -9.773438 40.53125 -11.296875 C 40.53125 -13.296875 39.90625 -15.40625 38.65625 -17.625 C 37.414062 -19.84375 35.78125 -22.03125 33.75 -24.1875 C 31.71875 -26.34375 29.515625 -28.375 27.140625 -30.28125 C 24.773438 -32.195312 22.46875 -33.898438 20.21875 -35.390625 C 17.976562 -36.878906 15.972656 -38.046875 14.203125 -38.890625 C 12.441406 -39.742188 11.195312 -40.171875 10.46875 -40.171875 C 9.863281 -40.171875 9.441406 -39.925781 9.203125 -39.4375 C 8.960938 -38.957031 8.84375 -38.59375 8.84375 -38.34375 C 8.84375 -36.832031 9.429688 -35.46875 10.609375 -34.25 C 11.796875 -33.03125 13.328125 -31.84375 15.203125 -30.6875 C 17.085938 -29.539062 19.078125 -28.3125 21.171875 -27 C 23.273438 -25.695312 25.25 -24.222656 27.09375 -22.578125 C 28.945312 -20.941406 30.46875 -19.03125 31.65625 -16.84375 C 32.84375 -14.664062 33.4375 -12.117188 33.4375 -9.203125 C 33.4375 -7.984375 33.207031 -6.660156 32.75 -5.234375 C 32.289062 -3.804688 31.585938 -2.578125 30.640625 -1.546875 C 29.703125 -0.515625 28.476562 0 26.96875 0 L 1 0 C 2.21875 -1.21875 3.050781 -2.660156 3.5 -4.328125 C 3.957031 -5.992188 4.1875 -8.132812 4.1875 -10.75 L 4.1875 -26.328125 L 4.09375 -45.546875 L 4.09375 -80.34375 C 4.09375 -82.957031 3.863281 -85.097656 3.40625 -86.765625 C 2.957031 -88.429688 2.125 -89.875 0.90625 -91.09375 Z M 32.34375 -72.0625 C 30.03125 -72.0625 27.503906 -71.96875 24.765625 -71.78125 C 22.035156 -71.601562 19.457031 -71.222656 17.03125 -70.640625 C 14.601562 -70.066406 12.613281 -69.171875 11.0625 -67.953125 C 9.519531 -66.742188 8.75 -65.101562 8.75 -63.03125 C 8.75 -60.96875 9.566406 -59.34375 11.203125 -58.15625 C 12.847656 -56.976562 15.019531 -56.082031 17.71875 -55.46875 C 20.414062 -54.863281 23.359375 -54.46875 26.546875 -54.28125 C 29.742188 -54.101562 32.921875 -54.015625 36.078125 -54.015625 C 39.234375 -54.015625 42.421875 -54.101562 45.640625 -54.28125 C 48.859375 -54.46875 51.816406 -54.863281 54.515625 -55.46875 C 57.222656 -56.082031 59.394531 -56.976562 61.03125 -58.15625 C 62.675781 -59.34375 63.5 -60.96875 63.5 -63.03125 C 63.5 -64.675781 62.828125 -66.046875 61.484375 -67.140625 C 60.148438 -68.234375 58.375 -69.113281 56.15625 -69.78125 C 53.9375 -70.445312 51.460938 -70.929688 48.734375 -71.234375 C 46.003906 -71.535156 43.210938 -71.75 40.359375 -71.875 C 37.503906 -72 34.832031 -72.0625 32.34375 -72.0625 Z M 32.34375 -72.0625 "/></g></g></g><g fill="#163459" fill-opacity="1"><g transform="translate(278.977458, 96.608876)"><g><path d="M 3.828125 -55.65625 C 3.222656 -55.65625 2.738281 -55.867188 2.375 -56.296875 C 2.007812 -56.722656 1.828125 -57.238281 1.828125 -57.84375 L 1.828125 -91.09375 L 72.609375 -91.09375 L 72.609375 -57.84375 C 72.609375 -57.238281 72.4375 -56.722656 72.09375 -56.296875 C 71.757812 -55.867188 71.257812 -55.65625 70.59375 -55.65625 C 69.863281 -55.65625 69.03125 -56.398438 68.09375 -57.890625 C 67.15625 -59.378906 66.15625 -61.289062 65.09375 -63.625 C 64.03125 -65.96875 62.9375 -68.457031 61.8125 -71.09375 C 60.6875 -73.738281 59.5625 -76.226562 58.4375 -78.5625 C 57.3125 -80.90625 56.21875 -82.820312 55.15625 -84.3125 C 54.09375 -85.800781 53.078125 -86.546875 52.109375 -86.546875 C 50.773438 -86.546875 49.96875 -85.921875 49.6875 -84.671875 C 49.414062 -83.421875 49.28125 -82.097656 49.28125 -80.703125 L 49.28125 -10.75 C 49.28125 -8.132812 49.503906 -5.992188 49.953125 -4.328125 C 50.410156 -2.660156 51.25 -1.21875 52.46875 0 L 21.953125 0 C 23.171875 -1.21875 24.003906 -2.660156 24.453125 -4.328125 C 24.910156 -5.992188 25.140625 -8.132812 25.140625 -10.75 L 25.140625 -80.703125 C 25.140625 -82.097656 25.003906 -83.421875 24.734375 -84.671875 C 24.460938 -85.921875 23.65625 -86.546875 22.3125 -86.546875 C 21.34375 -86.546875 20.328125 -85.800781 19.265625 -84.3125 C 18.203125 -82.820312 17.109375 -80.90625 15.984375 -78.5625 C 14.859375 -76.226562 13.734375 -73.738281 12.609375 -71.09375 C 11.492188 -68.457031 10.40625 -65.96875 9.34375 -63.625 C 8.28125 -61.289062 7.289062 -59.378906 6.375 -57.890625 C 5.46875 -56.398438 4.617188 -55.65625 3.828125 -55.65625 Z M 3.828125 -55.65625 "/></g></g></g><g fill="#163459" fill-opacity="1"><g transform="translate(349.846982, 96.608876)"><g><path d="M 49.46875 0 L 0.90625 0 C 2.125 -1.21875 2.957031 -2.660156 3.40625 -4.328125 C 3.863281 -5.992188 4.09375 -8.132812 4.09375 -10.75 L 4.09375 -80.34375 C 4.09375 -82.957031 3.863281 -85.097656 3.40625 -86.765625 C 2.957031 -88.429688 2.125 -89.875 0.90625 -91.09375 L 28.875 -91.09375 C 31.363281 -91.09375 33.289062 -90.664062 34.65625 -89.8125 C 36.019531 -88.96875 36.972656 -87.921875 37.515625 -86.671875 C 38.066406 -85.429688 38.34375 -84.203125 38.34375 -82.984375 C 38.34375 -80.734375 37.707031 -78.441406 36.4375 -76.109375 C 35.164062 -73.773438 33.523438 -71.375 31.515625 -68.90625 C 29.515625 -66.445312 27.390625 -63.878906 25.140625 -61.203125 C 22.890625 -58.535156 20.765625 -55.742188 18.765625 -52.828125 C 16.765625 -49.921875 15.125 -46.867188 13.84375 -43.671875 C 12.570312 -40.484375 11.9375 -37.128906 11.9375 -33.609375 C 11.9375 -31.609375 12.253906 -29.347656 12.890625 -26.828125 C 13.523438 -24.304688 14.460938 -21.738281 15.703125 -19.125 C 16.953125 -16.519531 18.519531 -14.109375 20.40625 -11.890625 C 22.289062 -9.671875 24.492188 -7.894531 27.015625 -6.5625 C 29.535156 -5.226562 32.34375 -4.5625 35.4375 -4.5625 C 37.375 -4.5625 39.253906 -4.878906 41.078125 -5.515625 C 42.898438 -6.148438 44.40625 -7.101562 45.59375 -8.375 C 46.78125 -9.65625 47.375 -11.238281 47.375 -13.125 C 47.375 -15.550781 46.851562 -17.628906 45.8125 -19.359375 C 44.78125 -21.085938 43.503906 -22.679688 41.984375 -24.140625 C 40.472656 -25.597656 38.941406 -27.128906 37.390625 -28.734375 C 35.847656 -30.347656 34.554688 -32.234375 33.515625 -34.390625 C 32.484375 -36.546875 31.96875 -39.203125 31.96875 -42.359375 C 31.96875 -44.660156 32.53125 -46.8125 33.65625 -48.8125 C 34.78125 -50.820312 36.285156 -52.445312 38.171875 -53.6875 C 40.054688 -54.9375 42.148438 -55.5625 44.453125 -55.5625 C 45.910156 -55.5625 47.789062 -55.285156 50.09375 -54.734375 C 52.40625 -54.191406 54.710938 -53.460938 57.015625 -52.546875 C 59.328125 -51.640625 61.269531 -50.578125 62.84375 -49.359375 C 64.425781 -48.148438 65.21875 -46.878906 65.21875 -45.546875 C 65.21875 -43.785156 64.734375 -42.390625 63.765625 -41.359375 C 62.796875 -40.328125 61.550781 -39.488281 60.03125 -38.84375 C 58.507812 -38.207031 56.914062 -37.628906 55.25 -37.109375 C 53.582031 -36.597656 51.988281 -36.050781 50.46875 -35.46875 C 48.945312 -34.894531 47.703125 -34.125 46.734375 -33.15625 C 45.765625 -32.1875 45.28125 -30.878906 45.28125 -29.234375 C 45.28125 -27.898438 45.78125 -26.75 46.78125 -25.78125 C 47.78125 -24.8125 49.050781 -23.914062 50.59375 -23.09375 C 52.144531 -22.269531 53.800781 -21.414062 55.5625 -20.53125 C 57.320312 -19.65625 58.976562 -18.640625 60.53125 -17.484375 C 62.082031 -16.335938 63.359375 -14.957031 64.359375 -13.34375 C 65.359375 -11.738281 65.859375 -9.78125 65.859375 -7.46875 C 65.859375 -5.40625 65.359375 -3.84375 64.359375 -2.78125 C 63.359375 -1.71875 62.035156 -1.003906 60.390625 -0.640625 C 58.753906 -0.273438 56.976562 -0.078125 55.0625 -0.046875 C 53.15625 -0.015625 51.289062 0 49.46875 0 Z M 49.46875 0 "/></g></g></g><g fill="#163459" fill-opacity="1"><g transform="translate(413.064806, 96.608876)"><g><path d="M 2.28125 -45.546875 C 2.28125 -50.035156 2.703125 -54.523438 3.546875 -59.015625 C 4.398438 -63.515625 5.707031 -67.769531 7.46875 -71.78125 C 9.226562 -75.789062 11.414062 -79.34375 14.03125 -82.4375 C 16.644531 -85.53125 19.726562 -87.972656 23.28125 -89.765625 C 26.832031 -91.554688 30.851562 -92.453125 35.34375 -92.453125 C 37.707031 -92.453125 39.96875 -92.148438 42.125 -91.546875 C 44.28125 -90.941406 46.5 -90.332031 48.78125 -89.71875 C 51.0625 -89.113281 53.566406 -88.8125 56.296875 -88.8125 C 58.421875 -88.8125 60.101562 -89.113281 61.34375 -89.71875 C 62.59375 -90.332031 63.65625 -90.941406 64.53125 -91.546875 C 65.414062 -92.148438 66.316406 -92.453125 67.234375 -92.453125 C 68.441406 -92.453125 69.132812 -91.769531 69.3125 -90.40625 C 69.5 -89.039062 69.363281 -87.335938 68.90625 -85.296875 C 68.457031 -83.265625 67.804688 -81.25 66.953125 -79.25 C 66.347656 -77.851562 65.46875 -76.195312 64.3125 -74.28125 C 63.15625 -72.375 61.726562 -70.722656 60.03125 -69.328125 C 58.332031 -67.929688 56.390625 -67.234375 54.203125 -67.234375 C 50.984375 -67.234375 48.113281 -67.59375 45.59375 -68.3125 C 43.070312 -69.039062 40.765625 -69.953125 38.671875 -71.046875 C 36.578125 -72.140625 34.570312 -73.234375 32.65625 -74.328125 C 30.738281 -75.421875 28.78125 -76.332031 26.78125 -77.0625 C 24.78125 -77.789062 22.59375 -78.15625 20.21875 -78.15625 C 18.707031 -78.15625 17.460938 -77.742188 16.484375 -76.921875 C 15.515625 -76.109375 14.753906 -75.09375 14.203125 -73.875 C 13.660156 -72.664062 13.28125 -71.453125 13.0625 -70.234375 C 12.851562 -69.015625 12.75 -67.984375 12.75 -67.140625 C 12.75 -66.710938 12.734375 -65.9375 12.703125 -64.8125 C 12.671875 -63.6875 12.671875 -62.5 12.703125 -61.25 C 12.734375 -60.007812 12.882812 -58.945312 13.15625 -58.0625 C 13.4375 -57.1875 13.878906 -56.75 14.484375 -56.75 C 15.390625 -56.75 16.3125 -57.144531 17.25 -57.9375 C 18.195312 -58.726562 19.457031 -59.515625 21.03125 -60.296875 C 22.613281 -61.085938 24.742188 -61.484375 27.421875 -61.484375 C 29.671875 -61.484375 31.859375 -61.101562 33.984375 -60.34375 C 36.109375 -59.59375 38.171875 -58.726562 40.171875 -57.75 C 42.171875 -56.78125 44.128906 -55.914062 46.046875 -55.15625 C 47.960938 -54.394531 49.800781 -54.015625 51.5625 -54.015625 C 52.957031 -54.015625 54.046875 -54.316406 54.828125 -54.921875 C 55.617188 -55.535156 56.257812 -56.128906 56.75 -56.703125 C 57.238281 -57.285156 57.722656 -57.578125 58.203125 -57.578125 C 58.929688 -57.578125 59.492188 -57.070312 59.890625 -56.0625 C 60.285156 -55.0625 60.484375 -53.832031 60.484375 -52.375 C 60.484375 -50.863281 60.191406 -49.222656 59.609375 -47.453125 C 59.035156 -45.691406 58.125 -44.019531 56.875 -42.4375 C 55.632812 -40.863281 54.023438 -39.578125 52.046875 -38.578125 C 50.078125 -37.578125 47.695312 -37.078125 44.90625 -37.078125 C 42.238281 -37.078125 39.8125 -37.640625 37.625 -38.765625 C 35.4375 -39.890625 33.445312 -41.269531 31.65625 -42.90625 C 29.863281 -44.539062 28.191406 -46.160156 26.640625 -47.765625 C 25.097656 -49.378906 23.597656 -50.75 22.140625 -51.875 C 20.679688 -53 19.191406 -53.5625 17.671875 -53.5625 C 16.703125 -53.5625 16.0625 -53.253906 15.75 -52.640625 C 15.445312 -52.035156 15.328125 -51.335938 15.390625 -50.546875 C 15.453125 -49.765625 15.578125 -49.070312 15.765625 -48.46875 C 17.578125 -42.875 20.078125 -37.9375 23.265625 -33.65625 C 26.460938 -29.375 30.0625 -26.019531 34.0625 -23.59375 C 38.070312 -21.164062 42.171875 -19.953125 46.359375 -19.953125 C 49.578125 -19.953125 52.21875 -20.40625 54.28125 -21.3125 C 56.351562 -22.226562 58.039062 -23.351562 59.34375 -24.6875 C 60.65625 -26.019531 61.71875 -27.351562 62.53125 -28.6875 C 63.351562 -30.03125 64.113281 -31.15625 64.8125 -32.0625 C 65.507812 -32.976562 66.316406 -33.4375 67.234375 -33.4375 C 67.773438 -33.4375 68.285156 -33.144531 68.765625 -32.5625 C 69.253906 -31.988281 69.5 -30.640625 69.5 -28.515625 C 69.5 -25.410156 68.832031 -22.128906 67.5 -18.671875 C 66.164062 -15.210938 64.207031 -11.960938 61.625 -8.921875 C 59.039062 -5.890625 55.863281 -3.414062 52.09375 -1.5 C 48.332031 0.40625 44.023438 1.359375 39.171875 1.359375 C 34.066406 1.359375 29.28125 0.390625 24.8125 -1.546875 C 20.351562 -3.492188 16.4375 -6.410156 13.0625 -10.296875 C 9.695312 -14.179688 7.054688 -19.066406 5.140625 -24.953125 C 3.234375 -30.847656 2.28125 -37.710938 2.28125 -45.546875 Z M 2.28125 -45.546875 "/></g></g></g><g fill="#163459" fill-opacity="1"><g transform="translate(480.837215, 96.608876)"><g><path d="M 0 -91.09375 L 24.5 -91.09375 C 27.414062 -91.09375 29.738281 -90.285156 31.46875 -88.671875 C 33.195312 -87.066406 34.441406 -85.0625 35.203125 -82.65625 C 35.960938 -80.257812 36.34375 -77.847656 36.34375 -75.421875 C 36.34375 -72.503906 35.914062 -69.90625 35.0625 -67.625 C 34.21875 -65.351562 33.234375 -63.203125 32.109375 -61.171875 C 30.984375 -59.140625 29.992188 -57 29.140625 -54.75 C 28.296875 -52.5 27.875 -49.914062 27.875 -47 C 27.875 -44.757812 28.785156 -42.664062 30.609375 -40.71875 C 32.429688 -38.769531 35.222656 -37.828125 38.984375 -37.890625 C 41.960938 -37.890625 44.363281 -38.390625 46.1875 -39.390625 C 48.007812 -40.398438 49.40625 -41.660156 50.375 -43.171875 C 51.34375 -44.691406 51.992188 -46.285156 52.328125 -47.953125 C 52.660156 -49.628906 52.828125 -51.195312 52.828125 -52.65625 C 52.828125 -55.019531 52.375 -57.398438 51.46875 -59.796875 C 50.5625 -62.203125 49.4375 -64.585938 48.09375 -66.953125 C 46.757812 -69.316406 45.421875 -71.625 44.078125 -73.875 C 42.742188 -76.125 41.625 -78.265625 40.71875 -80.296875 C 39.8125 -82.328125 39.359375 -84.195312 39.359375 -85.90625 C 39.359375 -87.300781 39.84375 -88.515625 40.8125 -89.546875 C 41.78125 -90.578125 42.992188 -91.09375 44.453125 -91.09375 L 65.671875 -91.09375 C 67.679688 -91.09375 69.203125 -90.363281 70.234375 -88.90625 C 71.265625 -87.445312 71.960938 -85.6875 72.328125 -83.625 C 72.691406 -81.5625 72.875 -79.585938 72.875 -77.703125 C 72.875 -73.148438 72.203125 -68.929688 70.859375 -65.046875 C 69.523438 -61.160156 67.796875 -57.5625 65.671875 -54.25 C 63.546875 -50.9375 61.300781 -47.851562 58.9375 -45 C 56.570312 -42.144531 54.328125 -39.472656 52.203125 -36.984375 C 50.078125 -34.492188 48.34375 -32.15625 47 -29.96875 C 45.664062 -27.78125 45 -25.6875 45 -23.6875 C 45 -20.28125 45.453125 -17.46875 46.359375 -15.25 C 47.273438 -13.039062 48.304688 -11.191406 49.453125 -9.703125 C 50.609375 -8.210938 51.640625 -6.921875 52.546875 -5.828125 C 53.460938 -4.734375 53.921875 -3.640625 53.921875 -2.546875 C 53.921875 -1.816406 53.570312 -1.207031 52.875 -0.71875 C 52.175781 -0.238281 50.945312 0 49.1875 0 L 27.0625 0 C 25.78125 0 24.710938 -0.453125 23.859375 -1.359375 C 23.015625 -2.273438 22.394531 -3.414062 22 -4.78125 C 21.601562 -6.144531 21.40625 -7.46875 21.40625 -8.75 C 21.40625 -11.113281 22.101562 -13.25 23.5 -15.15625 C 24.894531 -17.070312 26.625 -18.820312 28.6875 -20.40625 C 30.757812 -21.988281 32.828125 -23.445312 34.890625 -24.78125 C 36.953125 -26.113281 38.679688 -27.359375 40.078125 -28.515625 C 41.472656 -29.671875 42.171875 -30.796875 42.171875 -31.890625 C 42.171875 -32.796875 41.78125 -33.25 41 -33.25 C 40.207031 -33.25 39.445312 -33.066406 38.71875 -32.703125 C 37.988281 -32.335938 37.015625 -31.957031 35.796875 -31.5625 C 34.585938 -31.164062 32.890625 -30.96875 30.703125 -30.96875 C 27.234375 -30.96875 24.390625 -31.570312 22.171875 -32.78125 C 19.960938 -34 18.203125 -35.625 16.890625 -37.65625 C 15.585938 -39.695312 14.617188 -41.945312 13.984375 -44.40625 C 13.347656 -46.863281 12.90625 -49.304688 12.65625 -51.734375 C 12.351562 -54.773438 12.003906 -58.128906 11.609375 -61.796875 C 11.210938 -65.472656 10.601562 -69.164062 9.78125 -72.875 C 8.96875 -76.582031 7.785156 -80.03125 6.234375 -83.21875 C 4.691406 -86.40625 2.613281 -89.03125 0 -91.09375 Z M 0 -91.09375 "/></g></g></g><g fill="#163459" fill-opacity="1"><g transform="translate(0.470083, 198.559116)"><g><path d="M 22.40625 0 L 0.90625 0 C 2.125 -1.21875 2.957031 -2.660156 3.40625 -4.328125 C 3.863281 -5.992188 4.09375 -8.132812 4.09375 -10.75 L 4.09375 -80.34375 C 4.09375 -82.957031 3.863281 -85.097656 3.40625 -86.765625 C 2.957031 -88.429688 2.125 -89.875 0.90625 -91.09375 L 25.046875 -91.09375 C 26.203125 -91.09375 27.296875 -90.378906 28.328125 -88.953125 C 29.359375 -87.523438 29.875 -86.019531 29.875 -84.4375 C 29.875 -81.707031 29.359375 -79.429688 28.328125 -77.609375 C 27.296875 -75.785156 25.972656 -74.28125 24.359375 -73.09375 C 22.753906 -71.914062 21.054688 -70.914062 19.265625 -70.09375 C 17.472656 -69.269531 15.769531 -68.476562 14.15625 -67.71875 C 12.550781 -66.96875 11.234375 -66.101562 10.203125 -65.125 C 9.171875 -64.15625 8.65625 -62.910156 8.65625 -61.390625 C 8.65625 -60.972656 8.820312 -60.566406 9.15625 -60.171875 C 9.488281 -59.773438 9.898438 -59.578125 10.390625 -59.578125 C 11.296875 -59.578125 12.328125 -59.894531 13.484375 -60.53125 C 14.640625 -61.164062 16.113281 -61.894531 17.90625 -62.71875 C 19.695312 -63.539062 22.03125 -64.269531 24.90625 -64.90625 C 27.789062 -65.539062 31.421875 -65.859375 35.796875 -65.859375 C 40.171875 -65.859375 43.816406 -65.539062 46.734375 -64.90625 C 49.648438 -64.269531 52.03125 -63.539062 53.875 -62.71875 C 55.726562 -61.894531 57.257812 -61.164062 58.46875 -60.53125 C 59.6875 -59.894531 60.753906 -59.578125 61.671875 -59.578125 C 62.160156 -59.578125 62.570312 -59.773438 62.90625 -60.171875 C 63.238281 -60.566406 63.40625 -60.972656 63.40625 -61.390625 C 63.40625 -62.910156 62.882812 -64.15625 61.84375 -65.125 C 60.8125 -66.101562 59.488281 -66.96875 57.875 -67.71875 C 56.269531 -68.476562 54.570312 -69.269531 52.78125 -70.09375 C 51 -70.914062 49.300781 -71.914062 47.6875 -73.09375 C 46.082031 -74.28125 44.757812 -75.785156 43.71875 -77.609375 C 42.6875 -79.429688 42.171875 -81.707031 42.171875 -84.4375 C 42.171875 -86.019531 42.6875 -87.523438 43.71875 -88.953125 C 44.757812 -90.378906 45.851562 -91.09375 47 -91.09375 L 71.140625 -91.09375 C 69.929688 -89.875 69.097656 -88.429688 68.640625 -86.765625 C 68.179688 -85.097656 67.953125 -82.957031 67.953125 -80.34375 L 67.953125 -10.75 C 67.953125 -8.132812 68.179688 -5.992188 68.640625 -4.328125 C 69.097656 -2.660156 69.929688 -1.21875 71.140625 0 L 49.640625 0 C 47.210938 0 45.300781 -0.421875 43.90625 -1.265625 C 42.507812 -2.117188 41.535156 -3.164062 40.984375 -4.40625 C 40.441406 -5.65625 40.171875 -6.890625 40.171875 -8.109375 C 40.171875 -11.023438 40.734375 -13.816406 41.859375 -16.484375 C 42.984375 -19.160156 44.425781 -21.710938 46.1875 -24.140625 C 47.945312 -26.566406 49.8125 -28.875 51.78125 -31.0625 C 53.757812 -33.25 55.628906 -35.328125 57.390625 -37.296875 C 59.148438 -39.273438 60.59375 -41.144531 61.71875 -42.90625 C 62.84375 -44.664062 63.40625 -46.335938 63.40625 -47.921875 C 63.40625 -48.953125 62.945312 -49.46875 62.03125 -49.46875 C 61.238281 -49.46875 60.328125 -49.085938 59.296875 -48.328125 C 58.265625 -47.566406 56.820312 -46.695312 54.96875 -45.71875 C 53.125 -44.75 50.632812 -43.882812 47.5 -43.125 C 44.375 -42.375 40.351562 -42 35.4375 -42 C 30.519531 -42 26.554688 -42.375 23.546875 -43.125 C 20.535156 -43.882812 18.179688 -44.75 16.484375 -45.71875 C 14.785156 -46.695312 13.476562 -47.566406 12.5625 -48.328125 C 11.65625 -49.085938 10.804688 -49.46875 10.015625 -49.46875 C 9.109375 -49.46875 8.65625 -48.953125 8.65625 -47.921875 C 8.65625 -46.335938 9.21875 -44.664062 10.34375 -42.90625 C 11.46875 -41.144531 12.910156 -39.273438 14.671875 -37.296875 C 16.429688 -35.328125 18.296875 -33.25 20.265625 -31.0625 C 22.242188 -28.875 24.113281 -26.566406 25.875 -24.140625 C 27.632812 -21.710938 29.078125 -19.160156 30.203125 -16.484375 C 31.328125 -13.816406 31.890625 -11.023438 31.890625 -8.109375 C 31.890625 -6.890625 31.613281 -5.65625 31.0625 -4.40625 C 30.519531 -3.164062 29.5625 -2.117188 28.1875 -1.265625 C 26.820312 -0.421875 24.894531 0 22.40625 0 Z M 22.40625 0 "/></g></g></g><g fill="#163459" fill-opacity="1"><g transform="translate(68.971241, 198.559116)"><g><path d="M 2.28125 -45.546875 C 2.28125 -52.585938 3.128906 -58.976562 4.828125 -64.71875 C 6.523438 -70.457031 8.953125 -75.40625 12.109375 -79.5625 C 15.273438 -83.726562 19.054688 -86.914062 23.453125 -89.125 C 27.859375 -91.34375 32.765625 -92.453125 38.171875 -92.453125 C 43.515625 -92.453125 48.382812 -91.34375 52.78125 -89.125 C 57.1875 -86.914062 60.96875 -83.726562 64.125 -79.5625 C 67.28125 -75.40625 69.707031 -70.457031 71.40625 -64.71875 C 73.113281 -58.976562 73.96875 -52.585938 73.96875 -45.546875 C 73.96875 -38.503906 73.113281 -32.113281 71.40625 -26.375 C 69.707031 -20.632812 67.28125 -15.679688 64.125 -11.515625 C 60.96875 -7.359375 57.1875 -4.171875 52.78125 -1.953125 C 48.382812 0.253906 43.515625 1.359375 38.171875 1.359375 C 32.765625 1.359375 27.859375 0.253906 23.453125 -1.953125 C 19.054688 -4.171875 15.273438 -7.359375 12.109375 -11.515625 C 8.953125 -15.679688 6.523438 -20.632812 4.828125 -26.375 C 3.128906 -32.113281 2.28125 -38.503906 2.28125 -45.546875 Z M 30.796875 -86.265625 C 28.660156 -86.265625 26.984375 -85.125 25.765625 -82.84375 C 24.554688 -80.570312 23.738281 -77.492188 23.3125 -73.609375 C 22.894531 -69.722656 22.820312 -65.363281 23.09375 -60.53125 C 23.363281 -55.707031 23.921875 -50.710938 24.765625 -45.546875 C 25.617188 -40.378906 26.695312 -35.378906 28 -30.546875 C 29.3125 -25.722656 30.800781 -21.367188 32.46875 -17.484375 C 34.144531 -13.597656 35.9375 -10.515625 37.84375 -8.234375 C 39.757812 -5.960938 41.71875 -4.828125 43.71875 -4.828125 C 46.269531 -4.828125 48.304688 -5.960938 49.828125 -8.234375 C 51.347656 -10.515625 52.410156 -13.597656 53.015625 -17.484375 C 53.617188 -21.367188 53.828125 -25.722656 53.640625 -30.546875 C 53.460938 -35.378906 52.945312 -40.378906 52.09375 -45.546875 C 51.25 -50.710938 50.113281 -55.707031 48.6875 -60.53125 C 47.257812 -65.363281 45.617188 -69.722656 43.765625 -73.609375 C 41.921875 -77.492188 39.90625 -80.570312 37.71875 -82.84375 C 35.53125 -85.125 33.222656 -86.265625 30.796875 -86.265625 Z M 30.796875 -86.265625 "/></g></g></g><g fill="#163459" fill-opacity="1"><g transform="translate(141.662633, 198.559116)"><g><path d="M 49.46875 0 L 0.90625 0 C 2.125 -1.21875 2.957031 -2.660156 3.40625 -4.328125 C 3.863281 -5.992188 4.09375 -8.132812 4.09375 -10.75 L 4.09375 -80.34375 C 4.09375 -82.957031 3.863281 -85.097656 3.40625 -86.765625 C 2.957031 -88.429688 2.125 -89.875 0.90625 -91.09375 L 28.875 -91.09375 C 31.363281 -91.09375 33.289062 -90.664062 34.65625 -89.8125 C 36.019531 -88.96875 36.972656 -87.921875 37.515625 -86.671875 C 38.066406 -85.429688 38.34375 -84.203125 38.34375 -82.984375 C 38.34375 -80.734375 37.707031 -78.441406 36.4375 -76.109375 C 35.164062 -73.773438 33.523438 -71.375 31.515625 -68.90625 C 29.515625 -66.445312 27.390625 -63.878906 25.140625 -61.203125 C 22.890625 -58.535156 20.765625 -55.742188 18.765625 -52.828125 C 16.765625 -49.921875 15.125 -46.867188 13.84375 -43.671875 C 12.570312 -40.484375 11.9375 -37.128906 11.9375 -33.609375 C 11.9375 -31.609375 12.253906 -29.347656 12.890625 -26.828125 C 13.523438 -24.304688 14.460938 -21.738281 15.703125 -19.125 C 16.953125 -16.519531 18.519531 -14.109375 20.40625 -11.890625 C 22.289062 -9.671875 24.492188 -7.894531 27.015625 -6.5625 C 29.535156 -5.226562 32.34375 -4.5625 35.4375 -4.5625 C 37.375 -4.5625 39.253906 -4.878906 41.078125 -5.515625 C 42.898438 -6.148438 44.40625 -7.101562 45.59375 -8.375 C 46.78125 -9.65625 47.375 -11.238281 47.375 -13.125 C 47.375 -15.550781 46.851562 -17.628906 45.8125 -19.359375 C 44.78125 -21.085938 43.503906 -22.679688 41.984375 -24.140625 C 40.472656 -25.597656 38.941406 -27.128906 37.390625 -28.734375 C 35.847656 -30.347656 34.554688 -32.234375 33.515625 -34.390625 C 32.484375 -36.546875 31.96875 -39.203125 31.96875 -42.359375 C 31.96875 -44.660156 32.53125 -46.8125 33.65625 -48.8125 C 34.78125 -50.820312 36.285156 -52.445312 38.171875 -53.6875 C 40.054688 -54.9375 42.148438 -55.5625 44.453125 -55.5625 C 45.910156 -55.5625 47.789062 -55.285156 50.09375 -54.734375 C 52.40625 -54.191406 54.710938 -53.460938 57.015625 -52.546875 C 59.328125 -51.640625 61.269531 -50.578125 62.84375 -49.359375 C 64.425781 -48.148438 65.21875 -46.878906 65.21875 -45.546875 C 65.21875 -43.785156 64.734375 -42.390625 63.765625 -41.359375 C 62.796875 -40.328125 61.550781 -39.488281 60.03125 -38.84375 C 58.507812 -38.207031 56.914062 -37.628906 55.25 -37.109375 C 53.582031 -36.597656 51.988281 -36.050781 50.46875 -35.46875 C 48.945312 -34.894531 47.703125 -34.125 46.734375 -33.15625 C 45.765625 -32.1875 45.28125 -30.878906 45.28125 -29.234375 C 45.28125 -27.898438 45.78125 -26.75 46.78125 -25.78125 C 47.78125 -24.8125 49.050781 -23.914062 50.59375 -23.09375 C 52.144531 -22.269531 53.800781 -21.414062 55.5625 -20.53125 C 57.320312 -19.65625 58.976562 -18.640625 60.53125 -17.484375 C 62.082031 -16.335938 63.359375 -14.957031 64.359375 -13.34375 C 65.359375 -11.738281 65.859375 -9.78125 65.859375 -7.46875 C 65.859375 -5.40625 65.359375 -3.84375 64.359375 -2.78125 C 63.359375 -1.71875 62.035156 -1.003906 60.390625 -0.640625 C 58.753906 -0.273438 56.976562 -0.078125 55.0625 -0.046875 C 53.15625 -0.015625 51.289062 0 49.46875 0 Z M 49.46875 0 "/></g></g></g><g fill="#163459" fill-opacity="1"><g transform="translate(204.880445, 198.559116)"><g><path d="M 49.46875 0 L 0.90625 0 C 2.125 -1.21875 2.957031 -2.660156 3.40625 -4.328125 C 3.863281 -5.992188 4.09375 -8.132812 4.09375 -10.75 L 4.09375 -80.34375 C 4.09375 -82.957031 3.863281 -85.097656 3.40625 -86.765625 C 2.957031 -88.429688 2.125 -89.875 0.90625 -91.09375 L 28.875 -91.09375 C 31.363281 -91.09375 33.289062 -90.664062 34.65625 -89.8125 C 36.019531 -88.96875 36.972656 -87.921875 37.515625 -86.671875 C 38.066406 -85.429688 38.34375 -84.203125 38.34375 -82.984375 C 38.34375 -80.734375 37.707031 -78.441406 36.4375 -76.109375 C 35.164062 -73.773438 33.523438 -71.375 31.515625 -68.90625 C 29.515625 -66.445312 27.390625 -63.878906 25.140625 -61.203125 C 22.890625 -58.535156 20.765625 -55.742188 18.765625 -52.828125 C 16.765625 -49.921875 15.125 -46.867188 13.84375 -43.671875 C 12.570312 -40.484375 11.9375 -37.128906 11.9375 -33.609375 C 11.9375 -31.609375 12.253906 -29.347656 12.890625 -26.828125 C 13.523438 -24.304688 14.460938 -21.738281 15.703125 -19.125 C 16.953125 -16.519531 18.519531 -14.109375 20.40625 -11.890625 C 22.289062 -9.671875 24.492188 -7.894531 27.015625 -6.5625 C 29.535156 -5.226562 32.34375 -4.5625 35.4375 -4.5625 C 37.375 -4.5625 39.253906 -4.878906 41.078125 -5.515625 C 42.898438 -6.148438 44.40625 -7.101562 45.59375 -8.375 C 46.78125 -9.65625 47.375 -11.238281 47.375 -13.125 C 47.375 -15.550781 46.851562 -17.628906 45.8125 -19.359375 C 44.78125 -21.085938 43.503906 -22.679688 41.984375 -24.140625 C 40.472656 -25.597656 38.941406 -27.128906 37.390625 -28.734375 C 35.847656 -30.347656 34.554688 -32.234375 33.515625 -34.390625 C 32.484375 -36.546875 31.96875 -39.203125 31.96875 -42.359375 C 31.96875 -44.660156 32.53125 -46.8125 33.65625 -48.8125 C 34.78125 -50.820312 36.285156 -52.445312 38.171875 -53.6875 C 40.054688 -54.9375 42.148438 -55.5625 44.453125 -55.5625 C 45.910156 -55.5625 47.789062 -55.285156 50.09375 -54.734375 C 52.40625 -54.191406 54.710938 -53.460938 57.015625 -52.546875 C 59.328125 -51.640625 61.269531 -50.578125 62.84375 -49.359375 C 64.425781 -48.148438 65.21875 -46.878906 65.21875 -45.546875 C 65.21875 -43.785156 64.734375 -42.390625 63.765625 -41.359375 C 62.796875 -40.328125 61.550781 -39.488281 60.03125 -38.84375 C 58.507812 -38.207031 56.914062 -37.628906 55.25 -37.109375 C 53.582031 -36.597656 51.988281 -36.050781 50.46875 -35.46875 C 48.945312 -34.894531 47.703125 -34.125 46.734375 -33.15625 C 45.765625 -32.1875 45.28125 -30.878906 45.28125 -29.234375 C 45.28125 -27.898438 45.78125 -26.75 46.78125 -25.78125 C 47.78125 -24.8125 49.050781 -23.914062 50.59375 -23.09375 C 52.144531 -22.269531 53.800781 -21.414062 55.5625 -20.53125 C 57.320312 -19.65625 58.976562 -18.640625 60.53125 -17.484375 C 62.082031 -16.335938 63.359375 -14.957031 64.359375 -13.34375 C 65.359375 -11.738281 65.859375 -9.78125 65.859375 -7.46875 C 65.859375 -5.40625 65.359375 -3.84375 64.359375 -2.78125 C 63.359375 -1.71875 62.035156 -1.003906 60.390625 -0.640625 C 58.753906 -0.273438 56.976562 -0.078125 55.0625 -0.046875 C 53.15625 -0.015625 51.289062 0 49.46875 0 Z M 49.46875 0 "/></g></g></g><g fill="#163459" fill-opacity="1"><g transform="translate(268.098247, 198.559116)"><g><path d="M 2.28125 -45.546875 C 2.28125 -52.585938 3.128906 -58.976562 4.828125 -64.71875 C 6.523438 -70.457031 8.953125 -75.40625 12.109375 -79.5625 C 15.273438 -83.726562 19.054688 -86.914062 23.453125 -89.125 C 27.859375 -91.34375 32.765625 -92.453125 38.171875 -92.453125 C 43.515625 -92.453125 48.382812 -91.34375 52.78125 -89.125 C 57.1875 -86.914062 60.96875 -83.726562 64.125 -79.5625 C 67.28125 -75.40625 69.707031 -70.457031 71.40625 -64.71875 C 73.113281 -58.976562 73.96875 -52.585938 73.96875 -45.546875 C 73.96875 -38.503906 73.113281 -32.113281 71.40625 -26.375 C 69.707031 -20.632812 67.28125 -15.679688 64.125 -11.515625 C 60.96875 -7.359375 57.1875 -4.171875 52.78125 -1.953125 C 48.382812 0.253906 43.515625 1.359375 38.171875 1.359375 C 32.765625 1.359375 27.859375 0.253906 23.453125 -1.953125 C 19.054688 -4.171875 15.273438 -7.359375 12.109375 -11.515625 C 8.953125 -15.679688 6.523438 -20.632812 4.828125 -26.375 C 3.128906 -32.113281 2.28125 -38.503906 2.28125 -45.546875 Z M 30.796875 -86.265625 C 28.660156 -86.265625 26.984375 -85.125 25.765625 -82.84375 C 24.554688 -80.570312 23.738281 -77.492188 23.3125 -73.609375 C 22.894531 -69.722656 22.820312 -65.363281 23.09375 -60.53125 C 23.363281 -55.707031 23.921875 -50.710938 24.765625 -45.546875 C 25.617188 -40.378906 26.695312 -35.378906 28 -30.546875 C 29.3125 -25.722656 30.800781 -21.367188 32.46875 -17.484375 C 34.144531 -13.597656 35.9375 -10.515625 37.84375 -8.234375 C 39.757812 -5.960938 41.71875 -4.828125 43.71875 -4.828125 C 46.269531 -4.828125 48.304688 -5.960938 49.828125 -8.234375 C 51.347656 -10.515625 52.410156 -13.597656 53.015625 -17.484375 C 53.617188 -21.367188 53.828125 -25.722656 53.640625 -30.546875 C 53.460938 -35.378906 52.945312 -40.378906 52.09375 -45.546875 C 51.25 -50.710938 50.113281 -55.707031 48.6875 -60.53125 C 47.257812 -65.363281 45.617188 -69.722656 43.765625 -73.609375 C 41.921875 -77.492188 39.90625 -80.570312 37.71875 -82.84375 C 35.53125 -85.125 33.222656 -86.265625 30.796875 -86.265625 Z M 30.796875 -86.265625 "/></g></g></g><g fill="#163459" fill-opacity="1"><g transform="translate(340.78965, 198.559116)"><g><path d="M 8.015625 -73.421875 C 6.859375 -77.179688 5.703125 -80.6875 4.546875 -83.9375 C 3.398438 -87.1875 1.882812 -89.570312 0 -91.09375 L 37.625 -91.09375 C 36.59375 -89.9375 35.785156 -88.460938 35.203125 -86.671875 C 34.628906 -84.878906 34.34375 -83.046875 34.34375 -81.171875 C 34.34375 -80.015625 34.507812 -78.007812 34.84375 -75.15625 C 35.175781 -72.300781 35.660156 -68.929688 36.296875 -65.046875 C 36.929688 -61.160156 37.675781 -57.070312 38.53125 -52.78125 C 39.382812 -48.5 40.3125 -44.296875 41.3125 -40.171875 C 42.3125 -36.046875 43.390625 -32.296875 44.546875 -28.921875 C 45.703125 -25.546875 46.882812 -22.859375 48.09375 -20.859375 C 49.3125 -18.859375 50.523438 -17.859375 51.734375 -17.859375 C 53.316406 -17.859375 54.65625 -18.675781 55.75 -20.3125 C 56.84375 -21.957031 57.707031 -24.160156 58.34375 -26.921875 C 58.976562 -29.679688 59.445312 -32.726562 59.75 -36.0625 C 60.0625 -39.40625 60.21875 -42.773438 60.21875 -46.171875 C 60.21875 -49.578125 60.109375 -52.769531 59.890625 -55.75 C 59.679688 -58.726562 59.394531 -61.21875 59.03125 -63.21875 C 58.601562 -64.851562 58.144531 -66.519531 57.65625 -68.21875 C 57.175781 -69.925781 56.660156 -71.660156 56.109375 -73.421875 C 54.960938 -77.179688 53.8125 -80.6875 52.65625 -83.9375 C 51.5 -87.1875 49.976562 -89.570312 48.09375 -91.09375 L 85.71875 -91.09375 C 84.6875 -89.9375 83.878906 -88.460938 83.296875 -86.671875 C 82.722656 -84.878906 82.4375 -83.046875 82.4375 -81.171875 C 82.4375 -80.015625 82.601562 -78.007812 82.9375 -75.15625 C 83.269531 -72.300781 83.753906 -68.929688 84.390625 -65.046875 C 85.035156 -61.160156 85.78125 -57.070312 86.625 -52.78125 C 87.476562 -48.5 88.40625 -44.296875 89.40625 -40.171875 C 90.40625 -36.046875 91.484375 -32.296875 92.640625 -28.921875 C 93.796875 -25.546875 94.976562 -22.859375 96.1875 -20.859375 C 97.40625 -18.859375 98.625 -17.859375 99.84375 -17.859375 C 101.414062 -17.859375 102.65625 -18.523438 103.5625 -19.859375 C 104.476562 -21.191406 105.132812 -22.9375 105.53125 -25.09375 C 105.925781 -27.25 106.125 -29.539062 106.125 -31.96875 C 106.125 -35.613281 105.664062 -39.164062 104.75 -42.625 C 103.84375 -46.09375 102.722656 -49.460938 101.390625 -52.734375 C 100.054688 -56.015625 98.703125 -59.25 97.328125 -62.4375 C 95.960938 -65.632812 94.820312 -68.8125 93.90625 -71.96875 C 93 -75.125 92.546875 -78.28125 92.546875 -81.4375 C 92.546875 -82.894531 92.726562 -84.367188 93.09375 -85.859375 C 93.457031 -87.347656 94.125 -88.59375 95.09375 -89.59375 C 96.070312 -90.59375 97.441406 -91.09375 99.203125 -91.09375 L 129.984375 -91.09375 C 128.109375 -89.570312 126.59375 -87.1875 125.4375 -83.9375 C 124.28125 -80.6875 123.125 -77.179688 121.96875 -73.421875 C 120.144531 -67.222656 118.550781 -61.570312 117.1875 -56.46875 C 115.820312 -51.375 114.609375 -46.410156 113.546875 -41.578125 C 112.484375 -36.753906 111.453125 -31.726562 110.453125 -26.5 C 109.453125 -21.28125 108.375 -15.515625 107.21875 -9.203125 C 106.914062 -7.441406 106.929688 -5.707031 107.265625 -4 C 107.597656 -2.300781 108.25 -0.96875 109.21875 0 L 68.859375 0 C 69.898438 -0.96875 70.570312 -2.300781 70.875 -4 C 71.175781 -5.707031 71.175781 -7.441406 70.875 -9.203125 C 69.84375 -15.085938 68.867188 -20.457031 67.953125 -25.3125 C 67.046875 -30.175781 66.078125 -34.882812 65.046875 -39.4375 C 64.015625 -34.882812 63.023438 -30.175781 62.078125 -25.3125 C 61.140625 -20.457031 60.15625 -15.085938 59.125 -9.203125 C 58.820312 -7.441406 58.835938 -5.707031 59.171875 -4 C 59.503906 -2.300781 60.15625 -0.96875 61.125 0 L 20.765625 0 C 21.796875 -0.96875 22.460938 -2.300781 22.765625 -4 C 23.078125 -5.707031 23.082031 -7.441406 22.78125 -9.203125 C 21.625 -15.515625 20.539062 -21.28125 19.53125 -26.5 C 18.53125 -31.726562 17.484375 -36.753906 16.390625 -41.578125 C 15.296875 -46.410156 14.082031 -51.375 12.75 -56.46875 C 11.414062 -61.570312 9.835938 -67.222656 8.015625 -73.421875 Z M 8.015625 -73.421875 "/></g></g></g><g fill="#163459" fill-opacity="1"><g transform="translate(467.225436, 198.559116)"><g><path d="M 0 0 C 1.882812 -1.582031 3.398438 -3.984375 4.546875 -7.203125 C 5.703125 -10.421875 6.859375 -13.910156 8.015625 -17.671875 C 9.835938 -23.867188 11.429688 -29.515625 12.796875 -34.609375 C 14.160156 -39.710938 15.375 -44.675781 16.4375 -49.5 C 17.5 -54.332031 18.53125 -59.359375 19.53125 -64.578125 C 20.539062 -69.804688 21.625 -75.578125 22.78125 -81.890625 C 23.082031 -83.648438 23.078125 -85.378906 22.765625 -87.078125 C 22.460938 -88.785156 21.796875 -90.125 20.765625 -91.09375 L 61.125 -91.09375 C 60.15625 -90.125 59.503906 -88.785156 59.171875 -87.078125 C 58.835938 -85.378906 58.820312 -83.648438 59.125 -81.890625 C 60.269531 -75.578125 61.34375 -69.804688 62.34375 -64.578125 C 63.351562 -59.359375 64.390625 -54.332031 65.453125 -49.5 C 66.515625 -44.675781 67.726562 -39.710938 69.09375 -34.609375 C 70.457031 -29.515625 72.050781 -23.867188 73.875 -17.671875 C 75.03125 -13.910156 76.179688 -10.421875 77.328125 -7.203125 C 78.484375 -3.984375 80.003906 -1.582031 81.890625 0 L 44.265625 0 C 45.296875 -1.21875 46.097656 -2.707031 46.671875 -4.46875 C 47.253906 -6.226562 47.546875 -8.046875 47.546875 -9.921875 C 47.546875 -11.441406 47.269531 -14.265625 46.71875 -18.390625 C 46.175781 -22.523438 45.453125 -27.175781 44.546875 -32.34375 L 31.15625 -32.34375 C 32.726562 -28.507812 34.164062 -24.707031 35.46875 -20.9375 C 36.78125 -17.175781 37.4375 -13.414062 37.4375 -9.65625 C 37.4375 -8.257812 37.253906 -6.800781 36.890625 -5.28125 C 36.523438 -3.757812 35.867188 -2.5 34.921875 -1.5 C 33.984375 -0.5 32.609375 0 30.796875 0 Z M 29.421875 -36.4375 L 43.71875 -36.4375 C 42.875 -40.8125 41.9375 -45.164062 40.90625 -49.5 C 39.875 -53.84375 38.765625 -57.804688 37.578125 -61.390625 C 36.390625 -64.972656 35.171875 -67.84375 33.921875 -70 C 32.679688 -72.15625 31.425781 -73.234375 30.15625 -73.234375 C 28.570312 -73.234375 27.320312 -72.566406 26.40625 -71.234375 C 25.5 -69.898438 24.847656 -68.15625 24.453125 -66 C 24.054688 -63.84375 23.859375 -61.550781 23.859375 -59.125 C 23.859375 -55.113281 24.421875 -51.222656 25.546875 -47.453125 C 26.671875 -43.691406 27.960938 -40.019531 29.421875 -36.4375 Z M 29.421875 -36.4375 "/></g></g></g><g fill="#163459" fill-opacity="1"><g transform="translate(545.564535, 198.559116)"><g><path d="M 0 -91.09375 L 24.5 -91.09375 C 27.414062 -91.09375 29.738281 -90.285156 31.46875 -88.671875 C 33.195312 -87.066406 34.441406 -85.0625 35.203125 -82.65625 C 35.960938 -80.257812 36.34375 -77.847656 36.34375 -75.421875 C 36.34375 -72.503906 35.914062 -69.90625 35.0625 -67.625 C 34.21875 -65.351562 33.234375 -63.203125 32.109375 -61.171875 C 30.984375 -59.140625 29.992188 -57 29.140625 -54.75 C 28.296875 -52.5 27.875 -49.914062 27.875 -47 C 27.875 -44.757812 28.785156 -42.664062 30.609375 -40.71875 C 32.429688 -38.769531 35.222656 -37.828125 38.984375 -37.890625 C 41.960938 -37.890625 44.363281 -38.390625 46.1875 -39.390625 C 48.007812 -40.398438 49.40625 -41.660156 50.375 -43.171875 C 51.34375 -44.691406 51.992188 -46.285156 52.328125 -47.953125 C 52.660156 -49.628906 52.828125 -51.195312 52.828125 -52.65625 C 52.828125 -55.019531 52.375 -57.398438 51.46875 -59.796875 C 50.5625 -62.203125 49.4375 -64.585938 48.09375 -66.953125 C 46.757812 -69.316406 45.421875 -71.625 44.078125 -73.875 C 42.742188 -76.125 41.625 -78.265625 40.71875 -80.296875 C 39.8125 -82.328125 39.359375 -84.195312 39.359375 -85.90625 C 39.359375 -87.300781 39.84375 -88.515625 40.8125 -89.546875 C 41.78125 -90.578125 42.992188 -91.09375 44.453125 -91.09375 L 65.671875 -91.09375 C 67.679688 -91.09375 69.203125 -90.363281 70.234375 -88.90625 C 71.265625 -87.445312 71.960938 -85.6875 72.328125 -83.625 C 72.691406 -81.5625 72.875 -79.585938 72.875 -77.703125 C 72.875 -73.148438 72.203125 -68.929688 70.859375 -65.046875 C 69.523438 -61.160156 67.796875 -57.5625 65.671875 -54.25 C 63.546875 -50.9375 61.300781 -47.851562 58.9375 -45 C 56.570312 -42.144531 54.328125 -39.472656 52.203125 -36.984375 C 50.078125 -34.492188 48.34375 -32.15625 47 -29.96875 C 45.664062 -27.78125 45 -25.6875 45 -23.6875 C 45 -20.28125 45.453125 -17.46875 46.359375 -15.25 C 47.273438 -13.039062 48.304688 -11.191406 49.453125 -9.703125 C 50.609375 -8.210938 51.640625 -6.921875 52.546875 -5.828125 C 53.460938 -4.734375 53.921875 -3.640625 53.921875 -2.546875 C 53.921875 -1.816406 53.570312 -1.207031 52.875 -0.71875 C 52.175781 -0.238281 50.945312 0 49.1875 0 L 27.0625 0 C 25.78125 0 24.710938 -0.453125 23.859375 -1.359375 C 23.015625 -2.273438 22.394531 -3.414062 22 -4.78125 C 21.601562 -6.144531 21.40625 -7.46875 21.40625 -8.75 C 21.40625 -11.113281 22.101562 -13.25 23.5 -15.15625 C 24.894531 -17.070312 26.625 -18.820312 28.6875 -20.40625 C 30.757812 -21.988281 32.828125 -23.445312 34.890625 -24.78125 C 36.953125 -26.113281 38.679688 -27.359375 40.078125 -28.515625 C 41.472656 -29.671875 42.171875 -30.796875 42.171875 -31.890625 C 42.171875 -32.796875 41.78125 -33.25 41 -33.25 C 40.207031 -33.25 39.445312 -33.066406 38.71875 -32.703125 C 37.988281 -32.335938 37.015625 -31.957031 35.796875 -31.5625 C 34.585938 -31.164062 32.890625 -30.96875 30.703125 -30.96875 C 27.234375 -30.96875 24.390625 -31.570312 22.171875 -32.78125 C 19.960938 -34 18.203125 -35.625 16.890625 -37.65625 C 15.585938 -39.695312 14.617188 -41.945312 13.984375 -44.40625 C 13.347656 -46.863281 12.90625 -49.304688 12.65625 -51.734375 C 12.351562 -54.773438 12.003906 -58.128906 11.609375 -61.796875 C 11.210938 -65.472656 10.601562 -69.164062 9.78125 -72.875 C 8.96875 -76.582031 7.785156 -80.03125 6.234375 -83.21875 C 4.691406 -86.40625 2.613281 -89.03125 0 -91.09375 Z M 0 -91.09375 "/></g></g></g></g></g></g><g fill="#ffefd6" fill-opacity="1"><g transform="translate(270.190347, 273.408703)"><g><path d="M 22.40625 0 L 0.90625 0 C 2.125 -1.21875 2.957031 -2.660156 3.40625 -4.328125 C 3.863281 -5.992188 4.09375 -8.132812 4.09375 -10.75 L 4.09375 -80.34375 C 4.09375 -82.957031 3.863281 -85.097656 3.40625 -86.765625 C 2.957031 -88.429688 2.125 -89.875 0.90625 -91.09375 L 25.046875 -91.09375 C 26.203125 -91.09375 27.296875 -90.378906 28.328125 -88.953125 C 29.359375 -87.523438 29.875 -86.019531 29.875 -84.4375 C 29.875 -81.707031 29.359375 -79.429688 28.328125 -77.609375 C 27.296875 -75.785156 25.972656 -74.28125 24.359375 -73.09375 C 22.753906 -71.914062 21.054688 -70.914062 19.265625 -70.09375 C 17.472656 -69.269531 15.769531 -68.476562 14.15625 -67.71875 C 12.550781 -66.96875 11.234375 -66.101562 10.203125 -65.125 C 9.171875 -64.15625 8.65625 -62.910156 8.65625 -61.390625 C 8.65625 -60.972656 8.820312 -60.566406 9.15625 -60.171875 C 9.488281 -59.773438 9.898438 -59.578125 10.390625 -59.578125 C 11.296875 -59.578125 12.328125 -59.894531 13.484375 -60.53125 C 14.640625 -61.164062 16.113281 -61.894531 17.90625 -62.71875 C 19.695312 -63.539062 22.03125 -64.269531 24.90625 -64.90625 C 27.789062 -65.539062 31.421875 -65.859375 35.796875 -65.859375 C 40.171875 -65.859375 43.816406 -65.539062 46.734375 -64.90625 C 49.648438 -64.269531 52.03125 -63.539062 53.875 -62.71875 C 55.726562 -61.894531 57.257812 -61.164062 58.46875 -60.53125 C 59.6875 -59.894531 60.753906 -59.578125 61.671875 -59.578125 C 62.160156 -59.578125 62.570312 -59.773438 62.90625 -60.171875 C 63.238281 -60.566406 63.40625 -60.972656 63.40625 -61.390625 C 63.40625 -62.910156 62.882812 -64.15625 61.84375 -65.125 C 60.8125 -66.101562 59.488281 -66.96875 57.875 -67.71875 C 56.269531 -68.476562 54.570312 -69.269531 52.78125 -70.09375 C 51 -70.914062 49.300781 -71.914062 47.6875 -73.09375 C 46.082031 -74.28125 44.757812 -75.785156 43.71875 -77.609375 C 42.6875 -79.429688 42.171875 -81.707031 42.171875 -84.4375 C 42.171875 -86.019531 42.6875 -87.523438 43.71875 -88.953125 C 44.757812 -90.378906 45.851562 -91.09375 47 -91.09375 L 71.140625 -91.09375 C 69.929688 -89.875 69.097656 -88.429688 68.640625 -86.765625 C 68.179688 -85.097656 67.953125 -82.957031 67.953125 -80.34375 L 67.953125 -10.75 C 67.953125 -8.132812 68.179688 -5.992188 68.640625 -4.328125 C 69.097656 -2.660156 69.929688 -1.21875 71.140625 0 L 49.640625 0 C 47.210938 0 45.300781 -0.421875 43.90625 -1.265625 C 42.507812 -2.117188 41.535156 -3.164062 40.984375 -4.40625 C 40.441406 -5.65625 40.171875 -6.890625 40.171875 -8.109375 C 40.171875 -11.023438 40.734375 -13.816406 41.859375 -16.484375 C 42.984375 -19.160156 44.425781 -21.710938 46.1875 -24.140625 C 47.945312 -26.566406 49.8125 -28.875 51.78125 -31.0625 C 53.757812 -33.25 55.628906 -35.328125 57.390625 -37.296875 C 59.148438 -39.273438 60.59375 -41.144531 61.71875 -42.90625 C 62.84375 -44.664062 63.40625 -46.335938 63.40625 -47.921875 C 63.40625 -48.953125 62.945312 -49.46875 62.03125 -49.46875 C 61.238281 -49.46875 60.328125 -49.085938 59.296875 -48.328125 C 58.265625 -47.566406 56.820312 -46.695312 54.96875 -45.71875 C 53.125 -44.75 50.632812 -43.882812 47.5 -43.125 C 44.375 -42.375 40.351562 -42 35.4375 -42 C 30.519531 -42 26.554688 -42.375 23.546875 -43.125 C 20.535156 -43.882812 18.179688 -44.75 16.484375 -45.71875 C 14.785156 -46.695312 13.476562 -47.566406 12.5625 -48.328125 C 11.65625 -49.085938 10.804688 -49.46875 10.015625 -49.46875 C 9.109375 -49.46875 8.65625 -48.953125 8.65625 -47.921875 C 8.65625 -46.335938 9.21875 -44.664062 10.34375 -42.90625 C 11.46875 -41.144531 12.910156 -39.273438 14.671875 -37.296875 C 16.429688 -35.328125 18.296875 -33.25 20.265625 -31.0625 C 22.242188 -28.875 24.113281 -26.566406 25.875 -24.140625 C 27.632812 -21.710938 29.078125 -19.160156 30.203125 -16.484375 C 31.328125 -13.816406 31.890625 -11.023438 31.890625 -8.109375 C 31.890625 -6.890625 31.613281 -5.65625 31.0625 -4.40625 C 30.519531 -3.164062 29.5625 -2.117188 28.1875 -1.265625 C 26.820312 -0.421875 24.894531 0 22.40625 0 Z M 22.40625 0 "/></g></g></g><g fill="#ffefd6" fill-opacity="1"><g transform="translate(338.691505, 273.408703)"><g><path d="M 0 0 C 1.882812 -1.582031 3.398438 -3.984375 4.546875 -7.203125 C 5.703125 -10.421875 6.859375 -13.910156 8.015625 -17.671875 C 9.835938 -23.867188 11.429688 -29.515625 12.796875 -34.609375 C 14.160156 -39.710938 15.375 -44.675781 16.4375 -49.5 C 17.5 -54.332031 18.53125 -59.359375 19.53125 -64.578125 C 20.539062 -69.804688 21.625 -75.578125 22.78125 -81.890625 C 23.082031 -83.648438 23.078125 -85.378906 22.765625 -87.078125 C 22.460938 -88.785156 21.796875 -90.125 20.765625 -91.09375 L 61.125 -91.09375 C 60.15625 -90.125 59.503906 -88.785156 59.171875 -87.078125 C 58.835938 -85.378906 58.820312 -83.648438 59.125 -81.890625 C 60.269531 -75.578125 61.34375 -69.804688 62.34375 -64.578125 C 63.351562 -59.359375 64.390625 -54.332031 65.453125 -49.5 C 66.515625 -44.675781 67.726562 -39.710938 69.09375 -34.609375 C 70.457031 -29.515625 72.050781 -23.867188 73.875 -17.671875 C 75.03125 -13.910156 76.179688 -10.421875 77.328125 -7.203125 C 78.484375 -3.984375 80.003906 -1.582031 81.890625 0 L 44.265625 0 C 45.296875 -1.21875 46.097656 -2.707031 46.671875 -4.46875 C 47.253906 -6.226562 47.546875 -8.046875 47.546875 -9.921875 C 47.546875 -11.441406 47.269531 -14.265625 46.71875 -18.390625 C 46.175781 -22.523438 45.453125 -27.175781 44.546875 -32.34375 L 31.15625 -32.34375 C 32.726562 -28.507812 34.164062 -24.707031 35.46875 -20.9375 C 36.78125 -17.175781 37.4375 -13.414062 37.4375 -9.65625 C 37.4375 -8.257812 37.253906 -6.800781 36.890625 -5.28125 C 36.523438 -3.757812 35.867188 -2.5 34.921875 -1.5 C 33.984375 -0.5 32.609375 0 30.796875 0 Z M 29.421875 -36.4375 L 43.71875 -36.4375 C 42.875 -40.8125 41.9375 -45.164062 40.90625 -49.5 C 39.875 -53.84375 38.765625 -57.804688 37.578125 -61.390625 C 36.390625 -64.972656 35.171875 -67.84375 33.921875 -70 C 32.679688 -72.15625 31.425781 -73.234375 30.15625 -73.234375 C 28.570312 -73.234375 27.320312 -72.566406 26.40625 -71.234375 C 25.5 -69.898438 24.847656 -68.15625 24.453125 -66 C 24.054688 -63.84375 23.859375 -61.550781 23.859375 -59.125 C 23.859375 -55.113281 24.421875 -51.222656 25.546875 -47.453125 C 26.671875 -43.691406 27.960938 -40.019531 29.421875 -36.4375 Z M 29.421875 -36.4375 "/></g></g></g><g fill="#ffefd6" fill-opacity="1"><g transform="translate(417.030615, 273.408703)"><g><path d="M 0.90625 -91.09375 L 37.625 -91.09375 C 45.03125 -91.09375 50.960938 -89.921875 55.421875 -87.578125 C 59.890625 -85.242188 63.140625 -82.085938 65.171875 -78.109375 C 67.210938 -74.128906 68.234375 -69.679688 68.234375 -64.765625 C 68.234375 -61.242188 67.757812 -57.765625 66.8125 -54.328125 C 65.875 -50.898438 64.375 -47.804688 62.3125 -45.046875 C 60.25 -42.285156 57.609375 -40.066406 54.390625 -38.390625 C 51.171875 -36.722656 47.28125 -35.890625 42.71875 -35.890625 C 39.257812 -35.890625 36.269531 -36.390625 33.75 -37.390625 C 31.226562 -38.390625 29.054688 -39.632812 27.234375 -41.125 C 25.410156 -42.613281 23.816406 -44.117188 22.453125 -45.640625 C 21.085938 -47.160156 19.875 -48.421875 18.8125 -49.421875 C 17.75 -50.421875 16.703125 -50.921875 15.671875 -50.921875 C 14.453125 -50.921875 13.628906 -50.613281 13.203125 -50 C 12.785156 -49.394531 12.578125 -48.726562 12.578125 -48 C 12.578125 -46.789062 13.210938 -45.578125 14.484375 -44.359375 C 15.753906 -43.148438 17.46875 -41.96875 19.625 -40.8125 C 21.78125 -39.65625 24.164062 -38.546875 26.78125 -37.484375 C 29.394531 -36.421875 32.003906 -35.375 34.609375 -34.34375 C 37.285156 -33.375 40.125 -32.296875 43.125 -31.109375 C 46.132812 -29.921875 49.066406 -28.597656 51.921875 -27.140625 C 54.773438 -25.679688 57.351562 -24.039062 59.65625 -22.21875 C 61.96875 -20.40625 63.820312 -18.34375 65.21875 -16.03125 C 66.613281 -13.726562 67.3125 -11.148438 67.3125 -8.296875 C 67.3125 -5.378906 66.867188 -3.265625 65.984375 -1.953125 C 65.109375 -0.648438 63.550781 0 61.3125 0 L 41.625 0 C 41.019531 0 40.425781 -0.148438 39.84375 -0.453125 C 39.269531 -0.753906 38.984375 -1.300781 38.984375 -2.09375 C 38.984375 -3.1875 39.117188 -4.140625 39.390625 -4.953125 C 39.671875 -5.773438 39.929688 -6.65625 40.171875 -7.59375 C 40.410156 -8.539062 40.53125 -9.773438 40.53125 -11.296875 C 40.53125 -13.296875 39.90625 -15.40625 38.65625 -17.625 C 37.414062 -19.84375 35.78125 -22.03125 33.75 -24.1875 C 31.71875 -26.34375 29.515625 -28.375 27.140625 -30.28125 C 24.773438 -32.195312 22.46875 -33.898438 20.21875 -35.390625 C 17.976562 -36.878906 15.972656 -38.046875 14.203125 -38.890625 C 12.441406 -39.742188 11.195312 -40.171875 10.46875 -40.171875 C 9.863281 -40.171875 9.441406 -39.925781 9.203125 -39.4375 C 8.960938 -38.957031 8.84375 -38.59375 8.84375 -38.34375 C 8.84375 -36.832031 9.429688 -35.46875 10.609375 -34.25 C 11.796875 -33.03125 13.328125 -31.84375 15.203125 -30.6875 C 17.085938 -29.539062 19.078125 -28.3125 21.171875 -27 C 23.273438 -25.695312 25.25 -24.222656 27.09375 -22.578125 C 28.945312 -20.941406 30.46875 -19.03125 31.65625 -16.84375 C 32.84375 -14.664062 33.4375 -12.117188 33.4375 -9.203125 C 33.4375 -7.984375 33.207031 -6.660156 32.75 -5.234375 C 32.289062 -3.804688 31.585938 -2.578125 30.640625 -1.546875 C 29.703125 -0.515625 28.476562 0 26.96875 0 L 1 0 C 2.21875 -1.21875 3.050781 -2.660156 3.5 -4.328125 C 3.957031 -5.992188 4.1875 -8.132812 4.1875 -10.75 L 4.1875 -26.328125 L 4.09375 -45.546875 L 4.09375 -80.34375 C 4.09375 -82.957031 3.863281 -85.097656 3.40625 -86.765625 C 2.957031 -88.429688 2.125 -89.875 0.90625 -91.09375 Z M 32.34375 -72.0625 C 30.03125 -72.0625 27.503906 -71.96875 24.765625 -71.78125 C 22.035156 -71.601562 19.457031 -71.222656 17.03125 -70.640625 C 14.601562 -70.066406 12.613281 -69.171875 11.0625 -67.953125 C 9.519531 -66.742188 8.75 -65.101562 8.75 -63.03125 C 8.75 -60.96875 9.566406 -59.34375 11.203125 -58.15625 C 12.847656 -56.976562 15.019531 -56.082031 17.71875 -55.46875 C 20.414062 -54.863281 23.359375 -54.46875 26.546875 -54.28125 C 29.742188 -54.101562 32.921875 -54.015625 36.078125 -54.015625 C 39.234375 -54.015625 42.421875 -54.101562 45.640625 -54.28125 C 48.859375 -54.46875 51.816406 -54.863281 54.515625 -55.46875 C 57.222656 -56.082031 59.394531 -56.976562 61.03125 -58.15625 C 62.675781 -59.34375 63.5 -60.96875 63.5 -63.03125 C 63.5 -64.675781 62.828125 -66.046875 61.484375 -67.140625 C 60.148438 -68.234375 58.375 -69.113281 56.15625 -69.78125 C 53.9375 -70.445312 51.460938 -70.929688 48.734375 -71.234375 C 46.003906 -71.535156 43.210938 -71.75 40.359375 -71.875 C 37.503906 -72 34.832031 -72.0625 32.34375 -72.0625 Z M 32.34375 -72.0625 "/></g></g></g><g fill="#ffefd6" fill-opacity="1"><g transform="translate(483.983215, 273.408703)"><g><path d="M 3.828125 -55.65625 C 3.222656 -55.65625 2.738281 -55.867188 2.375 -56.296875 C 2.007812 -56.722656 1.828125 -57.238281 1.828125 -57.84375 L 1.828125 -91.09375 L 72.609375 -91.09375 L 72.609375 -57.84375 C 72.609375 -57.238281 72.4375 -56.722656 72.09375 -56.296875 C 71.757812 -55.867188 71.257812 -55.65625 70.59375 -55.65625 C 69.863281 -55.65625 69.03125 -56.398438 68.09375 -57.890625 C 67.15625 -59.378906 66.15625 -61.289062 65.09375 -63.625 C 64.03125 -65.96875 62.9375 -68.457031 61.8125 -71.09375 C 60.6875 -73.738281 59.5625 -76.226562 58.4375 -78.5625 C 57.3125 -80.90625 56.21875 -82.820312 55.15625 -84.3125 C 54.09375 -85.800781 53.078125 -86.546875 52.109375 -86.546875 C 50.773438 -86.546875 49.96875 -85.921875 49.6875 -84.671875 C 49.414062 -83.421875 49.28125 -82.097656 49.28125 -80.703125 L 49.28125 -10.75 C 49.28125 -8.132812 49.503906 -5.992188 49.953125 -4.328125 C 50.410156 -2.660156 51.25 -1.21875 52.46875 0 L 21.953125 0 C 23.171875 -1.21875 24.003906 -2.660156 24.453125 -4.328125 C 24.910156 -5.992188 25.140625 -8.132812 25.140625 -10.75 L 25.140625 -80.703125 C 25.140625 -82.097656 25.003906 -83.421875 24.734375 -84.671875 C 24.460938 -85.921875 23.65625 -86.546875 22.3125 -86.546875 C 21.34375 -86.546875 20.328125 -85.800781 19.265625 -84.3125 C 18.203125 -82.820312 17.109375 -80.90625 15.984375 -78.5625 C 14.859375 -76.226562 13.734375 -73.738281 12.609375 -71.09375 C 11.492188 -68.457031 10.40625 -65.96875 9.34375 -63.625 C 8.28125 -61.289062 7.289062 -59.378906 6.375 -57.890625 C 5.46875 -56.398438 4.617188 -55.65625 3.828125 -55.65625 Z M 3.828125 -55.65625 "/></g></g></g><g fill="#ffefd6" fill-opacity="1"><g transform="translate(554.852738, 273.408703)"><g><path d="M 49.46875 0 L 0.90625 0 C 2.125 -1.21875 2.957031 -2.660156 3.40625 -4.328125 C 3.863281 -5.992188 4.09375 -8.132812 4.09375 -10.75 L 4.09375 -80.34375 C 4.09375 -82.957031 3.863281 -85.097656 3.40625 -86.765625 C 2.957031 -88.429688 2.125 -89.875 0.90625 -91.09375 L 28.875 -91.09375 C 31.363281 -91.09375 33.289062 -90.664062 34.65625 -89.8125 C 36.019531 -88.96875 36.972656 -87.921875 37.515625 -86.671875 C 38.066406 -85.429688 38.34375 -84.203125 38.34375 -82.984375 C 38.34375 -80.734375 37.707031 -78.441406 36.4375 -76.109375 C 35.164062 -73.773438 33.523438 -71.375 31.515625 -68.90625 C 29.515625 -66.445312 27.390625 -63.878906 25.140625 -61.203125 C 22.890625 -58.535156 20.765625 -55.742188 18.765625 -52.828125 C 16.765625 -49.921875 15.125 -46.867188 13.84375 -43.671875 C 12.570312 -40.484375 11.9375 -37.128906 11.9375 -33.609375 C 11.9375 -31.609375 12.253906 -29.347656 12.890625 -26.828125 C 13.523438 -24.304688 14.460938 -21.738281 15.703125 -19.125 C 16.953125 -16.519531 18.519531 -14.109375 20.40625 -11.890625 C 22.289062 -9.671875 24.492188 -7.894531 27.015625 -6.5625 C 29.535156 -5.226562 32.34375 -4.5625 35.4375 -4.5625 C 37.375 -4.5625 39.253906 -4.878906 41.078125 -5.515625 C 42.898438 -6.148438 44.40625 -7.101562 45.59375 -8.375 C 46.78125 -9.65625 47.375 -11.238281 47.375 -13.125 C 47.375 -15.550781 46.851562 -17.628906 45.8125 -19.359375 C 44.78125 -21.085938 43.503906 -22.679688 41.984375 -24.140625 C 40.472656 -25.597656 38.941406 -27.128906 37.390625 -28.734375 C 35.847656 -30.347656 34.554688 -32.234375 33.515625 -34.390625 C 32.484375 -36.546875 31.96875 -39.203125 31.96875 -42.359375 C 31.96875 -44.660156 32.53125 -46.8125 33.65625 -48.8125 C 34.78125 -50.820312 36.285156 -52.445312 38.171875 -53.6875 C 40.054688 -54.9375 42.148438 -55.5625 44.453125 -55.5625 C 45.910156 -55.5625 47.789062 -55.285156 50.09375 -54.734375 C 52.40625 -54.191406 54.710938 -53.460938 57.015625 -52.546875 C 59.328125 -51.640625 61.269531 -50.578125 62.84375 -49.359375 C 64.425781 -48.148438 65.21875 -46.878906 65.21875 -45.546875 C 65.21875 -43.785156 64.734375 -42.390625 63.765625 -41.359375 C 62.796875 -40.328125 61.550781 -39.488281 60.03125 -38.84375 C 58.507812 -38.207031 56.914062 -37.628906 55.25 -37.109375 C 53.582031 -36.597656 51.988281 -36.050781 50.46875 -35.46875 C 48.945312 -34.894531 47.703125 -34.125 46.734375 -33.15625 C 45.765625 -32.1875 45.28125 -30.878906 45.28125 -29.234375 C 45.28125 -27.898438 45.78125 -26.75 46.78125 -25.78125 C 47.78125 -24.8125 49.050781 -23.914062 50.59375 -23.09375 C 52.144531 -22.269531 53.800781 -21.414062 55.5625 -20.53125 C 57.320312 -19.65625 58.976562 -18.640625 60.53125 -17.484375 C 62.082031 -16.335938 63.359375 -14.957031 64.359375 -13.34375 C 65.359375 -11.738281 65.859375 -9.78125 65.859375 -7.46875 C 65.859375 -5.40625 65.359375 -3.84375 64.359375 -2.78125 C 63.359375 -1.71875 62.035156 -1.003906 60.390625 -0.640625 C 58.753906 -0.273438 56.976562 -0.078125 55.0625 -0.046875 C 53.15625 -0.015625 51.289062 0 49.46875 0 Z M 49.46875 0 "/></g></g></g><g fill="#ffefd6" fill-opacity="1"><g transform="translate(618.070562, 273.408703)"><g><path d="M 2.28125 -45.546875 C 2.28125 -50.035156 2.703125 -54.523438 3.546875 -59.015625 C 4.398438 -63.515625 5.707031 -67.769531 7.46875 -71.78125 C 9.226562 -75.789062 11.414062 -79.34375 14.03125 -82.4375 C 16.644531 -85.53125 19.726562 -87.972656 23.28125 -89.765625 C 26.832031 -91.554688 30.851562 -92.453125 35.34375 -92.453125 C 37.707031 -92.453125 39.96875 -92.148438 42.125 -91.546875 C 44.28125 -90.941406 46.5 -90.332031 48.78125 -89.71875 C 51.0625 -89.113281 53.566406 -88.8125 56.296875 -88.8125 C 58.421875 -88.8125 60.101562 -89.113281 61.34375 -89.71875 C 62.59375 -90.332031 63.65625 -90.941406 64.53125 -91.546875 C 65.414062 -92.148438 66.316406 -92.453125 67.234375 -92.453125 C 68.441406 -92.453125 69.132812 -91.769531 69.3125 -90.40625 C 69.5 -89.039062 69.363281 -87.335938 68.90625 -85.296875 C 68.457031 -83.265625 67.804688 -81.25 66.953125 -79.25 C 66.347656 -77.851562 65.46875 -76.195312 64.3125 -74.28125 C 63.15625 -72.375 61.726562 -70.722656 60.03125 -69.328125 C 58.332031 -67.929688 56.390625 -67.234375 54.203125 -67.234375 C 50.984375 -67.234375 48.113281 -67.59375 45.59375 -68.3125 C 43.070312 -69.039062 40.765625 -69.953125 38.671875 -71.046875 C 36.578125 -72.140625 34.570312 -73.234375 32.65625 -74.328125 C 30.738281 -75.421875 28.78125 -76.332031 26.78125 -77.0625 C 24.78125 -77.789062 22.59375 -78.15625 20.21875 -78.15625 C 18.707031 -78.15625 17.460938 -77.742188 16.484375 -76.921875 C 15.515625 -76.109375 14.753906 -75.09375 14.203125 -73.875 C 13.660156 -72.664062 13.28125 -71.453125 13.0625 -70.234375 C 12.851562 -69.015625 12.75 -67.984375 12.75 -67.140625 C 12.75 -66.710938 12.734375 -65.9375 12.703125 -64.8125 C 12.671875 -63.6875 12.671875 -62.5 12.703125 -61.25 C 12.734375 -60.007812 12.882812 -58.945312 13.15625 -58.0625 C 13.4375 -57.1875 13.878906 -56.75 14.484375 -56.75 C 15.390625 -56.75 16.3125 -57.144531 17.25 -57.9375 C 18.195312 -58.726562 19.457031 -59.515625 21.03125 -60.296875 C 22.613281 -61.085938 24.742188 -61.484375 27.421875 -61.484375 C 29.671875 -61.484375 31.859375 -61.101562 33.984375 -60.34375 C 36.109375 -59.59375 38.171875 -58.726562 40.171875 -57.75 C 42.171875 -56.78125 44.128906 -55.914062 46.046875 -55.15625 C 47.960938 -54.394531 49.800781 -54.015625 51.5625 -54.015625 C 52.957031 -54.015625 54.046875 -54.316406 54.828125 -54.921875 C 55.617188 -55.535156 56.257812 -56.128906 56.75 -56.703125 C 57.238281 -57.285156 57.722656 -57.578125 58.203125 -57.578125 C 58.929688 -57.578125 59.492188 -57.070312 59.890625 -56.0625 C 60.285156 -55.0625 60.484375 -53.832031 60.484375 -52.375 C 60.484375 -50.863281 60.191406 -49.222656 59.609375 -47.453125 C 59.035156 -45.691406 58.125 -44.019531 56.875 -42.4375 C 55.632812 -40.863281 54.023438 -39.578125 52.046875 -38.578125 C 50.078125 -37.578125 47.695312 -37.078125 44.90625 -37.078125 C 42.238281 -37.078125 39.8125 -37.640625 37.625 -38.765625 C 35.4375 -39.890625 33.445312 -41.269531 31.65625 -42.90625 C 29.863281 -44.539062 28.191406 -46.160156 26.640625 -47.765625 C 25.097656 -49.378906 23.597656 -50.75 22.140625 -51.875 C 20.679688 -53 19.191406 -53.5625 17.671875 -53.5625 C 16.703125 -53.5625 16.0625 -53.253906 15.75 -52.640625 C 15.445312 -52.035156 15.328125 -51.335938 15.390625 -50.546875 C 15.453125 -49.765625 15.578125 -49.070312 15.765625 -48.46875 C 17.578125 -42.875 20.078125 -37.9375 23.265625 -33.65625 C 26.460938 -29.375 30.0625 -26.019531 34.0625 -23.59375 C 38.070312 -21.164062 42.171875 -19.953125 46.359375 -19.953125 C 49.578125 -19.953125 52.21875 -20.40625 54.28125 -21.3125 C 56.351562 -22.226562 58.039062 -23.351562 59.34375 -24.6875 C 60.65625 -26.019531 61.71875 -27.351562 62.53125 -28.6875 C 63.351562 -30.03125 64.113281 -31.15625 64.8125 -32.0625 C 65.507812 -32.976562 66.316406 -33.4375 67.234375 -33.4375 C 67.773438 -33.4375 68.285156 -33.144531 68.765625 -32.5625 C 69.253906 -31.988281 69.5 -30.640625 69.5 -28.515625 C 69.5 -25.410156 68.832031 -22.128906 67.5 -18.671875 C 66.164062 -15.210938 64.207031 -11.960938 61.625 -8.921875 C 59.039062 -5.890625 55.863281 -3.414062 52.09375 -1.5 C 48.332031 0.40625 44.023438 1.359375 39.171875 1.359375 C 34.066406 1.359375 29.28125 0.390625 24.8125 -1.546875 C 20.351562 -3.492188 16.4375 -6.410156 13.0625 -10.296875 C 9.695312 -14.179688 7.054688 -19.066406 5.140625 -24.953125 C 3.234375 -30.847656 2.28125 -37.710938 2.28125 -45.546875 Z M 2.28125 -45.546875 "/></g></g></g><g fill="#ffefd6" fill-opacity="1"><g transform="translate(685.842972, 273.408703)"><g><path d="M 0 -91.09375 L 24.5 -91.09375 C 27.414062 -91.09375 29.738281 -90.285156 31.46875 -88.671875 C 33.195312 -87.066406 34.441406 -85.0625 35.203125 -82.65625 C 35.960938 -80.257812 36.34375 -77.847656 36.34375 -75.421875 C 36.34375 -72.503906 35.914062 -69.90625 35.0625 -67.625 C 34.21875 -65.351562 33.234375 -63.203125 32.109375 -61.171875 C 30.984375 -59.140625 29.992188 -57 29.140625 -54.75 C 28.296875 -52.5 27.875 -49.914062 27.875 -47 C 27.875 -44.757812 28.785156 -42.664062 30.609375 -40.71875 C 32.429688 -38.769531 35.222656 -37.828125 38.984375 -37.890625 C 41.960938 -37.890625 44.363281 -38.390625 46.1875 -39.390625 C 48.007812 -40.398438 49.40625 -41.660156 50.375 -43.171875 C 51.34375 -44.691406 51.992188 -46.285156 52.328125 -47.953125 C 52.660156 -49.628906 52.828125 -51.195312 52.828125 -52.65625 C 52.828125 -55.019531 52.375 -57.398438 51.46875 -59.796875 C 50.5625 -62.203125 49.4375 -64.585938 48.09375 -66.953125 C 46.757812 -69.316406 45.421875 -71.625 44.078125 -73.875 C 42.742188 -76.125 41.625 -78.265625 40.71875 -80.296875 C 39.8125 -82.328125 39.359375 -84.195312 39.359375 -85.90625 C 39.359375 -87.300781 39.84375 -88.515625 40.8125 -89.546875 C 41.78125 -90.578125 42.992188 -91.09375 44.453125 -91.09375 L 65.671875 -91.09375 C 67.679688 -91.09375 69.203125 -90.363281 70.234375 -88.90625 C 71.265625 -87.445312 71.960938 -85.6875 72.328125 -83.625 C 72.691406 -81.5625 72.875 -79.585938 72.875 -77.703125 C 72.875 -73.148438 72.203125 -68.929688 70.859375 -65.046875 C 69.523438 -61.160156 67.796875 -57.5625 65.671875 -54.25 C 63.546875 -50.9375 61.300781 -47.851562 58.9375 -45 C 56.570312 -42.144531 54.328125 -39.472656 52.203125 -36.984375 C 50.078125 -34.492188 48.34375 -32.15625 47 -29.96875 C 45.664062 -27.78125 45 -25.6875 45 -23.6875 C 45 -20.28125 45.453125 -17.46875 46.359375 -15.25 C 47.273438 -13.039062 48.304688 -11.191406 49.453125 -9.703125 C 50.609375 -8.210938 51.640625 -6.921875 52.546875 -5.828125 C 53.460938 -4.734375 53.921875 -3.640625 53.921875 -2.546875 C 53.921875 -1.816406 53.570312 -1.207031 52.875 -0.71875 C 52.175781 -0.238281 50.945312 0 49.1875 0 L 27.0625 0 C 25.78125 0 24.710938 -0.453125 23.859375 -1.359375 C 23.015625 -2.273438 22.394531 -3.414062 22 -4.78125 C 21.601562 -6.144531 21.40625 -7.46875 21.40625 -8.75 C 21.40625 -11.113281 22.101562 -13.25 23.5 -15.15625 C 24.894531 -17.070312 26.625 -18.820312 28.6875 -20.40625 C 30.757812 -21.988281 32.828125 -23.445312 34.890625 -24.78125 C 36.953125 -26.113281 38.679688 -27.359375 40.078125 -28.515625 C 41.472656 -29.671875 42.171875 -30.796875 42.171875 -31.890625 C 42.171875 -32.796875 41.78125 -33.25 41 -33.25 C 40.207031 -33.25 39.445312 -33.066406 38.71875 -32.703125 C 37.988281 -32.335938 37.015625 -31.957031 35.796875 -31.5625 C 34.585938 -31.164062 32.890625 -30.96875 30.703125 -30.96875 C 27.234375 -30.96875 24.390625 -31.570312 22.171875 -32.78125 C 19.960938 -34 18.203125 -35.625 16.890625 -37.65625 C 15.585938 -39.695312 14.617188 -41.945312 13.984375 -44.40625 C 13.347656 -46.863281 12.90625 -49.304688 12.65625 -51.734375 C 12.351562 -54.773438 12.003906 -58.128906 11.609375 -61.796875 C 11.210938 -65.472656 10.601562 -69.164062 9.78125 -72.875 C 8.96875 -76.582031 7.785156 -80.03125 6.234375 -83.21875 C 4.691406 -86.40625 2.613281 -89.03125 0 -91.09375 Z M 0 -91.09375 "/></g></g></g><g fill="#ffefd6" fill-opacity="1"><g transform="translate(205.475839, 375.358942)"><g><path d="M 22.40625 0 L 0.90625 0 C 2.125 -1.21875 2.957031 -2.660156 3.40625 -4.328125 C 3.863281 -5.992188 4.09375 -8.132812 4.09375 -10.75 L 4.09375 -80.34375 C 4.09375 -82.957031 3.863281 -85.097656 3.40625 -86.765625 C 2.957031 -88.429688 2.125 -89.875 0.90625 -91.09375 L 25.046875 -91.09375 C 26.203125 -91.09375 27.296875 -90.378906 28.328125 -88.953125 C 29.359375 -87.523438 29.875 -86.019531 29.875 -84.4375 C 29.875 -81.707031 29.359375 -79.429688 28.328125 -77.609375 C 27.296875 -75.785156 25.972656 -74.28125 24.359375 -73.09375 C 22.753906 -71.914062 21.054688 -70.914062 19.265625 -70.09375 C 17.472656 -69.269531 15.769531 -68.476562 14.15625 -67.71875 C 12.550781 -66.96875 11.234375 -66.101562 10.203125 -65.125 C 9.171875 -64.15625 8.65625 -62.910156 8.65625 -61.390625 C 8.65625 -60.972656 8.820312 -60.566406 9.15625 -60.171875 C 9.488281 -59.773438 9.898438 -59.578125 10.390625 -59.578125 C 11.296875 -59.578125 12.328125 -59.894531 13.484375 -60.53125 C 14.640625 -61.164062 16.113281 -61.894531 17.90625 -62.71875 C 19.695312 -63.539062 22.03125 -64.269531 24.90625 -64.90625 C 27.789062 -65.539062 31.421875 -65.859375 35.796875 -65.859375 C 40.171875 -65.859375 43.816406 -65.539062 46.734375 -64.90625 C 49.648438 -64.269531 52.03125 -63.539062 53.875 -62.71875 C 55.726562 -61.894531 57.257812 -61.164062 58.46875 -60.53125 C 59.6875 -59.894531 60.753906 -59.578125 61.671875 -59.578125 C 62.160156 -59.578125 62.570312 -59.773438 62.90625 -60.171875 C 63.238281 -60.566406 63.40625 -60.972656 63.40625 -61.390625 C 63.40625 -62.910156 62.882812 -64.15625 61.84375 -65.125 C 60.8125 -66.101562 59.488281 -66.96875 57.875 -67.71875 C 56.269531 -68.476562 54.570312 -69.269531 52.78125 -70.09375 C 51 -70.914062 49.300781 -71.914062 47.6875 -73.09375 C 46.082031 -74.28125 44.757812 -75.785156 43.71875 -77.609375 C 42.6875 -79.429688 42.171875 -81.707031 42.171875 -84.4375 C 42.171875 -86.019531 42.6875 -87.523438 43.71875 -88.953125 C 44.757812 -90.378906 45.851562 -91.09375 47 -91.09375 L 71.140625 -91.09375 C 69.929688 -89.875 69.097656 -88.429688 68.640625 -86.765625 C 68.179688 -85.097656 67.953125 -82.957031 67.953125 -80.34375 L 67.953125 -10.75 C 67.953125 -8.132812 68.179688 -5.992188 68.640625 -4.328125 C 69.097656 -2.660156 69.929688 -1.21875 71.140625 0 L 49.640625 0 C 47.210938 0 45.300781 -0.421875 43.90625 -1.265625 C 42.507812 -2.117188 41.535156 -3.164062 40.984375 -4.40625 C 40.441406 -5.65625 40.171875 -6.890625 40.171875 -8.109375 C 40.171875 -11.023438 40.734375 -13.816406 41.859375 -16.484375 C 42.984375 -19.160156 44.425781 -21.710938 46.1875 -24.140625 C 47.945312 -26.566406 49.8125 -28.875 51.78125 -31.0625 C 53.757812 -33.25 55.628906 -35.328125 57.390625 -37.296875 C 59.148438 -39.273438 60.59375 -41.144531 61.71875 -42.90625 C 62.84375 -44.664062 63.40625 -46.335938 63.40625 -47.921875 C 63.40625 -48.953125 62.945312 -49.46875 62.03125 -49.46875 C 61.238281 -49.46875 60.328125 -49.085938 59.296875 -48.328125 C 58.265625 -47.566406 56.820312 -46.695312 54.96875 -45.71875 C 53.125 -44.75 50.632812 -43.882812 47.5 -43.125 C 44.375 -42.375 40.351562 -42 35.4375 -42 C 30.519531 -42 26.554688 -42.375 23.546875 -43.125 C 20.535156 -43.882812 18.179688 -44.75 16.484375 -45.71875 C 14.785156 -46.695312 13.476562 -47.566406 12.5625 -48.328125 C 11.65625 -49.085938 10.804688 -49.46875 10.015625 -49.46875 C 9.109375 -49.46875 8.65625 -48.953125 8.65625 -47.921875 C 8.65625 -46.335938 9.21875 -44.664062 10.34375 -42.90625 C 11.46875 -41.144531 12.910156 -39.273438 14.671875 -37.296875 C 16.429688 -35.328125 18.296875 -33.25 20.265625 -31.0625 C 22.242188 -28.875 24.113281 -26.566406 25.875 -24.140625 C 27.632812 -21.710938 29.078125 -19.160156 30.203125 -16.484375 C 31.328125 -13.816406 31.890625 -11.023438 31.890625 -8.109375 C 31.890625 -6.890625 31.613281 -5.65625 31.0625 -4.40625 C 30.519531 -3.164062 29.5625 -2.117188 28.1875 -1.265625 C 26.820312 -0.421875 24.894531 0 22.40625 0 Z M 22.40625 0 "/></g></g></g><g fill="#ffefd6" fill-opacity="1"><g transform="translate(273.976997, 375.358942)"><g><path d="M 2.28125 -45.546875 C 2.28125 -52.585938 3.128906 -58.976562 4.828125 -64.71875 C 6.523438 -70.457031 8.953125 -75.40625 12.109375 -79.5625 C 15.273438 -83.726562 19.054688 -86.914062 23.453125 -89.125 C 27.859375 -91.34375 32.765625 -92.453125 38.171875 -92.453125 C 43.515625 -92.453125 48.382812 -91.34375 52.78125 -89.125 C 57.1875 -86.914062 60.96875 -83.726562 64.125 -79.5625 C 67.28125 -75.40625 69.707031 -70.457031 71.40625 -64.71875 C 73.113281 -58.976562 73.96875 -52.585938 73.96875 -45.546875 C 73.96875 -38.503906 73.113281 -32.113281 71.40625 -26.375 C 69.707031 -20.632812 67.28125 -15.679688 64.125 -11.515625 C 60.96875 -7.359375 57.1875 -4.171875 52.78125 -1.953125 C 48.382812 0.253906 43.515625 1.359375 38.171875 1.359375 C 32.765625 1.359375 27.859375 0.253906 23.453125 -1.953125 C 19.054688 -4.171875 15.273438 -7.359375 12.109375 -11.515625 C 8.953125 -15.679688 6.523438 -20.632812 4.828125 -26.375 C 3.128906 -32.113281 2.28125 -38.503906 2.28125 -45.546875 Z M 30.796875 -86.265625 C 28.660156 -86.265625 26.984375 -85.125 25.765625 -82.84375 C 24.554688 -80.570312 23.738281 -77.492188 23.3125 -73.609375 C 22.894531 -69.722656 22.820312 -65.363281 23.09375 -60.53125 C 23.363281 -55.707031 23.921875 -50.710938 24.765625 -45.546875 C 25.617188 -40.378906 26.695312 -35.378906 28 -30.546875 C 29.3125 -25.722656 30.800781 -21.367188 32.46875 -17.484375 C 34.144531 -13.597656 35.9375 -10.515625 37.84375 -8.234375 C 39.757812 -5.960938 41.71875 -4.828125 43.71875 -4.828125 C 46.269531 -4.828125 48.304688 -5.960938 49.828125 -8.234375 C 51.347656 -10.515625 52.410156 -13.597656 53.015625 -17.484375 C 53.617188 -21.367188 53.828125 -25.722656 53.640625 -30.546875 C 53.460938 -35.378906 52.945312 -40.378906 52.09375 -45.546875 C 51.25 -50.710938 50.113281 -55.707031 48.6875 -60.53125 C 47.257812 -65.363281 45.617188 -69.722656 43.765625 -73.609375 C 41.921875 -77.492188 39.90625 -80.570312 37.71875 -82.84375 C 35.53125 -85.125 33.222656 -86.265625 30.796875 -86.265625 Z M 30.796875 -86.265625 "/></g></g></g><g fill="#ffefd6" fill-opacity="1"><g transform="translate(346.668389, 375.358942)"><g><path d="M 49.46875 0 L 0.90625 0 C 2.125 -1.21875 2.957031 -2.660156 3.40625 -4.328125 C 3.863281 -5.992188 4.09375 -8.132812 4.09375 -10.75 L 4.09375 -80.34375 C 4.09375 -82.957031 3.863281 -85.097656 3.40625 -86.765625 C 2.957031 -88.429688 2.125 -89.875 0.90625 -91.09375 L 28.875 -91.09375 C 31.363281 -91.09375 33.289062 -90.664062 34.65625 -89.8125 C 36.019531 -88.96875 36.972656 -87.921875 37.515625 -86.671875 C 38.066406 -85.429688 38.34375 -84.203125 38.34375 -82.984375 C 38.34375 -80.734375 37.707031 -78.441406 36.4375 -76.109375 C 35.164062 -73.773438 33.523438 -71.375 31.515625 -68.90625 C 29.515625 -66.445312 27.390625 -63.878906 25.140625 -61.203125 C 22.890625 -58.535156 20.765625 -55.742188 18.765625 -52.828125 C 16.765625 -49.921875 15.125 -46.867188 13.84375 -43.671875 C 12.570312 -40.484375 11.9375 -37.128906 11.9375 -33.609375 C 11.9375 -31.609375 12.253906 -29.347656 12.890625 -26.828125 C 13.523438 -24.304688 14.460938 -21.738281 15.703125 -19.125 C 16.953125 -16.519531 18.519531 -14.109375 20.40625 -11.890625 C 22.289062 -9.671875 24.492188 -7.894531 27.015625 -6.5625 C 29.535156 -5.226562 32.34375 -4.5625 35.4375 -4.5625 C 37.375 -4.5625 39.253906 -4.878906 41.078125 -5.515625 C 42.898438 -6.148438 44.40625 -7.101562 45.59375 -8.375 C 46.78125 -9.65625 47.375 -11.238281 47.375 -13.125 C 47.375 -15.550781 46.851562 -17.628906 45.8125 -19.359375 C 44.78125 -21.085938 43.503906 -22.679688 41.984375 -24.140625 C 40.472656 -25.597656 38.941406 -27.128906 37.390625 -28.734375 C 35.847656 -30.347656 34.554688 -32.234375 33.515625 -34.390625 C 32.484375 -36.546875 31.96875 -39.203125 31.96875 -42.359375 C 31.96875 -44.660156 32.53125 -46.8125 33.65625 -48.8125 C 34.78125 -50.820312 36.285156 -52.445312 38.171875 -53.6875 C 40.054688 -54.9375 42.148438 -55.5625 44.453125 -55.5625 C 45.910156 -55.5625 47.789062 -55.285156 50.09375 -54.734375 C 52.40625 -54.191406 54.710938 -53.460938 57.015625 -52.546875 C 59.328125 -51.640625 61.269531 -50.578125 62.84375 -49.359375 C 64.425781 -48.148438 65.21875 -46.878906 65.21875 -45.546875 C 65.21875 -43.785156 64.734375 -42.390625 63.765625 -41.359375 C 62.796875 -40.328125 61.550781 -39.488281 60.03125 -38.84375 C 58.507812 -38.207031 56.914062 -37.628906 55.25 -37.109375 C 53.582031 -36.597656 51.988281 -36.050781 50.46875 -35.46875 C 48.945312 -34.894531 47.703125 -34.125 46.734375 -33.15625 C 45.765625 -32.1875 45.28125 -30.878906 45.28125 -29.234375 C 45.28125 -27.898438 45.78125 -26.75 46.78125 -25.78125 C 47.78125 -24.8125 49.050781 -23.914062 50.59375 -23.09375 C 52.144531 -22.269531 53.800781 -21.414062 55.5625 -20.53125 C 57.320312 -19.65625 58.976562 -18.640625 60.53125 -17.484375 C 62.082031 -16.335938 63.359375 -14.957031 64.359375 -13.34375 C 65.359375 -11.738281 65.859375 -9.78125 65.859375 -7.46875 C 65.859375 -5.40625 65.359375 -3.84375 64.359375 -2.78125 C 63.359375 -1.71875 62.035156 -1.003906 60.390625 -0.640625 C 58.753906 -0.273438 56.976562 -0.078125 55.0625 -0.046875 C 53.15625 -0.015625 51.289062 0 49.46875 0 Z M 49.46875 0 "/></g></g></g><g fill="#ffefd6" fill-opacity="1"><g transform="translate(409.886202, 375.358942)"><g><path d="M 49.46875 0 L 0.90625 0 C 2.125 -1.21875 2.957031 -2.660156 3.40625 -4.328125 C 3.863281 -5.992188 4.09375 -8.132812 4.09375 -10.75 L 4.09375 -80.34375 C 4.09375 -82.957031 3.863281 -85.097656 3.40625 -86.765625 C 2.957031 -88.429688 2.125 -89.875 0.90625 -91.09375 L 28.875 -91.09375 C 31.363281 -91.09375 33.289062 -90.664062 34.65625 -89.8125 C 36.019531 -88.96875 36.972656 -87.921875 37.515625 -86.671875 C 38.066406 -85.429688 38.34375 -84.203125 38.34375 -82.984375 C 38.34375 -80.734375 37.707031 -78.441406 36.4375 -76.109375 C 35.164062 -73.773438 33.523438 -71.375 31.515625 -68.90625 C 29.515625 -66.445312 27.390625 -63.878906 25.140625 -61.203125 C 22.890625 -58.535156 20.765625 -55.742188 18.765625 -52.828125 C 16.765625 -49.921875 15.125 -46.867188 13.84375 -43.671875 C 12.570312 -40.484375 11.9375 -37.128906 11.9375 -33.609375 C 11.9375 -31.609375 12.253906 -29.347656 12.890625 -26.828125 C 13.523438 -24.304688 14.460938 -21.738281 15.703125 -19.125 C 16.953125 -16.519531 18.519531 -14.109375 20.40625 -11.890625 C 22.289062 -9.671875 24.492188 -7.894531 27.015625 -6.5625 C 29.535156 -5.226562 32.34375 -4.5625 35.4375 -4.5625 C 37.375 -4.5625 39.253906 -4.878906 41.078125 -5.515625 C 42.898438 -6.148438 44.40625 -7.101562 45.59375 -8.375 C 46.78125 -9.65625 47.375 -11.238281 47.375 -13.125 C 47.375 -15.550781 46.851562 -17.628906 45.8125 -19.359375 C 44.78125 -21.085938 43.503906 -22.679688 41.984375 -24.140625 C 40.472656 -25.597656 38.941406 -27.128906 37.390625 -28.734375 C 35.847656 -30.347656 34.554688 -32.234375 33.515625 -34.390625 C 32.484375 -36.546875 31.96875 -39.203125 31.96875 -42.359375 C 31.96875 -44.660156 32.53125 -46.8125 33.65625 -48.8125 C 34.78125 -50.820312 36.285156 -52.445312 38.171875 -53.6875 C 40.054688 -54.9375 42.148438 -55.5625 44.453125 -55.5625 C 45.910156 -55.5625 47.789062 -55.285156 50.09375 -54.734375 C 52.40625 -54.191406 54.710938 -53.460938 57.015625 -52.546875 C 59.328125 -51.640625 61.269531 -50.578125 62.84375 -49.359375 C 64.425781 -48.148438 65.21875 -46.878906 65.21875 -45.546875 C 65.21875 -43.785156 64.734375 -42.390625 63.765625 -41.359375 C 62.796875 -40.328125 61.550781 -39.488281 60.03125 -38.84375 C 58.507812 -38.207031 56.914062 -37.628906 55.25 -37.109375 C 53.582031 -36.597656 51.988281 -36.050781 50.46875 -35.46875 C 48.945312 -34.894531 47.703125 -34.125 46.734375 -33.15625 C 45.765625 -32.1875 45.28125 -30.878906 45.28125 -29.234375 C 45.28125 -27.898438 45.78125 -26.75 46.78125 -25.78125 C 47.78125 -24.8125 49.050781 -23.914062 50.59375 -23.09375 C 52.144531 -22.269531 53.800781 -21.414062 55.5625 -20.53125 C 57.320312 -19.65625 58.976562 -18.640625 60.53125 -17.484375 C 62.082031 -16.335938 63.359375 -14.957031 64.359375 -13.34375 C 65.359375 -11.738281 65.859375 -9.78125 65.859375 -7.46875 C 65.859375 -5.40625 65.359375 -3.84375 64.359375 -2.78125 C 63.359375 -1.71875 62.035156 -1.003906 60.390625 -0.640625 C 58.753906 -0.273438 56.976562 -0.078125 55.0625 -0.046875 C 53.15625 -0.015625 51.289062 0 49.46875 0 Z M 49.46875 0 "/></g></g></g><g fill="#ffefd6" fill-opacity="1"><g transform="translate(473.104004, 375.358942)"><g><path d="M 2.28125 -45.546875 C 2.28125 -52.585938 3.128906 -58.976562 4.828125 -64.71875 C 6.523438 -70.457031 8.953125 -75.40625 12.109375 -79.5625 C 15.273438 -83.726562 19.054688 -86.914062 23.453125 -89.125 C 27.859375 -91.34375 32.765625 -92.453125 38.171875 -92.453125 C 43.515625 -92.453125 48.382812 -91.34375 52.78125 -89.125 C 57.1875 -86.914062 60.96875 -83.726562 64.125 -79.5625 C 67.28125 -75.40625 69.707031 -70.457031 71.40625 -64.71875 C 73.113281 -58.976562 73.96875 -52.585938 73.96875 -45.546875 C 73.96875 -38.503906 73.113281 -32.113281 71.40625 -26.375 C 69.707031 -20.632812 67.28125 -15.679688 64.125 -11.515625 C 60.96875 -7.359375 57.1875 -4.171875 52.78125 -1.953125 C 48.382812 0.253906 43.515625 1.359375 38.171875 1.359375 C 32.765625 1.359375 27.859375 0.253906 23.453125 -1.953125 C 19.054688 -4.171875 15.273438 -7.359375 12.109375 -11.515625 C 8.953125 -15.679688 6.523438 -20.632812 4.828125 -26.375 C 3.128906 -32.113281 2.28125 -38.503906 2.28125 -45.546875 Z M 30.796875 -86.265625 C 28.660156 -86.265625 26.984375 -85.125 25.765625 -82.84375 C 24.554688 -80.570312 23.738281 -77.492188 23.3125 -73.609375 C 22.894531 -69.722656 22.820312 -65.363281 23.09375 -60.53125 C 23.363281 -55.707031 23.921875 -50.710938 24.765625 -45.546875 C 25.617188 -40.378906 26.695312 -35.378906 28 -30.546875 C 29.3125 -25.722656 30.800781 -21.367188 32.46875 -17.484375 C 34.144531 -13.597656 35.9375 -10.515625 37.84375 -8.234375 C 39.757812 -5.960938 41.71875 -4.828125 43.71875 -4.828125 C 46.269531 -4.828125 48.304688 -5.960938 49.828125 -8.234375 C 51.347656 -10.515625 52.410156 -13.597656 53.015625 -17.484375 C 53.617188 -21.367188 53.828125 -25.722656 53.640625 -30.546875 C 53.460938 -35.378906 52.945312 -40.378906 52.09375 -45.546875 C 51.25 -50.710938 50.113281 -55.707031 48.6875 -60.53125 C 47.257812 -65.363281 45.617188 -69.722656 43.765625 -73.609375 C 41.921875 -77.492188 39.90625 -80.570312 37.71875 -82.84375 C 35.53125 -85.125 33.222656 -86.265625 30.796875 -86.265625 Z M 30.796875 -86.265625 "/></g></g></g><g fill="#ffefd6" fill-opacity="1"><g transform="translate(545.795407, 375.358942)"><g><path d="M 8.015625 -73.421875 C 6.859375 -77.179688 5.703125 -80.6875 4.546875 -83.9375 C 3.398438 -87.1875 1.882812 -89.570312 0 -91.09375 L 37.625 -91.09375 C 36.59375 -89.9375 35.785156 -88.460938 35.203125 -86.671875 C 34.628906 -84.878906 34.34375 -83.046875 34.34375 -81.171875 C 34.34375 -80.015625 34.507812 -78.007812 34.84375 -75.15625 C 35.175781 -72.300781 35.660156 -68.929688 36.296875 -65.046875 C 36.929688 -61.160156 37.675781 -57.070312 38.53125 -52.78125 C 39.382812 -48.5 40.3125 -44.296875 41.3125 -40.171875 C 42.3125 -36.046875 43.390625 -32.296875 44.546875 -28.921875 C 45.703125 -25.546875 46.882812 -22.859375 48.09375 -20.859375 C 49.3125 -18.859375 50.523438 -17.859375 51.734375 -17.859375 C 53.316406 -17.859375 54.65625 -18.675781 55.75 -20.3125 C 56.84375 -21.957031 57.707031 -24.160156 58.34375 -26.921875 C 58.976562 -29.679688 59.445312 -32.726562 59.75 -36.0625 C 60.0625 -39.40625 60.21875 -42.773438 60.21875 -46.171875 C 60.21875 -49.578125 60.109375 -52.769531 59.890625 -55.75 C 59.679688 -58.726562 59.394531 -61.21875 59.03125 -63.21875 C 58.601562 -64.851562 58.144531 -66.519531 57.65625 -68.21875 C 57.175781 -69.925781 56.660156 -71.660156 56.109375 -73.421875 C 54.960938 -77.179688 53.8125 -80.6875 52.65625 -83.9375 C 51.5 -87.1875 49.976562 -89.570312 48.09375 -91.09375 L 85.71875 -91.09375 C 84.6875 -89.9375 83.878906 -88.460938 83.296875 -86.671875 C 82.722656 -84.878906 82.4375 -83.046875 82.4375 -81.171875 C 82.4375 -80.015625 82.601562 -78.007812 82.9375 -75.15625 C 83.269531 -72.300781 83.753906 -68.929688 84.390625 -65.046875 C 85.035156 -61.160156 85.78125 -57.070312 86.625 -52.78125 C 87.476562 -48.5 88.40625 -44.296875 89.40625 -40.171875 C 90.40625 -36.046875 91.484375 -32.296875 92.640625 -28.921875 C 93.796875 -25.546875 94.976562 -22.859375 96.1875 -20.859375 C 97.40625 -18.859375 98.625 -17.859375 99.84375 -17.859375 C 101.414062 -17.859375 102.65625 -18.523438 103.5625 -19.859375 C 104.476562 -21.191406 105.132812 -22.9375 105.53125 -25.09375 C 105.925781 -27.25 106.125 -29.539062 106.125 -31.96875 C 106.125 -35.613281 105.664062 -39.164062 104.75 -42.625 C 103.84375 -46.09375 102.722656 -49.460938 101.390625 -52.734375 C 100.054688 -56.015625 98.703125 -59.25 97.328125 -62.4375 C 95.960938 -65.632812 94.820312 -68.8125 93.90625 -71.96875 C 93 -75.125 92.546875 -78.28125 92.546875 -81.4375 C 92.546875 -82.894531 92.726562 -84.367188 93.09375 -85.859375 C 93.457031 -87.347656 94.125 -88.59375 95.09375 -89.59375 C 96.070312 -90.59375 97.441406 -91.09375 99.203125 -91.09375 L 129.984375 -91.09375 C 128.109375 -89.570312 126.59375 -87.1875 125.4375 -83.9375 C 124.28125 -80.6875 123.125 -77.179688 121.96875 -73.421875 C 120.144531 -67.222656 118.550781 -61.570312 117.1875 -56.46875 C 115.820312 -51.375 114.609375 -46.410156 113.546875 -41.578125 C 112.484375 -36.753906 111.453125 -31.726562 110.453125 -26.5 C 109.453125 -21.28125 108.375 -15.515625 107.21875 -9.203125 C 106.914062 -7.441406 106.929688 -5.707031 107.265625 -4 C 107.597656 -2.300781 108.25 -0.96875 109.21875 0 L 68.859375 0 C 69.898438 -0.96875 70.570312 -2.300781 70.875 -4 C 71.175781 -5.707031 71.175781 -7.441406 70.875 -9.203125 C 69.84375 -15.085938 68.867188 -20.457031 67.953125 -25.3125 C 67.046875 -30.175781 66.078125 -34.882812 65.046875 -39.4375 C 64.015625 -34.882812 63.023438 -30.175781 62.078125 -25.3125 C 61.140625 -20.457031 60.15625 -15.085938 59.125 -9.203125 C 58.820312 -7.441406 58.835938 -5.707031 59.171875 -4 C 59.503906 -2.300781 60.15625 -0.96875 61.125 0 L 20.765625 0 C 21.796875 -0.96875 22.460938 -2.300781 22.765625 -4 C 23.078125 -5.707031 23.082031 -7.441406 22.78125 -9.203125 C 21.625 -15.515625 20.539062 -21.28125 19.53125 -26.5 C 18.53125 -31.726562 17.484375 -36.753906 16.390625 -41.578125 C 15.296875 -46.410156 14.082031 -51.375 12.75 -56.46875 C 11.414062 -61.570312 9.835938 -67.222656 8.015625 -73.421875 Z M 8.015625 -73.421875 "/></g></g></g><g fill="#ffefd6" fill-opacity="1"><g transform="translate(672.231193, 375.358942)"><g><path d="M 0 0 C 1.882812 -1.582031 3.398438 -3.984375 4.546875 -7.203125 C 5.703125 -10.421875 6.859375 -13.910156 8.015625 -17.671875 C 9.835938 -23.867188 11.429688 -29.515625 12.796875 -34.609375 C 14.160156 -39.710938 15.375 -44.675781 16.4375 -49.5 C 17.5 -54.332031 18.53125 -59.359375 19.53125 -64.578125 C 20.539062 -69.804688 21.625 -75.578125 22.78125 -81.890625 C 23.082031 -83.648438 23.078125 -85.378906 22.765625 -87.078125 C 22.460938 -88.785156 21.796875 -90.125 20.765625 -91.09375 L 61.125 -91.09375 C 60.15625 -90.125 59.503906 -88.785156 59.171875 -87.078125 C 58.835938 -85.378906 58.820312 -83.648438 59.125 -81.890625 C 60.269531 -75.578125 61.34375 -69.804688 62.34375 -64.578125 C 63.351562 -59.359375 64.390625 -54.332031 65.453125 -49.5 C 66.515625 -44.675781 67.726562 -39.710938 69.09375 -34.609375 C 70.457031 -29.515625 72.050781 -23.867188 73.875 -17.671875 C 75.03125 -13.910156 76.179688 -10.421875 77.328125 -7.203125 C 78.484375 -3.984375 80.003906 -1.582031 81.890625 0 L 44.265625 0 C 45.296875 -1.21875 46.097656 -2.707031 46.671875 -4.46875 C 47.253906 -6.226562 47.546875 -8.046875 47.546875 -9.921875 C 47.546875 -11.441406 47.269531 -14.265625 46.71875 -18.390625 C 46.175781 -22.523438 45.453125 -27.175781 44.546875 -32.34375 L 31.15625 -32.34375 C 32.726562 -28.507812 34.164062 -24.707031 35.46875 -20.9375 C 36.78125 -17.175781 37.4375 -13.414062 37.4375 -9.65625 C 37.4375 -8.257812 37.253906 -6.800781 36.890625 -5.28125 C 36.523438 -3.757812 35.867188 -2.5 34.921875 -1.5 C 33.984375 -0.5 32.609375 0 30.796875 0 Z M 29.421875 -36.4375 L 43.71875 -36.4375 C 42.875 -40.8125 41.9375 -45.164062 40.90625 -49.5 C 39.875 -53.84375 38.765625 -57.804688 37.578125 -61.390625 C 36.390625 -64.972656 35.171875 -67.84375 33.921875 -70 C 32.679688 -72.15625 31.425781 -73.234375 30.15625 -73.234375 C 28.570312 -73.234375 27.320312 -72.566406 26.40625 -71.234375 C 25.5 -69.898438 24.847656 -68.15625 24.453125 -66 C 24.054688 -63.84375 23.859375 -61.550781 23.859375 -59.125 C 23.859375 -55.113281 24.421875 -51.222656 25.546875 -47.453125 C 26.671875 -43.691406 27.960938 -40.019531 29.421875 -36.4375 Z M 29.421875 -36.4375 "/></g></g></g><g fill="#ffefd6" fill-opacity="1"><g transform="translate(750.570291, 375.358942)"><g><path d="M 0 -91.09375 L 24.5 -91.09375 C 27.414062 -91.09375 29.738281 -90.285156 31.46875 -88.671875 C 33.195312 -87.066406 34.441406 -85.0625 35.203125 -82.65625 C 35.960938 -80.257812 36.34375 -77.847656 36.34375 -75.421875 C 36.34375 -72.503906 35.914062 -69.90625 35.0625 -67.625 C 34.21875 -65.351562 33.234375 -63.203125 32.109375 -61.171875 C 30.984375 -59.140625 29.992188 -57 29.140625 -54.75 C 28.296875 -52.5 27.875 -49.914062 27.875 -47 C 27.875 -44.757812 28.785156 -42.664062 30.609375 -40.71875 C 32.429688 -38.769531 35.222656 -37.828125 38.984375 -37.890625 C 41.960938 -37.890625 44.363281 -38.390625 46.1875 -39.390625 C 48.007812 -40.398438 49.40625 -41.660156 50.375 -43.171875 C 51.34375 -44.691406 51.992188 -46.285156 52.328125 -47.953125 C 52.660156 -49.628906 52.828125 -51.195312 52.828125 -52.65625 C 52.828125 -55.019531 52.375 -57.398438 51.46875 -59.796875 C 50.5625 -62.203125 49.4375 -64.585938 48.09375 -66.953125 C 46.757812 -69.316406 45.421875 -71.625 44.078125 -73.875 C 42.742188 -76.125 41.625 -78.265625 40.71875 -80.296875 C 39.8125 -82.328125 39.359375 -84.195312 39.359375 -85.90625 C 39.359375 -87.300781 39.84375 -88.515625 40.8125 -89.546875 C 41.78125 -90.578125 42.992188 -91.09375 44.453125 -91.09375 L 65.671875 -91.09375 C 67.679688 -91.09375 69.203125 -90.363281 70.234375 -88.90625 C 71.265625 -87.445312 71.960938 -85.6875 72.328125 -83.625 C 72.691406 -81.5625 72.875 -79.585938 72.875 -77.703125 C 72.875 -73.148438 72.203125 -68.929688 70.859375 -65.046875 C 69.523438 -61.160156 67.796875 -57.5625 65.671875 -54.25 C 63.546875 -50.9375 61.300781 -47.851562 58.9375 -45 C 56.570312 -42.144531 54.328125 -39.472656 52.203125 -36.984375 C 50.078125 -34.492188 48.34375 -32.15625 47 -29.96875 C 45.664062 -27.78125 45 -25.6875 45 -23.6875 C 45 -20.28125 45.453125 -17.46875 46.359375 -15.25 C 47.273438 -13.039062 48.304688 -11.191406 49.453125 -9.703125 C 50.609375 -8.210938 51.640625 -6.921875 52.546875 -5.828125 C 53.460938 -4.734375 53.921875 -3.640625 53.921875 -2.546875 C 53.921875 -1.816406 53.570312 -1.207031 52.875 -0.71875 C 52.175781 -0.238281 50.945312 0 49.1875 0 L 27.0625 0 C 25.78125 0 24.710938 -0.453125 23.859375 -1.359375 C 23.015625 -2.273438 22.394531 -3.414062 22 -4.78125 C 21.601562 -6.144531 21.40625 -7.46875 21.40625 -8.75 C 21.40625 -11.113281 22.101562 -13.25 23.5 -15.15625 C 24.894531 -17.070312 26.625 -18.820312 28.6875 -20.40625 C 30.757812 -21.988281 32.828125 -23.445312 34.890625 -24.78125 C 36.953125 -26.113281 38.679688 -27.359375 40.078125 -28.515625 C 41.472656 -29.671875 42.171875 -30.796875 42.171875 -31.890625 C 42.171875 -32.796875 41.78125 -33.25 41 -33.25 C 40.207031 -33.25 39.445312 -33.066406 38.71875 -32.703125 C 37.988281 -32.335938 37.015625 -31.957031 35.796875 -31.5625 C 34.585938 -31.164062 32.890625 -30.96875 30.703125 -30.96875 C 27.234375 -30.96875 24.390625 -31.570312 22.171875 -32.78125 C 19.960938 -34 18.203125 -35.625 16.890625 -37.65625 C 15.585938 -39.695312 14.617188 -41.945312 13.984375 -44.40625 C 13.347656 -46.863281 12.90625 -49.304688 12.65625 -51.734375 C 12.351562 -54.773438 12.003906 -58.128906 11.609375 -61.796875 C 11.210938 -65.472656 10.601562 -69.164062 9.78125 -72.875 C 8.96875 -76.582031 7.785156 -80.03125 6.234375 -83.21875 C 4.691406 -86.40625 2.613281 -89.03125 0 -91.09375 Z M 0 -91.09375 "/></g></g></g></svg>