<svg xmlns="http://www.w3.org/2000/svg" xmlns:xlink="http://www.w3.org/1999/xlink" width="1366" zoomAndPan="magnify" viewBox="0 0 1024.5 576" height="768" preserveAspectRatio="xMidYMid meet" version="1.0"><defs><filter x="0%" y="0%" width="100%" height="100%" id="3e65975ae5"><feColorMatrix values="0 0 0 0 1 0 0 0 0 1 0 0 0 0 1 0 0 0 1 0" color-interpolation-filters="sRGB"/></filter><g/><mask id="633f90108c"><g filter="url(#3e65975ae5)"><rect x="-102.45" width="1229.4" fill="#000000" y="-57.6" height="691.2" fill-opacity="0.51"/></g></mask><clipPath id="75196f49ba"><path d="M 0.59375 0.527344 L 981.234375 0.527344 L 981.234375 353.15625 L 0.59375 353.15625 Z M 0.59375 0.527344 " clip-rule="nonzero"/></clipPath><clipPath id="9f7967896e"><rect x="0" width="982" y="0" height="354"/></clipPath><clipPath id="cd55b90136"><rect x="0" width="982" y="0" height="354"/></clipPath><clipPath id="1dc11bc2ef"><rect x="0" width="981" y="0" height="354"/></clipPath></defs><g mask="url(#633f90108c)"><g transform="matrix(1, 0, 0, 1, 15, 109)"><g clip-path="url(#cd55b90136)"><g clip-path="url(#75196f49ba)"><g transform="matrix(1, 0, 0, 1, 0, -0.000000000000056843)"><g clip-path="url(#9f7967896e)"><g fill="#957669" fill-opacity="1"><g transform="translate(103.79055, 152.658128)"><g><path d="M 35.5 0 L 1.4375 0 C 3.363281 -1.925781 4.6875 -4.210938 5.40625 -6.859375 C 6.132812 -9.503906 6.5 -12.894531 6.5 -17.03125 L 6.5 -127.296875 C 6.5 -131.429688 6.132812 -134.820312 5.40625 -137.46875 C 4.6875 -140.113281 3.363281 -142.398438 1.4375 -144.328125 L 39.6875 -144.328125 C 41.519531 -144.328125 43.253906 -143.195312 44.890625 -140.9375 C 46.523438 -138.675781 47.34375 -136.296875 47.34375 -133.796875 C 47.34375 -129.460938 46.523438 -125.851562 44.890625 -122.96875 C 43.253906 -120.082031 41.160156 -117.703125 38.609375 -115.828125 C 36.054688 -113.953125 33.359375 -112.363281 30.515625 -111.0625 C 27.679688 -109.757812 24.988281 -108.503906 22.4375 -107.296875 C 19.894531 -106.097656 17.804688 -104.726562 16.171875 -103.1875 C 14.535156 -101.65625 13.71875 -99.6875 13.71875 -97.28125 C 13.71875 -96.601562 13.976562 -95.953125 14.5 -95.328125 C 15.03125 -94.703125 15.679688 -94.390625 16.453125 -94.390625 C 17.898438 -94.390625 19.535156 -94.894531 21.359375 -95.90625 C 23.191406 -96.914062 25.523438 -98.066406 28.359375 -99.359375 C 31.203125 -100.660156 34.90625 -101.816406 39.46875 -102.828125 C 44.039062 -103.835938 49.789062 -104.34375 56.71875 -104.34375 C 63.644531 -104.34375 69.414062 -103.835938 74.03125 -102.828125 C 78.65625 -101.816406 82.429688 -100.660156 85.359375 -99.359375 C 88.296875 -98.066406 90.726562 -96.914062 92.65625 -95.90625 C 94.582031 -94.894531 96.265625 -94.390625 97.703125 -94.390625 C 98.472656 -94.390625 99.125 -94.703125 99.65625 -95.328125 C 100.1875 -95.953125 100.453125 -96.601562 100.453125 -97.28125 C 100.453125 -99.6875 99.632812 -101.65625 98 -103.1875 C 96.363281 -104.726562 94.269531 -106.097656 91.71875 -107.296875 C 89.164062 -108.503906 86.46875 -109.757812 83.625 -111.0625 C 80.789062 -112.363281 78.097656 -113.953125 75.546875 -115.828125 C 73.003906 -117.703125 70.914062 -120.082031 69.28125 -122.96875 C 67.644531 -125.851562 66.828125 -129.460938 66.828125 -133.796875 C 66.828125 -136.296875 67.644531 -138.675781 69.28125 -140.9375 C 70.914062 -143.195312 72.644531 -144.328125 74.46875 -144.328125 L 112.71875 -144.328125 C 110.789062 -142.398438 109.46875 -140.113281 108.75 -137.46875 C 108.03125 -134.820312 107.671875 -131.429688 107.671875 -127.296875 L 107.671875 -17.03125 C 107.671875 -12.894531 108.03125 -9.503906 108.75 -6.859375 C 109.46875 -4.210938 110.789062 -1.925781 112.71875 0 L 78.65625 0 C 74.8125 0 71.78125 -0.671875 69.5625 -2.015625 C 67.351562 -3.367188 65.816406 -5.03125 64.953125 -7 C 64.085938 -8.96875 63.65625 -10.914062 63.65625 -12.84375 C 63.65625 -17.457031 64.539062 -21.878906 66.3125 -26.109375 C 68.09375 -30.347656 70.378906 -34.390625 73.171875 -38.234375 C 75.960938 -42.085938 78.921875 -45.742188 82.046875 -49.203125 C 85.171875 -52.671875 88.128906 -55.96875 90.921875 -59.09375 C 93.710938 -62.226562 96 -65.1875 97.78125 -67.96875 C 99.5625 -70.757812 100.453125 -73.410156 100.453125 -75.921875 C 100.453125 -77.554688 99.726562 -78.375 98.28125 -78.375 C 97.03125 -78.375 95.585938 -77.769531 93.953125 -76.5625 C 92.316406 -75.363281 90.03125 -73.992188 87.09375 -72.453125 C 84.164062 -70.910156 80.222656 -69.535156 75.265625 -68.328125 C 70.304688 -67.128906 63.929688 -66.53125 56.140625 -66.53125 C 48.347656 -66.53125 42.070312 -67.128906 37.3125 -68.328125 C 32.550781 -69.535156 28.820312 -70.910156 26.125 -72.453125 C 23.425781 -73.992188 21.351562 -75.363281 19.90625 -76.5625 C 18.46875 -77.769531 17.125 -78.375 15.875 -78.375 C 14.4375 -78.375 13.71875 -77.554688 13.71875 -75.921875 C 13.71875 -73.410156 14.601562 -70.757812 16.375 -67.96875 C 18.15625 -65.1875 20.441406 -62.226562 23.234375 -59.09375 C 26.023438 -55.96875 28.984375 -52.671875 32.109375 -49.203125 C 35.234375 -45.742188 38.191406 -42.085938 40.984375 -38.234375 C 43.773438 -34.390625 46.0625 -30.347656 47.84375 -26.109375 C 49.625 -21.878906 50.515625 -17.457031 50.515625 -12.84375 C 50.515625 -10.914062 50.082031 -8.96875 49.21875 -7 C 48.351562 -5.03125 46.835938 -3.367188 44.671875 -2.015625 C 42.503906 -0.671875 39.445312 0 35.5 0 Z M 35.5 0 "/></g></g></g><g fill="#957669" fill-opacity="1"><g transform="translate(212.319777, 152.658128)"><g><path d="M 0 0 C 2.976562 -2.5 5.378906 -6.296875 7.203125 -11.390625 C 9.035156 -16.492188 10.867188 -22.03125 12.703125 -28 C 15.585938 -37.8125 18.113281 -46.757812 20.28125 -54.84375 C 22.445312 -62.925781 24.367188 -70.789062 26.046875 -78.4375 C 27.734375 -86.09375 29.367188 -94.054688 30.953125 -102.328125 C 32.546875 -110.597656 34.253906 -119.738281 36.078125 -129.75 C 36.554688 -132.539062 36.554688 -135.28125 36.078125 -137.96875 C 35.597656 -140.664062 34.539062 -142.785156 32.90625 -144.328125 L 96.84375 -144.328125 C 95.300781 -142.785156 94.265625 -140.664062 93.734375 -137.96875 C 93.210938 -135.28125 93.191406 -132.539062 93.671875 -129.75 C 95.492188 -119.738281 97.195312 -110.597656 98.78125 -102.328125 C 100.375 -94.054688 102.007812 -86.09375 103.6875 -78.4375 C 105.375 -70.789062 107.300781 -62.925781 109.46875 -54.84375 C 111.632812 -46.757812 114.160156 -37.8125 117.046875 -28 C 118.878906 -22.03125 120.707031 -16.492188 122.53125 -11.390625 C 124.363281 -6.296875 126.769531 -2.5 129.75 0 L 70.140625 0 C 71.773438 -1.925781 73.050781 -4.28125 73.96875 -7.0625 C 74.882812 -9.851562 75.34375 -12.742188 75.34375 -15.734375 C 75.34375 -18.140625 74.90625 -22.613281 74.03125 -29.15625 C 73.164062 -35.695312 72.015625 -43.054688 70.578125 -51.234375 L 49.359375 -51.234375 C 51.859375 -45.171875 54.140625 -39.15625 56.203125 -33.1875 C 58.273438 -27.226562 59.3125 -21.265625 59.3125 -15.296875 C 59.3125 -13.085938 59.023438 -10.78125 58.453125 -8.375 C 57.878906 -5.96875 56.84375 -3.96875 55.34375 -2.375 C 53.851562 -0.789062 51.664062 0 48.78125 0 Z M 46.625 -57.734375 L 69.28125 -57.734375 C 67.925781 -64.660156 66.429688 -71.5625 64.796875 -78.4375 C 63.160156 -85.320312 61.40625 -91.601562 59.53125 -97.28125 C 57.65625 -102.957031 55.726562 -107.503906 53.75 -110.921875 C 51.78125 -114.335938 49.785156 -116.046875 47.765625 -116.046875 C 45.265625 -116.046875 43.289062 -114.984375 41.84375 -112.859375 C 40.40625 -110.742188 39.375 -107.976562 38.75 -104.5625 C 38.125 -101.144531 37.8125 -97.515625 37.8125 -93.671875 C 37.8125 -87.316406 38.703125 -81.15625 40.484375 -75.1875 C 42.265625 -69.226562 44.3125 -63.410156 46.625 -57.734375 Z M 46.625 -57.734375 "/></g></g></g><g fill="#957669" fill-opacity="1"><g transform="translate(336.435696, 152.658128)"><g><path d="M 1.4375 -144.328125 L 59.609375 -144.328125 C 71.347656 -144.328125 80.753906 -142.472656 87.828125 -138.765625 C 94.898438 -135.066406 100.046875 -130.066406 103.265625 -123.765625 C 106.492188 -117.460938 108.109375 -110.414062 108.109375 -102.625 C 108.109375 -97.039062 107.359375 -91.53125 105.859375 -86.09375 C 104.367188 -80.65625 101.988281 -75.742188 98.71875 -71.359375 C 95.445312 -66.984375 91.257812 -63.472656 86.15625 -60.828125 C 81.0625 -58.179688 74.90625 -56.859375 67.6875 -56.859375 C 62.207031 -56.859375 57.46875 -57.648438 53.46875 -59.234375 C 49.476562 -60.828125 46.039062 -62.800781 43.15625 -65.15625 C 40.269531 -67.519531 37.742188 -69.90625 35.578125 -72.3125 C 33.410156 -74.71875 31.484375 -76.710938 29.796875 -78.296875 C 28.117188 -79.878906 26.460938 -80.671875 24.828125 -80.671875 C 22.898438 -80.671875 21.597656 -80.191406 20.921875 -79.234375 C 20.253906 -78.273438 19.921875 -77.21875 19.921875 -76.0625 C 19.921875 -74.132812 20.929688 -72.207031 22.953125 -70.28125 C 24.972656 -68.363281 27.6875 -66.488281 31.09375 -64.65625 C 34.507812 -62.832031 38.285156 -61.078125 42.421875 -59.390625 C 46.566406 -57.703125 50.707031 -56.039062 54.84375 -54.40625 C 59.070312 -52.875 63.566406 -51.164062 68.328125 -49.28125 C 73.097656 -47.40625 77.742188 -45.3125 82.265625 -43 C 86.785156 -40.695312 90.875 -38.101562 94.53125 -35.21875 C 98.1875 -32.332031 101.117188 -29.0625 103.328125 -25.40625 C 105.546875 -21.75 106.65625 -17.660156 106.65625 -13.140625 C 106.65625 -8.515625 105.957031 -5.164062 104.5625 -3.09375 C 103.164062 -1.03125 100.691406 0 97.140625 0 L 65.953125 0 C 64.992188 0 64.054688 -0.238281 63.140625 -0.71875 C 62.222656 -1.195312 61.765625 -2.0625 61.765625 -3.3125 C 61.765625 -5.050781 61.984375 -6.566406 62.421875 -7.859375 C 62.859375 -9.160156 63.265625 -10.554688 63.640625 -12.046875 C 64.023438 -13.535156 64.21875 -15.484375 64.21875 -17.890625 C 64.21875 -21.066406 63.234375 -24.410156 61.265625 -27.921875 C 59.296875 -31.441406 56.695312 -34.90625 53.46875 -38.3125 C 50.25 -41.726562 46.757812 -44.953125 43 -47.984375 C 39.25 -51.015625 35.59375 -53.707031 32.03125 -56.0625 C 28.476562 -58.425781 25.304688 -60.28125 22.515625 -61.625 C 19.722656 -62.976562 17.75 -63.65625 16.59375 -63.65625 C 15.632812 -63.65625 14.960938 -63.269531 14.578125 -62.5 C 14.191406 -61.726562 14 -61.148438 14 -60.765625 C 14 -58.359375 14.9375 -56.191406 16.8125 -54.265625 C 18.6875 -52.335938 21.113281 -50.457031 24.09375 -48.625 C 27.082031 -46.800781 30.234375 -44.851562 33.546875 -42.78125 C 36.867188 -40.71875 40 -38.382812 42.9375 -35.78125 C 45.875 -33.1875 48.28125 -30.15625 50.15625 -26.6875 C 52.03125 -23.226562 52.96875 -19.191406 52.96875 -14.578125 C 52.96875 -12.648438 52.601562 -10.554688 51.875 -8.296875 C 51.15625 -6.035156 50.050781 -4.085938 48.5625 -2.453125 C 47.070312 -0.816406 45.125 0 42.71875 0 L 1.59375 0 C 3.507812 -1.925781 4.828125 -4.210938 5.546875 -6.859375 C 6.273438 -9.503906 6.640625 -12.894531 6.640625 -17.03125 L 6.640625 -41.703125 L 6.5 -72.15625 L 6.5 -127.296875 C 6.5 -131.429688 6.132812 -134.820312 5.40625 -137.46875 C 4.6875 -140.113281 3.363281 -142.398438 1.4375 -144.328125 Z M 51.234375 -114.15625 C 47.578125 -114.15625 43.582031 -114.007812 39.25 -113.71875 C 34.925781 -113.4375 30.835938 -112.835938 26.984375 -111.921875 C 23.140625 -111.015625 19.988281 -109.597656 17.53125 -107.671875 C 15.082031 -105.742188 13.859375 -103.144531 13.859375 -99.875 C 13.859375 -96.601562 15.15625 -94.03125 17.75 -92.15625 C 20.351562 -90.28125 23.796875 -88.859375 28.078125 -87.890625 C 32.359375 -86.929688 37.023438 -86.304688 42.078125 -86.015625 C 47.128906 -85.734375 52.15625 -85.59375 57.15625 -85.59375 C 62.15625 -85.59375 67.203125 -85.734375 72.296875 -86.015625 C 77.398438 -86.304688 82.09375 -86.929688 86.375 -87.890625 C 90.65625 -88.859375 94.09375 -90.28125 96.6875 -92.15625 C 99.289062 -94.03125 100.59375 -96.601562 100.59375 -99.875 C 100.59375 -102.46875 99.535156 -104.628906 97.421875 -106.359375 C 95.304688 -108.097656 92.488281 -109.492188 88.96875 -110.546875 C 85.457031 -111.609375 81.535156 -112.378906 77.203125 -112.859375 C 72.878906 -113.347656 68.457031 -113.6875 63.9375 -113.875 C 59.414062 -114.0625 55.179688 -114.15625 51.234375 -114.15625 Z M 51.234375 -114.15625 "/></g></g></g><g fill="#957669" fill-opacity="1"><g transform="translate(442.511447, 152.658128)"><g><path d="M 6.0625 -88.1875 C 5.101562 -88.1875 4.332031 -88.519531 3.75 -89.1875 C 3.175781 -89.863281 2.890625 -90.679688 2.890625 -91.640625 L 2.890625 -144.328125 L 115.03125 -144.328125 L 115.03125 -91.640625 C 115.03125 -90.679688 114.765625 -89.863281 114.234375 -89.1875 C 113.703125 -88.519531 112.910156 -88.1875 111.859375 -88.1875 C 110.703125 -88.1875 109.375 -89.363281 107.875 -91.71875 C 106.382812 -94.070312 104.796875 -97.101562 103.109375 -100.8125 C 101.429688 -104.519531 99.703125 -108.460938 97.921875 -112.640625 C 96.140625 -116.828125 94.359375 -120.773438 92.578125 -124.484375 C 90.804688 -128.191406 89.078125 -131.222656 87.390625 -133.578125 C 85.703125 -135.929688 84.09375 -137.109375 82.5625 -137.109375 C 80.4375 -137.109375 79.15625 -136.117188 78.71875 -134.140625 C 78.289062 -132.171875 78.078125 -130.082031 78.078125 -127.875 L 78.078125 -17.03125 C 78.078125 -12.894531 78.4375 -9.503906 79.15625 -6.859375 C 79.882812 -4.210938 81.210938 -1.925781 83.140625 0 L 34.78125 0 C 36.707031 -1.925781 38.03125 -4.210938 38.75 -6.859375 C 39.46875 -9.503906 39.828125 -12.894531 39.828125 -17.03125 L 39.828125 -127.875 C 39.828125 -130.082031 39.609375 -132.171875 39.171875 -134.140625 C 38.742188 -136.117188 37.472656 -137.109375 35.359375 -137.109375 C 33.816406 -137.109375 32.203125 -135.929688 30.515625 -133.578125 C 28.835938 -131.222656 27.109375 -128.191406 25.328125 -124.484375 C 23.546875 -120.773438 21.765625 -116.828125 19.984375 -112.640625 C 18.203125 -108.460938 16.46875 -104.519531 14.78125 -100.8125 C 13.101562 -97.101562 11.539062 -94.070312 10.09375 -91.71875 C 8.65625 -89.363281 7.3125 -88.1875 6.0625 -88.1875 Z M 6.0625 -88.1875 "/></g></g></g><g fill="#957669" fill-opacity="1"><g transform="translate(554.793038, 152.658128)"><g><path d="M 78.375 0 L 1.4375 0 C 3.363281 -1.925781 4.6875 -4.210938 5.40625 -6.859375 C 6.132812 -9.503906 6.5 -12.894531 6.5 -17.03125 L 6.5 -127.296875 C 6.5 -131.429688 6.132812 -134.820312 5.40625 -137.46875 C 4.6875 -140.113281 3.363281 -142.398438 1.4375 -144.328125 L 45.75 -144.328125 C 49.695312 -144.328125 52.753906 -143.648438 54.921875 -142.296875 C 57.085938 -140.953125 58.601562 -139.296875 59.46875 -137.328125 C 60.332031 -135.359375 60.765625 -133.410156 60.765625 -131.484375 C 60.765625 -127.921875 59.753906 -124.285156 57.734375 -120.578125 C 55.710938 -116.878906 53.113281 -113.082031 49.9375 -109.1875 C 46.757812 -105.289062 43.390625 -101.222656 39.828125 -96.984375 C 36.273438 -92.753906 32.910156 -88.328125 29.734375 -83.703125 C 26.554688 -79.085938 23.957031 -74.253906 21.9375 -69.203125 C 19.914062 -64.148438 18.90625 -58.832031 18.90625 -53.25 C 18.90625 -50.082031 19.410156 -46.5 20.421875 -42.5 C 21.429688 -38.507812 22.921875 -34.445312 24.890625 -30.3125 C 26.867188 -26.175781 29.347656 -22.347656 32.328125 -18.828125 C 35.304688 -15.316406 38.789062 -12.503906 42.78125 -10.390625 C 46.78125 -8.273438 51.234375 -7.21875 56.140625 -7.21875 C 59.222656 -7.21875 62.207031 -7.722656 65.09375 -8.734375 C 67.976562 -9.742188 70.359375 -11.257812 72.234375 -13.28125 C 74.109375 -15.300781 75.046875 -17.800781 75.046875 -20.78125 C 75.046875 -24.632812 74.226562 -27.929688 72.59375 -30.671875 C 70.957031 -33.410156 68.9375 -35.929688 66.53125 -38.234375 C 64.125 -40.546875 61.691406 -42.976562 59.234375 -45.53125 C 56.785156 -48.082031 54.742188 -51.066406 53.109375 -54.484375 C 51.472656 -57.898438 50.65625 -62.109375 50.65625 -67.109375 C 50.65625 -70.765625 51.546875 -74.179688 53.328125 -77.359375 C 55.109375 -80.535156 57.488281 -83.109375 60.46875 -85.078125 C 63.457031 -87.054688 66.78125 -88.046875 70.4375 -88.046875 C 72.738281 -88.046875 75.71875 -87.609375 79.375 -86.734375 C 83.03125 -85.867188 86.6875 -84.710938 90.34375 -83.265625 C 94 -81.828125 97.078125 -80.144531 99.578125 -78.21875 C 102.085938 -76.300781 103.34375 -74.28125 103.34375 -72.15625 C 103.34375 -69.375 102.570312 -67.164062 101.03125 -65.53125 C 99.488281 -63.894531 97.515625 -62.570312 95.109375 -61.5625 C 92.703125 -60.550781 90.175781 -59.632812 87.53125 -58.8125 C 84.882812 -58 82.359375 -57.132812 79.953125 -56.21875 C 77.546875 -55.300781 75.570312 -54.070312 74.03125 -52.53125 C 72.5 -50.988281 71.734375 -48.921875 71.734375 -46.328125 C 71.734375 -44.210938 72.523438 -42.382812 74.109375 -40.84375 C 75.703125 -39.300781 77.722656 -37.878906 80.171875 -36.578125 C 82.628906 -35.285156 85.25 -33.941406 88.03125 -32.546875 C 90.820312 -31.148438 93.445312 -29.535156 95.90625 -27.703125 C 98.363281 -25.878906 100.382812 -23.691406 101.96875 -21.140625 C 103.550781 -18.585938 104.34375 -15.484375 104.34375 -11.828125 C 104.34375 -8.554688 103.550781 -6.078125 101.96875 -4.390625 C 100.382812 -2.710938 98.289062 -1.582031 95.6875 -1 C 93.09375 -0.425781 90.28125 -0.113281 87.25 -0.0625 C 84.21875 -0.0195312 81.257812 0 78.375 0 Z M 78.375 0 "/></g></g></g><g fill="#957669" fill-opacity="1"><g transform="translate(654.951634, 152.658128)"><g><path d="M 3.609375 -72.15625 C 3.609375 -79.28125 4.28125 -86.398438 5.625 -93.515625 C 6.976562 -100.640625 9.046875 -107.375 11.828125 -113.71875 C 14.617188 -120.070312 18.082031 -125.703125 22.21875 -130.609375 C 26.363281 -135.523438 31.25 -139.398438 36.875 -142.234375 C 42.5 -145.078125 48.875 -146.5 56 -146.5 C 59.75 -146.5 63.332031 -146.015625 66.75 -145.046875 C 70.164062 -144.085938 73.675781 -143.125 77.28125 -142.15625 C 80.894531 -141.195312 84.863281 -140.71875 89.1875 -140.71875 C 92.5625 -140.71875 95.234375 -141.195312 97.203125 -142.15625 C 99.171875 -143.125 100.851562 -144.085938 102.25 -145.046875 C 103.644531 -146.015625 105.066406 -146.5 106.515625 -146.5 C 108.441406 -146.5 109.546875 -145.414062 109.828125 -143.25 C 110.117188 -141.082031 109.90625 -138.382812 109.1875 -135.15625 C 108.46875 -131.9375 107.429688 -128.738281 106.078125 -125.5625 C 105.117188 -123.351562 103.722656 -120.734375 101.890625 -117.703125 C 100.066406 -114.671875 97.804688 -112.046875 95.109375 -109.828125 C 92.421875 -107.617188 89.34375 -106.515625 85.875 -106.515625 C 80.769531 -106.515625 76.222656 -107.09375 72.234375 -108.25 C 68.242188 -109.40625 64.585938 -110.847656 61.265625 -112.578125 C 57.941406 -114.304688 54.765625 -116.035156 51.734375 -117.765625 C 48.703125 -119.503906 45.597656 -120.945312 42.421875 -122.09375 C 39.253906 -123.25 35.796875 -123.828125 32.046875 -123.828125 C 29.640625 -123.828125 27.664062 -123.175781 26.125 -121.875 C 24.582031 -120.582031 23.378906 -118.972656 22.515625 -117.046875 C 21.648438 -115.117188 21.046875 -113.191406 20.703125 -111.265625 C 20.367188 -109.347656 20.203125 -107.71875 20.203125 -106.375 C 20.203125 -105.695312 20.175781 -104.46875 20.125 -102.6875 C 20.082031 -100.90625 20.082031 -99.03125 20.125 -97.0625 C 20.175781 -95.09375 20.414062 -93.410156 20.84375 -92.015625 C 21.28125 -90.617188 21.984375 -89.921875 22.953125 -89.921875 C 24.390625 -89.921875 25.851562 -90.546875 27.34375 -91.796875 C 28.84375 -93.046875 30.84375 -94.296875 33.34375 -95.546875 C 35.84375 -96.796875 39.207031 -97.421875 43.4375 -97.421875 C 47 -97.421875 50.460938 -96.816406 53.828125 -95.609375 C 57.203125 -94.410156 60.472656 -93.039062 63.640625 -91.5 C 66.816406 -89.957031 69.921875 -88.585938 72.953125 -87.390625 C 75.984375 -86.191406 78.894531 -85.59375 81.6875 -85.59375 C 83.90625 -85.59375 85.640625 -86.070312 86.890625 -87.03125 C 88.140625 -87.988281 89.148438 -88.925781 89.921875 -89.84375 C 90.691406 -90.757812 91.457031 -91.21875 92.21875 -91.21875 C 93.375 -91.21875 94.265625 -90.421875 94.890625 -88.828125 C 95.515625 -87.242188 95.828125 -85.296875 95.828125 -82.984375 C 95.828125 -80.578125 95.367188 -77.976562 94.453125 -75.1875 C 93.546875 -72.40625 92.101562 -69.757812 90.125 -67.25 C 88.15625 -64.75 85.609375 -62.703125 82.484375 -61.109375 C 79.359375 -59.523438 75.582031 -58.734375 71.15625 -58.734375 C 66.914062 -58.734375 63.0625 -59.625 59.59375 -61.40625 C 56.132812 -63.1875 52.984375 -65.375 50.140625 -67.96875 C 47.304688 -70.570312 44.660156 -73.148438 42.203125 -75.703125 C 39.753906 -78.253906 37.375 -80.414062 35.0625 -82.1875 C 32.757812 -83.96875 30.40625 -84.859375 28 -84.859375 C 26.457031 -84.859375 25.445312 -84.378906 24.96875 -83.421875 C 24.488281 -82.460938 24.296875 -81.351562 24.390625 -80.09375 C 24.484375 -78.84375 24.675781 -77.738281 24.96875 -76.78125 C 27.851562 -67.925781 31.820312 -60.109375 36.875 -53.328125 C 41.925781 -46.546875 47.625 -41.226562 53.96875 -37.375 C 60.320312 -33.53125 66.820312 -31.609375 73.46875 -31.609375 C 78.5625 -31.609375 82.742188 -32.328125 86.015625 -33.765625 C 89.285156 -35.210938 91.957031 -36.992188 94.03125 -39.109375 C 96.101562 -41.222656 97.785156 -43.335938 99.078125 -45.453125 C 100.378906 -47.578125 101.582031 -49.359375 102.6875 -50.796875 C 103.789062 -52.242188 105.066406 -52.96875 106.515625 -52.96875 C 107.378906 -52.96875 108.195312 -52.507812 108.96875 -51.59375 C 109.738281 -50.675781 110.125 -48.535156 110.125 -45.171875 C 110.125 -40.265625 109.0625 -35.066406 106.9375 -29.578125 C 104.820312 -24.097656 101.71875 -18.953125 97.625 -14.140625 C 93.539062 -9.328125 88.515625 -5.40625 82.546875 -2.375 C 76.585938 0.65625 69.757812 2.171875 62.0625 2.171875 C 53.976562 2.171875 46.398438 0.628906 39.328125 -2.453125 C 32.253906 -5.535156 26.046875 -10.15625 20.703125 -16.3125 C 15.367188 -22.46875 11.1875 -30.210938 8.15625 -39.546875 C 5.125 -48.878906 3.609375 -59.75 3.609375 -72.15625 Z M 3.609375 -72.15625 "/></g></g></g><g fill="#957669" fill-opacity="1"><g transform="translate(762.326274, 152.658128)"><g><path d="M 0 -144.328125 L 38.828125 -144.328125 C 43.441406 -144.328125 47.117188 -143.050781 49.859375 -140.5 C 52.609375 -137.945312 54.582031 -134.769531 55.78125 -130.96875 C 56.988281 -127.175781 57.59375 -123.351562 57.59375 -119.5 C 57.59375 -114.882812 56.914062 -110.769531 55.5625 -107.15625 C 54.21875 -103.550781 52.65625 -100.132812 50.875 -96.90625 C 49.09375 -93.6875 47.53125 -90.296875 46.1875 -86.734375 C 44.84375 -83.179688 44.171875 -79.09375 44.171875 -74.46875 C 44.171875 -70.914062 45.613281 -67.597656 48.5 -64.515625 C 51.382812 -61.429688 55.804688 -59.941406 61.765625 -60.046875 C 66.484375 -60.046875 70.285156 -60.835938 73.171875 -62.421875 C 76.054688 -64.003906 78.269531 -66 79.8125 -68.40625 C 81.351562 -70.8125 82.382812 -73.335938 82.90625 -75.984375 C 83.4375 -78.628906 83.703125 -81.109375 83.703125 -83.421875 C 83.703125 -87.171875 82.976562 -90.945312 81.53125 -94.75 C 80.09375 -98.550781 78.316406 -102.328125 76.203125 -106.078125 C 74.085938 -109.828125 71.96875 -113.484375 69.84375 -117.046875 C 67.726562 -120.609375 65.945312 -124 64.5 -127.21875 C 63.0625 -130.445312 62.34375 -133.40625 62.34375 -136.09375 C 62.34375 -138.3125 63.113281 -140.238281 64.65625 -141.875 C 66.195312 -143.507812 68.125 -144.328125 70.4375 -144.328125 L 104.0625 -144.328125 C 107.238281 -144.328125 109.644531 -143.171875 111.28125 -140.859375 C 112.914062 -138.554688 114.019531 -135.769531 114.59375 -132.5 C 115.175781 -129.226562 115.46875 -126.097656 115.46875 -123.109375 C 115.46875 -115.890625 114.40625 -109.203125 112.28125 -103.046875 C 110.164062 -96.890625 107.425781 -91.1875 104.0625 -85.9375 C 100.695312 -80.695312 97.132812 -75.816406 93.375 -71.296875 C 89.625 -66.773438 86.066406 -62.539062 82.703125 -58.59375 C 79.335938 -54.65625 76.59375 -50.953125 74.46875 -47.484375 C 72.351562 -44.015625 71.296875 -40.695312 71.296875 -37.53125 C 71.296875 -32.132812 72.015625 -27.679688 73.453125 -24.171875 C 74.898438 -20.660156 76.535156 -17.722656 78.359375 -15.359375 C 80.191406 -13.003906 81.828125 -10.960938 83.265625 -9.234375 C 84.710938 -7.503906 85.4375 -5.773438 85.4375 -4.046875 C 85.4375 -2.890625 84.882812 -1.925781 83.78125 -1.15625 C 82.675781 -0.382812 80.726562 0 77.9375 0 L 42.859375 0 C 40.835938 0 39.15625 -0.71875 37.8125 -2.15625 C 36.46875 -3.601562 35.484375 -5.410156 34.859375 -7.578125 C 34.234375 -9.742188 33.921875 -11.835938 33.921875 -13.859375 C 33.921875 -17.609375 35.023438 -21 37.234375 -24.03125 C 39.453125 -27.0625 42.195312 -29.828125 45.46875 -32.328125 C 48.738281 -34.828125 52.007812 -37.132812 55.28125 -39.25 C 58.550781 -41.375 61.289062 -43.347656 63.5 -45.171875 C 65.71875 -47.003906 66.828125 -48.785156 66.828125 -50.515625 C 66.828125 -51.960938 66.203125 -52.6875 64.953125 -52.6875 C 63.703125 -52.6875 62.5 -52.394531 61.34375 -51.8125 C 60.1875 -51.238281 58.644531 -50.640625 56.71875 -50.015625 C 54.789062 -49.390625 52.097656 -49.078125 48.640625 -49.078125 C 43.148438 -49.078125 38.648438 -50.035156 35.140625 -51.953125 C 31.628906 -53.878906 28.835938 -56.453125 26.765625 -59.671875 C 24.703125 -62.898438 23.164062 -66.460938 22.15625 -70.359375 C 21.144531 -74.253906 20.445312 -78.128906 20.0625 -81.984375 C 19.582031 -86.785156 19.03125 -92.097656 18.40625 -97.921875 C 17.78125 -103.742188 16.816406 -109.585938 15.515625 -115.453125 C 14.210938 -121.328125 12.332031 -126.789062 9.875 -131.84375 C 7.425781 -136.894531 4.132812 -141.054688 0 -144.328125 Z M 0 -144.328125 "/></g></g></g><g fill="#957669" fill-opacity="1"><g transform="translate(1.255597, 306.853144)"><g><path d="M 35.5 0 L 1.4375 0 C 3.363281 -1.925781 4.6875 -4.210938 5.40625 -6.859375 C 6.132812 -9.503906 6.5 -12.894531 6.5 -17.03125 L 6.5 -127.296875 C 6.5 -131.429688 6.132812 -134.820312 5.40625 -137.46875 C 4.6875 -140.113281 3.363281 -142.398438 1.4375 -144.328125 L 39.6875 -144.328125 C 41.519531 -144.328125 43.253906 -143.195312 44.890625 -140.9375 C 46.523438 -138.675781 47.34375 -136.296875 47.34375 -133.796875 C 47.34375 -129.460938 46.523438 -125.851562 44.890625 -122.96875 C 43.253906 -120.082031 41.160156 -117.703125 38.609375 -115.828125 C 36.054688 -113.953125 33.359375 -112.363281 30.515625 -111.0625 C 27.679688 -109.757812 24.988281 -108.503906 22.4375 -107.296875 C 19.894531 -106.097656 17.804688 -104.726562 16.171875 -103.1875 C 14.535156 -101.65625 13.71875 -99.6875 13.71875 -97.28125 C 13.71875 -96.601562 13.976562 -95.953125 14.5 -95.328125 C 15.03125 -94.703125 15.679688 -94.390625 16.453125 -94.390625 C 17.898438 -94.390625 19.535156 -94.894531 21.359375 -95.90625 C 23.191406 -96.914062 25.523438 -98.066406 28.359375 -99.359375 C 31.203125 -100.660156 34.90625 -101.816406 39.46875 -102.828125 C 44.039062 -103.835938 49.789062 -104.34375 56.71875 -104.34375 C 63.644531 -104.34375 69.414062 -103.835938 74.03125 -102.828125 C 78.65625 -101.816406 82.429688 -100.660156 85.359375 -99.359375 C 88.296875 -98.066406 90.726562 -96.914062 92.65625 -95.90625 C 94.582031 -94.894531 96.265625 -94.390625 97.703125 -94.390625 C 98.472656 -94.390625 99.125 -94.703125 99.65625 -95.328125 C 100.1875 -95.953125 100.453125 -96.601562 100.453125 -97.28125 C 100.453125 -99.6875 99.632812 -101.65625 98 -103.1875 C 96.363281 -104.726562 94.269531 -106.097656 91.71875 -107.296875 C 89.164062 -108.503906 86.46875 -109.757812 83.625 -111.0625 C 80.789062 -112.363281 78.097656 -113.953125 75.546875 -115.828125 C 73.003906 -117.703125 70.914062 -120.082031 69.28125 -122.96875 C 67.644531 -125.851562 66.828125 -129.460938 66.828125 -133.796875 C 66.828125 -136.296875 67.644531 -138.675781 69.28125 -140.9375 C 70.914062 -143.195312 72.644531 -144.328125 74.46875 -144.328125 L 112.71875 -144.328125 C 110.789062 -142.398438 109.46875 -140.113281 108.75 -137.46875 C 108.03125 -134.820312 107.671875 -131.429688 107.671875 -127.296875 L 107.671875 -17.03125 C 107.671875 -12.894531 108.03125 -9.503906 108.75 -6.859375 C 109.46875 -4.210938 110.789062 -1.925781 112.71875 0 L 78.65625 0 C 74.8125 0 71.78125 -0.671875 69.5625 -2.015625 C 67.351562 -3.367188 65.816406 -5.03125 64.953125 -7 C 64.085938 -8.96875 63.65625 -10.914062 63.65625 -12.84375 C 63.65625 -17.457031 64.539062 -21.878906 66.3125 -26.109375 C 68.09375 -30.347656 70.378906 -34.390625 73.171875 -38.234375 C 75.960938 -42.085938 78.921875 -45.742188 82.046875 -49.203125 C 85.171875 -52.671875 88.128906 -55.96875 90.921875 -59.09375 C 93.710938 -62.226562 96 -65.1875 97.78125 -67.96875 C 99.5625 -70.757812 100.453125 -73.410156 100.453125 -75.921875 C 100.453125 -77.554688 99.726562 -78.375 98.28125 -78.375 C 97.03125 -78.375 95.585938 -77.769531 93.953125 -76.5625 C 92.316406 -75.363281 90.03125 -73.992188 87.09375 -72.453125 C 84.164062 -70.910156 80.222656 -69.535156 75.265625 -68.328125 C 70.304688 -67.128906 63.929688 -66.53125 56.140625 -66.53125 C 48.347656 -66.53125 42.070312 -67.128906 37.3125 -68.328125 C 32.550781 -69.535156 28.820312 -70.910156 26.125 -72.453125 C 23.425781 -73.992188 21.351562 -75.363281 19.90625 -76.5625 C 18.46875 -77.769531 17.125 -78.375 15.875 -78.375 C 14.4375 -78.375 13.71875 -77.554688 13.71875 -75.921875 C 13.71875 -73.410156 14.601562 -70.757812 16.375 -67.96875 C 18.15625 -65.1875 20.441406 -62.226562 23.234375 -59.09375 C 26.023438 -55.96875 28.984375 -52.671875 32.109375 -49.203125 C 35.234375 -45.742188 38.191406 -42.085938 40.984375 -38.234375 C 43.773438 -34.390625 46.0625 -30.347656 47.84375 -26.109375 C 49.625 -21.878906 50.515625 -17.457031 50.515625 -12.84375 C 50.515625 -10.914062 50.082031 -8.96875 49.21875 -7 C 48.351562 -5.03125 46.835938 -3.367188 44.671875 -2.015625 C 42.503906 -0.671875 39.445312 0 35.5 0 Z M 35.5 0 "/></g></g></g><g fill="#957669" fill-opacity="1"><g transform="translate(109.784823, 306.853144)"><g><path d="M 3.609375 -72.15625 C 3.609375 -83.320312 4.953125 -93.453125 7.640625 -102.546875 C 10.335938 -111.640625 14.1875 -119.476562 19.1875 -126.0625 C 24.195312 -132.65625 30.1875 -137.707031 37.15625 -141.21875 C 44.132812 -144.738281 51.90625 -146.5 60.46875 -146.5 C 68.9375 -146.5 76.660156 -144.738281 83.640625 -141.21875 C 90.617188 -137.707031 96.609375 -132.65625 101.609375 -126.0625 C 106.609375 -119.476562 110.453125 -111.640625 113.140625 -102.546875 C 115.835938 -93.453125 117.1875 -83.320312 117.1875 -72.15625 C 117.1875 -61 115.835938 -50.875 113.140625 -41.78125 C 110.453125 -32.6875 106.609375 -24.84375 101.609375 -18.25 C 96.609375 -11.664062 90.617188 -6.613281 83.640625 -3.09375 C 76.660156 0.414062 68.9375 2.171875 60.46875 2.171875 C 51.90625 2.171875 44.132812 0.414062 37.15625 -3.09375 C 30.1875 -6.613281 24.195312 -11.664062 19.1875 -18.25 C 14.1875 -24.84375 10.335938 -32.6875 7.640625 -41.78125 C 4.953125 -50.875 3.609375 -61 3.609375 -72.15625 Z M 48.78125 -136.671875 C 45.414062 -136.671875 42.769531 -134.867188 40.84375 -131.265625 C 38.914062 -127.660156 37.613281 -122.773438 36.9375 -116.609375 C 36.269531 -110.453125 36.148438 -103.550781 36.578125 -95.90625 C 37.015625 -88.257812 37.90625 -80.34375 39.25 -72.15625 C 40.601562 -63.976562 42.3125 -56.066406 44.375 -48.421875 C 46.445312 -40.773438 48.804688 -33.867188 51.453125 -27.703125 C 54.097656 -21.546875 56.9375 -16.664062 59.96875 -13.0625 C 63 -9.457031 66.101562 -7.65625 69.28125 -7.65625 C 73.320312 -7.65625 76.546875 -9.457031 78.953125 -13.0625 C 81.359375 -16.664062 83.039062 -21.546875 84 -27.703125 C 84.957031 -33.867188 85.289062 -40.773438 85 -48.421875 C 84.71875 -56.066406 83.898438 -63.976562 82.546875 -72.15625 C 81.203125 -80.34375 79.398438 -88.257812 77.140625 -95.90625 C 74.878906 -103.550781 72.28125 -110.453125 69.34375 -116.609375 C 66.414062 -122.773438 63.21875 -127.660156 59.75 -131.265625 C 56.289062 -134.867188 52.632812 -136.671875 48.78125 -136.671875 Z M 48.78125 -136.671875 "/></g></g></g><g fill="#957669" fill-opacity="1"><g transform="translate(224.95281, 306.853144)"><g><path d="M 78.375 0 L 1.4375 0 C 3.363281 -1.925781 4.6875 -4.210938 5.40625 -6.859375 C 6.132812 -9.503906 6.5 -12.894531 6.5 -17.03125 L 6.5 -127.296875 C 6.5 -131.429688 6.132812 -134.820312 5.40625 -137.46875 C 4.6875 -140.113281 3.363281 -142.398438 1.4375 -144.328125 L 45.75 -144.328125 C 49.695312 -144.328125 52.753906 -143.648438 54.921875 -142.296875 C 57.085938 -140.953125 58.601562 -139.296875 59.46875 -137.328125 C 60.332031 -135.359375 60.765625 -133.410156 60.765625 -131.484375 C 60.765625 -127.921875 59.753906 -124.285156 57.734375 -120.578125 C 55.710938 -116.878906 53.113281 -113.082031 49.9375 -109.1875 C 46.757812 -105.289062 43.390625 -101.222656 39.828125 -96.984375 C 36.273438 -92.753906 32.910156 -88.328125 29.734375 -83.703125 C 26.554688 -79.085938 23.957031 -74.253906 21.9375 -69.203125 C 19.914062 -64.148438 18.90625 -58.832031 18.90625 -53.25 C 18.90625 -50.082031 19.410156 -46.5 20.421875 -42.5 C 21.429688 -38.507812 22.921875 -34.445312 24.890625 -30.3125 C 26.867188 -26.175781 29.347656 -22.347656 32.328125 -18.828125 C 35.304688 -15.316406 38.789062 -12.503906 42.78125 -10.390625 C 46.78125 -8.273438 51.234375 -7.21875 56.140625 -7.21875 C 59.222656 -7.21875 62.207031 -7.722656 65.09375 -8.734375 C 67.976562 -9.742188 70.359375 -11.257812 72.234375 -13.28125 C 74.109375 -15.300781 75.046875 -17.800781 75.046875 -20.78125 C 75.046875 -24.632812 74.226562 -27.929688 72.59375 -30.671875 C 70.957031 -33.410156 68.9375 -35.929688 66.53125 -38.234375 C 64.125 -40.546875 61.691406 -42.976562 59.234375 -45.53125 C 56.785156 -48.082031 54.742188 -51.066406 53.109375 -54.484375 C 51.472656 -57.898438 50.65625 -62.109375 50.65625 -67.109375 C 50.65625 -70.765625 51.546875 -74.179688 53.328125 -77.359375 C 55.109375 -80.535156 57.488281 -83.109375 60.46875 -85.078125 C 63.457031 -87.054688 66.78125 -88.046875 70.4375 -88.046875 C 72.738281 -88.046875 75.71875 -87.609375 79.375 -86.734375 C 83.03125 -85.867188 86.6875 -84.710938 90.34375 -83.265625 C 94 -81.828125 97.078125 -80.144531 99.578125 -78.21875 C 102.085938 -76.300781 103.34375 -74.28125 103.34375 -72.15625 C 103.34375 -69.375 102.570312 -67.164062 101.03125 -65.53125 C 99.488281 -63.894531 97.515625 -62.570312 95.109375 -61.5625 C 92.703125 -60.550781 90.175781 -59.632812 87.53125 -58.8125 C 84.882812 -58 82.359375 -57.132812 79.953125 -56.21875 C 77.546875 -55.300781 75.570312 -54.070312 74.03125 -52.53125 C 72.5 -50.988281 71.734375 -48.921875 71.734375 -46.328125 C 71.734375 -44.210938 72.523438 -42.382812 74.109375 -40.84375 C 75.703125 -39.300781 77.722656 -37.878906 80.171875 -36.578125 C 82.628906 -35.285156 85.25 -33.941406 88.03125 -32.546875 C 90.820312 -31.148438 93.445312 -29.535156 95.90625 -27.703125 C 98.363281 -25.878906 100.382812 -23.691406 101.96875 -21.140625 C 103.550781 -18.585938 104.34375 -15.484375 104.34375 -11.828125 C 104.34375 -8.554688 103.550781 -6.078125 101.96875 -4.390625 C 100.382812 -2.710938 98.289062 -1.582031 95.6875 -1 C 93.09375 -0.425781 90.28125 -0.113281 87.25 -0.0625 C 84.21875 -0.0195312 81.257812 0 78.375 0 Z M 78.375 0 "/></g></g></g><g fill="#957669" fill-opacity="1"><g transform="translate(325.111406, 306.853144)"><g><path d="M 78.375 0 L 1.4375 0 C 3.363281 -1.925781 4.6875 -4.210938 5.40625 -6.859375 C 6.132812 -9.503906 6.5 -12.894531 6.5 -17.03125 L 6.5 -127.296875 C 6.5 -131.429688 6.132812 -134.820312 5.40625 -137.46875 C 4.6875 -140.113281 3.363281 -142.398438 1.4375 -144.328125 L 45.75 -144.328125 C 49.695312 -144.328125 52.753906 -143.648438 54.921875 -142.296875 C 57.085938 -140.953125 58.601562 -139.296875 59.46875 -137.328125 C 60.332031 -135.359375 60.765625 -133.410156 60.765625 -131.484375 C 60.765625 -127.921875 59.753906 -124.285156 57.734375 -120.578125 C 55.710938 -116.878906 53.113281 -113.082031 49.9375 -109.1875 C 46.757812 -105.289062 43.390625 -101.222656 39.828125 -96.984375 C 36.273438 -92.753906 32.910156 -88.328125 29.734375 -83.703125 C 26.554688 -79.085938 23.957031 -74.253906 21.9375 -69.203125 C 19.914062 -64.148438 18.90625 -58.832031 18.90625 -53.25 C 18.90625 -50.082031 19.410156 -46.5 20.421875 -42.5 C 21.429688 -38.507812 22.921875 -34.445312 24.890625 -30.3125 C 26.867188 -26.175781 29.347656 -22.347656 32.328125 -18.828125 C 35.304688 -15.316406 38.789062 -12.503906 42.78125 -10.390625 C 46.78125 -8.273438 51.234375 -7.21875 56.140625 -7.21875 C 59.222656 -7.21875 62.207031 -7.722656 65.09375 -8.734375 C 67.976562 -9.742188 70.359375 -11.257812 72.234375 -13.28125 C 74.109375 -15.300781 75.046875 -17.800781 75.046875 -20.78125 C 75.046875 -24.632812 74.226562 -27.929688 72.59375 -30.671875 C 70.957031 -33.410156 68.9375 -35.929688 66.53125 -38.234375 C 64.125 -40.546875 61.691406 -42.976562 59.234375 -45.53125 C 56.785156 -48.082031 54.742188 -51.066406 53.109375 -54.484375 C 51.472656 -57.898438 50.65625 -62.109375 50.65625 -67.109375 C 50.65625 -70.765625 51.546875 -74.179688 53.328125 -77.359375 C 55.109375 -80.535156 57.488281 -83.109375 60.46875 -85.078125 C 63.457031 -87.054688 66.78125 -88.046875 70.4375 -88.046875 C 72.738281 -88.046875 75.71875 -87.609375 79.375 -86.734375 C 83.03125 -85.867188 86.6875 -84.710938 90.34375 -83.265625 C 94 -81.828125 97.078125 -80.144531 99.578125 -78.21875 C 102.085938 -76.300781 103.34375 -74.28125 103.34375 -72.15625 C 103.34375 -69.375 102.570312 -67.164062 101.03125 -65.53125 C 99.488281 -63.894531 97.515625 -62.570312 95.109375 -61.5625 C 92.703125 -60.550781 90.175781 -59.632812 87.53125 -58.8125 C 84.882812 -58 82.359375 -57.132812 79.953125 -56.21875 C 77.546875 -55.300781 75.570312 -54.070312 74.03125 -52.53125 C 72.5 -50.988281 71.734375 -48.921875 71.734375 -46.328125 C 71.734375 -44.210938 72.523438 -42.382812 74.109375 -40.84375 C 75.703125 -39.300781 77.722656 -37.878906 80.171875 -36.578125 C 82.628906 -35.285156 85.25 -33.941406 88.03125 -32.546875 C 90.820312 -31.148438 93.445312 -29.535156 95.90625 -27.703125 C 98.363281 -25.878906 100.382812 -23.691406 101.96875 -21.140625 C 103.550781 -18.585938 104.34375 -15.484375 104.34375 -11.828125 C 104.34375 -8.554688 103.550781 -6.078125 101.96875 -4.390625 C 100.382812 -2.710938 98.289062 -1.582031 95.6875 -1 C 93.09375 -0.425781 90.28125 -0.113281 87.25 -0.0625 C 84.21875 -0.0195312 81.257812 0 78.375 0 Z M 78.375 0 "/></g></g></g><g fill="#957669" fill-opacity="1"><g transform="translate(425.270002, 306.853144)"><g><path d="M 3.609375 -72.15625 C 3.609375 -83.320312 4.953125 -93.453125 7.640625 -102.546875 C 10.335938 -111.640625 14.1875 -119.476562 19.1875 -126.0625 C 24.195312 -132.65625 30.1875 -137.707031 37.15625 -141.21875 C 44.132812 -144.738281 51.90625 -146.5 60.46875 -146.5 C 68.9375 -146.5 76.660156 -144.738281 83.640625 -141.21875 C 90.617188 -137.707031 96.609375 -132.65625 101.609375 -126.0625 C 106.609375 -119.476562 110.453125 -111.640625 113.140625 -102.546875 C 115.835938 -93.453125 117.1875 -83.320312 117.1875 -72.15625 C 117.1875 -61 115.835938 -50.875 113.140625 -41.78125 C 110.453125 -32.6875 106.609375 -24.84375 101.609375 -18.25 C 96.609375 -11.664062 90.617188 -6.613281 83.640625 -3.09375 C 76.660156 0.414062 68.9375 2.171875 60.46875 2.171875 C 51.90625 2.171875 44.132812 0.414062 37.15625 -3.09375 C 30.1875 -6.613281 24.195312 -11.664062 19.1875 -18.25 C 14.1875 -24.84375 10.335938 -32.6875 7.640625 -41.78125 C 4.953125 -50.875 3.609375 -61 3.609375 -72.15625 Z M 48.78125 -136.671875 C 45.414062 -136.671875 42.769531 -134.867188 40.84375 -131.265625 C 38.914062 -127.660156 37.613281 -122.773438 36.9375 -116.609375 C 36.269531 -110.453125 36.148438 -103.550781 36.578125 -95.90625 C 37.015625 -88.257812 37.90625 -80.34375 39.25 -72.15625 C 40.601562 -63.976562 42.3125 -56.066406 44.375 -48.421875 C 46.445312 -40.773438 48.804688 -33.867188 51.453125 -27.703125 C 54.097656 -21.546875 56.9375 -16.664062 59.96875 -13.0625 C 63 -9.457031 66.101562 -7.65625 69.28125 -7.65625 C 73.320312 -7.65625 76.546875 -9.457031 78.953125 -13.0625 C 81.359375 -16.664062 83.039062 -21.546875 84 -27.703125 C 84.957031 -33.867188 85.289062 -40.773438 85 -48.421875 C 84.71875 -56.066406 83.898438 -63.976562 82.546875 -72.15625 C 81.203125 -80.34375 79.398438 -88.257812 77.140625 -95.90625 C 74.878906 -103.550781 72.28125 -110.453125 69.34375 -116.609375 C 66.414062 -122.773438 63.21875 -127.660156 59.75 -131.265625 C 56.289062 -134.867188 52.632812 -136.671875 48.78125 -136.671875 Z M 48.78125 -136.671875 "/></g></g></g><g fill="#957669" fill-opacity="1"><g transform="translate(540.43801, 306.853144)"><g><path d="M 12.703125 -116.328125 C 10.867188 -122.296875 9.035156 -127.851562 7.203125 -133 C 5.378906 -138.144531 2.976562 -141.921875 0 -144.328125 L 59.609375 -144.328125 C 57.972656 -142.492188 56.695312 -140.160156 55.78125 -137.328125 C 54.863281 -134.492188 54.40625 -131.582031 54.40625 -128.59375 C 54.40625 -126.769531 54.671875 -123.59375 55.203125 -119.0625 C 55.734375 -114.539062 56.503906 -109.203125 57.515625 -103.046875 C 58.523438 -96.890625 59.703125 -90.421875 61.046875 -83.640625 C 62.398438 -76.859375 63.867188 -70.191406 65.453125 -63.640625 C 67.035156 -57.097656 68.738281 -51.15625 70.5625 -45.8125 C 72.394531 -40.476562 74.273438 -36.222656 76.203125 -33.046875 C 78.128906 -29.867188 80.054688 -28.28125 81.984375 -28.28125 C 84.484375 -28.28125 86.597656 -29.578125 88.328125 -32.171875 C 90.054688 -34.773438 91.425781 -38.265625 92.4375 -42.640625 C 93.445312 -47.023438 94.191406 -51.863281 94.671875 -57.15625 C 95.160156 -62.445312 95.40625 -67.785156 95.40625 -73.171875 C 95.40625 -78.554688 95.234375 -83.609375 94.890625 -88.328125 C 94.554688 -93.046875 94.101562 -96.988281 93.53125 -100.15625 C 92.851562 -102.757812 92.128906 -105.40625 91.359375 -108.09375 C 90.585938 -110.789062 89.769531 -113.535156 88.90625 -116.328125 C 87.070312 -122.296875 85.238281 -127.851562 83.40625 -133 C 81.582031 -138.144531 79.179688 -141.921875 76.203125 -144.328125 L 135.8125 -144.328125 C 134.175781 -142.492188 132.898438 -140.160156 131.984375 -137.328125 C 131.066406 -134.492188 130.609375 -131.582031 130.609375 -128.59375 C 130.609375 -126.769531 130.875 -123.59375 131.40625 -119.0625 C 131.9375 -114.539062 132.707031 -109.203125 133.71875 -103.046875 C 134.726562 -96.890625 135.90625 -90.421875 137.25 -83.640625 C 138.601562 -76.859375 140.070312 -70.191406 141.65625 -63.640625 C 143.25 -57.097656 144.957031 -51.15625 146.78125 -45.8125 C 148.613281 -40.476562 150.488281 -36.222656 152.40625 -33.046875 C 154.332031 -29.867188 156.257812 -28.28125 158.1875 -28.28125 C 160.6875 -28.28125 162.65625 -29.335938 164.09375 -31.453125 C 165.539062 -33.578125 166.578125 -36.347656 167.203125 -39.765625 C 167.828125 -43.179688 168.140625 -46.8125 168.140625 -50.65625 C 168.140625 -56.425781 167.414062 -62.050781 165.96875 -67.53125 C 164.53125 -73.019531 162.753906 -78.363281 160.640625 -83.5625 C 158.523438 -88.757812 156.382812 -93.882812 154.21875 -98.9375 C 152.050781 -103.988281 150.242188 -109.015625 148.796875 -114.015625 C 147.359375 -119.023438 146.640625 -124.03125 146.640625 -129.03125 C 146.640625 -131.34375 146.925781 -133.675781 147.5 -136.03125 C 148.082031 -138.382812 149.140625 -140.351562 150.671875 -141.9375 C 152.210938 -143.53125 154.378906 -144.328125 157.171875 -144.328125 L 205.953125 -144.328125 C 202.972656 -141.921875 200.566406 -138.144531 198.734375 -133 C 196.910156 -127.851562 195.082031 -122.296875 193.25 -116.328125 C 190.363281 -106.515625 187.835938 -97.566406 185.671875 -89.484375 C 183.515625 -81.398438 181.59375 -73.53125 179.90625 -65.875 C 178.21875 -58.226562 176.578125 -50.269531 174.984375 -42 C 173.398438 -33.726562 171.695312 -24.585938 169.875 -14.578125 C 169.394531 -11.785156 169.414062 -9.039062 169.9375 -6.34375 C 170.46875 -3.65625 171.503906 -1.539062 173.046875 0 L 109.109375 0 C 110.742188 -1.539062 111.800781 -3.65625 112.28125 -6.34375 C 112.769531 -9.039062 112.769531 -11.785156 112.28125 -14.578125 C 110.644531 -23.910156 109.101562 -32.425781 107.65625 -40.125 C 106.21875 -47.820312 104.679688 -55.28125 103.046875 -62.5 C 101.410156 -55.28125 99.847656 -47.820312 98.359375 -40.125 C 96.867188 -32.425781 95.304688 -23.910156 93.671875 -14.578125 C 93.191406 -11.785156 93.210938 -9.039062 93.734375 -6.34375 C 94.265625 -3.65625 95.300781 -1.539062 96.84375 0 L 32.90625 0 C 34.539062 -1.539062 35.597656 -3.65625 36.078125 -6.34375 C 36.554688 -9.039062 36.554688 -11.785156 36.078125 -14.578125 C 34.253906 -24.585938 32.546875 -33.726562 30.953125 -42 C 29.367188 -50.269531 27.707031 -58.226562 25.96875 -65.875 C 24.238281 -73.53125 22.316406 -81.398438 20.203125 -89.484375 C 18.085938 -97.566406 15.585938 -106.515625 12.703125 -116.328125 Z M 12.703125 -116.328125 "/></g></g></g><g fill="#957669" fill-opacity="1"><g transform="translate(740.755537, 306.853144)"><g><path d="M 0 0 C 2.976562 -2.5 5.378906 -6.296875 7.203125 -11.390625 C 9.035156 -16.492188 10.867188 -22.03125 12.703125 -28 C 15.585938 -37.8125 18.113281 -46.757812 20.28125 -54.84375 C 22.445312 -62.925781 24.367188 -70.789062 26.046875 -78.4375 C 27.734375 -86.09375 29.367188 -94.054688 30.953125 -102.328125 C 32.546875 -110.597656 34.253906 -119.738281 36.078125 -129.75 C 36.554688 -132.539062 36.554688 -135.28125 36.078125 -137.96875 C 35.597656 -140.664062 34.539062 -142.785156 32.90625 -144.328125 L 96.84375 -144.328125 C 95.300781 -142.785156 94.265625 -140.664062 93.734375 -137.96875 C 93.210938 -135.28125 93.191406 -132.539062 93.671875 -129.75 C 95.492188 -119.738281 97.195312 -110.597656 98.78125 -102.328125 C 100.375 -94.054688 102.007812 -86.09375 103.6875 -78.4375 C 105.375 -70.789062 107.300781 -62.925781 109.46875 -54.84375 C 111.632812 -46.757812 114.160156 -37.8125 117.046875 -28 C 118.878906 -22.03125 120.707031 -16.492188 122.53125 -11.390625 C 124.363281 -6.296875 126.769531 -2.5 129.75 0 L 70.140625 0 C 71.773438 -1.925781 73.050781 -4.28125 73.96875 -7.0625 C 74.882812 -9.851562 75.34375 -12.742188 75.34375 -15.734375 C 75.34375 -18.140625 74.90625 -22.613281 74.03125 -29.15625 C 73.164062 -35.695312 72.015625 -43.054688 70.578125 -51.234375 L 49.359375 -51.234375 C 51.859375 -45.171875 54.140625 -39.15625 56.203125 -33.1875 C 58.273438 -27.226562 59.3125 -21.265625 59.3125 -15.296875 C 59.3125 -13.085938 59.023438 -10.78125 58.453125 -8.375 C 57.878906 -5.96875 56.84375 -3.96875 55.34375 -2.375 C 53.851562 -0.789062 51.664062 0 48.78125 0 Z M 46.625 -57.734375 L 69.28125 -57.734375 C 67.925781 -64.660156 66.429688 -71.5625 64.796875 -78.4375 C 63.160156 -85.320312 61.40625 -91.601562 59.53125 -97.28125 C 57.65625 -102.957031 55.726562 -107.503906 53.75 -110.921875 C 51.78125 -114.335938 49.785156 -116.046875 47.765625 -116.046875 C 45.265625 -116.046875 43.289062 -114.984375 41.84375 -112.859375 C 40.40625 -110.742188 39.375 -107.976562 38.75 -104.5625 C 38.125 -101.144531 37.8125 -97.515625 37.8125 -93.671875 C 37.8125 -87.316406 38.703125 -81.15625 40.484375 -75.1875 C 42.265625 -69.226562 44.3125 -63.410156 46.625 -57.734375 Z M 46.625 -57.734375 "/></g></g></g><g fill="#957669" fill-opacity="1"><g transform="translate(864.871394, 306.853144)"><g><path d="M 0 -144.328125 L 38.828125 -144.328125 C 43.441406 -144.328125 47.117188 -143.050781 49.859375 -140.5 C 52.609375 -137.945312 54.582031 -134.769531 55.78125 -130.96875 C 56.988281 -127.175781 57.59375 -123.351562 57.59375 -119.5 C 57.59375 -114.882812 56.914062 -110.769531 55.5625 -107.15625 C 54.21875 -103.550781 52.65625 -100.132812 50.875 -96.90625 C 49.09375 -93.6875 47.53125 -90.296875 46.1875 -86.734375 C 44.84375 -83.179688 44.171875 -79.09375 44.171875 -74.46875 C 44.171875 -70.914062 45.613281 -67.597656 48.5 -64.515625 C 51.382812 -61.429688 55.804688 -59.941406 61.765625 -60.046875 C 66.484375 -60.046875 70.285156 -60.835938 73.171875 -62.421875 C 76.054688 -64.003906 78.269531 -66 79.8125 -68.40625 C 81.351562 -70.8125 82.382812 -73.335938 82.90625 -75.984375 C 83.4375 -78.628906 83.703125 -81.109375 83.703125 -83.421875 C 83.703125 -87.171875 82.976562 -90.945312 81.53125 -94.75 C 80.09375 -98.550781 78.316406 -102.328125 76.203125 -106.078125 C 74.085938 -109.828125 71.96875 -113.484375 69.84375 -117.046875 C 67.726562 -120.609375 65.945312 -124 64.5 -127.21875 C 63.0625 -130.445312 62.34375 -133.40625 62.34375 -136.09375 C 62.34375 -138.3125 63.113281 -140.238281 64.65625 -141.875 C 66.195312 -143.507812 68.125 -144.328125 70.4375 -144.328125 L 104.0625 -144.328125 C 107.238281 -144.328125 109.644531 -143.171875 111.28125 -140.859375 C 112.914062 -138.554688 114.019531 -135.769531 114.59375 -132.5 C 115.175781 -129.226562 115.46875 -126.097656 115.46875 -123.109375 C 115.46875 -115.890625 114.40625 -109.203125 112.28125 -103.046875 C 110.164062 -96.890625 107.425781 -91.1875 104.0625 -85.9375 C 100.695312 -80.695312 97.132812 -75.816406 93.375 -71.296875 C 89.625 -66.773438 86.066406 -62.539062 82.703125 -58.59375 C 79.335938 -54.65625 76.59375 -50.953125 74.46875 -47.484375 C 72.351562 -44.015625 71.296875 -40.695312 71.296875 -37.53125 C 71.296875 -32.132812 72.015625 -27.679688 73.453125 -24.171875 C 74.898438 -20.660156 76.535156 -17.722656 78.359375 -15.359375 C 80.191406 -13.003906 81.828125 -10.960938 83.265625 -9.234375 C 84.710938 -7.503906 85.4375 -5.773438 85.4375 -4.046875 C 85.4375 -2.890625 84.882812 -1.925781 83.78125 -1.15625 C 82.675781 -0.382812 80.726562 0 77.9375 0 L 42.859375 0 C 40.835938 0 39.15625 -0.71875 37.8125 -2.15625 C 36.46875 -3.601562 35.484375 -5.410156 34.859375 -7.578125 C 34.234375 -9.742188 33.921875 -11.835938 33.921875 -13.859375 C 33.921875 -17.609375 35.023438 -21 37.234375 -24.03125 C 39.453125 -27.0625 42.195312 -29.828125 45.46875 -32.328125 C 48.738281 -34.828125 52.007812 -37.132812 55.28125 -39.25 C 58.550781 -41.375 61.289062 -43.347656 63.5 -45.171875 C 65.71875 -47.003906 66.828125 -48.785156 66.828125 -50.515625 C 66.828125 -51.960938 66.203125 -52.6875 64.953125 -52.6875 C 63.703125 -52.6875 62.5 -52.394531 61.34375 -51.8125 C 60.1875 -51.238281 58.644531 -50.640625 56.71875 -50.015625 C 54.789062 -49.390625 52.097656 -49.078125 48.640625 -49.078125 C 43.148438 -49.078125 38.648438 -50.035156 35.140625 -51.953125 C 31.628906 -53.878906 28.835938 -56.453125 26.765625 -59.671875 C 24.703125 -62.898438 23.164062 -66.460938 22.15625 -70.359375 C 21.144531 -74.253906 20.445312 -78.128906 20.0625 -81.984375 C 19.582031 -86.785156 19.03125 -92.097656 18.40625 -97.921875 C 17.78125 -103.742188 16.816406 -109.585938 15.515625 -115.453125 C 14.210938 -121.328125 12.332031 -126.789062 9.875 -131.84375 C 7.425781 -136.894531 4.132812 -141.054688 0 -144.328125 Z M 0 -144.328125 "/></g></g></g></g></g></g></g></g></g><g transform="matrix(1, 0, 0, 1, 25, 116)"><g clip-path="url(#1dc11bc2ef)"><g fill="#f8f0e3" fill-opacity="1"><g transform="translate(103.305841, 153.293752)"><g><path d="M 35.5 0 L 1.4375 0 C 3.363281 -1.925781 4.6875 -4.210938 5.40625 -6.859375 C 6.132812 -9.503906 6.5 -12.894531 6.5 -17.03125 L 6.5 -127.296875 C 6.5 -131.429688 6.132812 -134.820312 5.40625 -137.46875 C 4.6875 -140.113281 3.363281 -142.398438 1.4375 -144.328125 L 39.6875 -144.328125 C 41.519531 -144.328125 43.253906 -143.195312 44.890625 -140.9375 C 46.523438 -138.675781 47.34375 -136.296875 47.34375 -133.796875 C 47.34375 -129.460938 46.523438 -125.851562 44.890625 -122.96875 C 43.253906 -120.082031 41.160156 -117.703125 38.609375 -115.828125 C 36.054688 -113.953125 33.359375 -112.363281 30.515625 -111.0625 C 27.679688 -109.757812 24.988281 -108.503906 22.4375 -107.296875 C 19.894531 -106.097656 17.804688 -104.726562 16.171875 -103.1875 C 14.535156 -101.65625 13.71875 -99.6875 13.71875 -97.28125 C 13.71875 -96.601562 13.976562 -95.953125 14.5 -95.328125 C 15.03125 -94.703125 15.679688 -94.390625 16.453125 -94.390625 C 17.898438 -94.390625 19.535156 -94.894531 21.359375 -95.90625 C 23.191406 -96.914062 25.523438 -98.066406 28.359375 -99.359375 C 31.203125 -100.660156 34.90625 -101.816406 39.46875 -102.828125 C 44.039062 -103.835938 49.789062 -104.34375 56.71875 -104.34375 C 63.644531 -104.34375 69.414062 -103.835938 74.03125 -102.828125 C 78.65625 -101.816406 82.429688 -100.660156 85.359375 -99.359375 C 88.296875 -98.066406 90.726562 -96.914062 92.65625 -95.90625 C 94.582031 -94.894531 96.265625 -94.390625 97.703125 -94.390625 C 98.472656 -94.390625 99.125 -94.703125 99.65625 -95.328125 C 100.1875 -95.953125 100.453125 -96.601562 100.453125 -97.28125 C 100.453125 -99.6875 99.632812 -101.65625 98 -103.1875 C 96.363281 -104.726562 94.269531 -106.097656 91.71875 -107.296875 C 89.164062 -108.503906 86.46875 -109.757812 83.625 -111.0625 C 80.789062 -112.363281 78.097656 -113.953125 75.546875 -115.828125 C 73.003906 -117.703125 70.914062 -120.082031 69.28125 -122.96875 C 67.644531 -125.851562 66.828125 -129.460938 66.828125 -133.796875 C 66.828125 -136.296875 67.644531 -138.675781 69.28125 -140.9375 C 70.914062 -143.195312 72.644531 -144.328125 74.46875 -144.328125 L 112.71875 -144.328125 C 110.789062 -142.398438 109.46875 -140.113281 108.75 -137.46875 C 108.03125 -134.820312 107.671875 -131.429688 107.671875 -127.296875 L 107.671875 -17.03125 C 107.671875 -12.894531 108.03125 -9.503906 108.75 -6.859375 C 109.46875 -4.210938 110.789062 -1.925781 112.71875 0 L 78.65625 0 C 74.8125 0 71.78125 -0.671875 69.5625 -2.015625 C 67.351562 -3.367188 65.816406 -5.03125 64.953125 -7 C 64.085938 -8.96875 63.65625 -10.914062 63.65625 -12.84375 C 63.65625 -17.457031 64.539062 -21.878906 66.3125 -26.109375 C 68.09375 -30.347656 70.378906 -34.390625 73.171875 -38.234375 C 75.960938 -42.085938 78.921875 -45.742188 82.046875 -49.203125 C 85.171875 -52.671875 88.128906 -55.96875 90.921875 -59.09375 C 93.710938 -62.226562 96 -65.1875 97.78125 -67.96875 C 99.5625 -70.757812 100.453125 -73.410156 100.453125 -75.921875 C 100.453125 -77.554688 99.726562 -78.375 98.28125 -78.375 C 97.03125 -78.375 95.585938 -77.769531 93.953125 -76.5625 C 92.316406 -75.363281 90.03125 -73.992188 87.09375 -72.453125 C 84.164062 -70.910156 80.222656 -69.535156 75.265625 -68.328125 C 70.304688 -67.128906 63.929688 -66.53125 56.140625 -66.53125 C 48.347656 -66.53125 42.070312 -67.128906 37.3125 -68.328125 C 32.550781 -69.535156 28.820312 -70.910156 26.125 -72.453125 C 23.425781 -73.992188 21.351562 -75.363281 19.90625 -76.5625 C 18.46875 -77.769531 17.125 -78.375 15.875 -78.375 C 14.4375 -78.375 13.71875 -77.554688 13.71875 -75.921875 C 13.71875 -73.410156 14.601562 -70.757812 16.375 -67.96875 C 18.15625 -65.1875 20.441406 -62.226562 23.234375 -59.09375 C 26.023438 -55.96875 28.984375 -52.671875 32.109375 -49.203125 C 35.234375 -45.742188 38.191406 -42.085938 40.984375 -38.234375 C 43.773438 -34.390625 46.0625 -30.347656 47.84375 -26.109375 C 49.625 -21.878906 50.515625 -17.457031 50.515625 -12.84375 C 50.515625 -10.914062 50.082031 -8.96875 49.21875 -7 C 48.351562 -5.03125 46.835938 -3.367188 44.671875 -2.015625 C 42.503906 -0.671875 39.445312 0 35.5 0 Z M 35.5 0 "/></g></g></g><g fill="#f8f0e3" fill-opacity="1"><g transform="translate(211.835068, 153.293752)"><g><path d="M 0 0 C 2.976562 -2.5 5.378906 -6.296875 7.203125 -11.390625 C 9.035156 -16.492188 10.867188 -22.03125 12.703125 -28 C 15.585938 -37.8125 18.113281 -46.757812 20.28125 -54.84375 C 22.445312 -62.925781 24.367188 -70.789062 26.046875 -78.4375 C 27.734375 -86.09375 29.367188 -94.054688 30.953125 -102.328125 C 32.546875 -110.597656 34.253906 -119.738281 36.078125 -129.75 C 36.554688 -132.539062 36.554688 -135.28125 36.078125 -137.96875 C 35.597656 -140.664062 34.539062 -142.785156 32.90625 -144.328125 L 96.84375 -144.328125 C 95.300781 -142.785156 94.265625 -140.664062 93.734375 -137.96875 C 93.210938 -135.28125 93.191406 -132.539062 93.671875 -129.75 C 95.492188 -119.738281 97.195312 -110.597656 98.78125 -102.328125 C 100.375 -94.054688 102.007812 -86.09375 103.6875 -78.4375 C 105.375 -70.789062 107.300781 -62.925781 109.46875 -54.84375 C 111.632812 -46.757812 114.160156 -37.8125 117.046875 -28 C 118.878906 -22.03125 120.707031 -16.492188 122.53125 -11.390625 C 124.363281 -6.296875 126.769531 -2.5 129.75 0 L 70.140625 0 C 71.773438 -1.925781 73.050781 -4.28125 73.96875 -7.0625 C 74.882812 -9.851562 75.34375 -12.742188 75.34375 -15.734375 C 75.34375 -18.140625 74.90625 -22.613281 74.03125 -29.15625 C 73.164062 -35.695312 72.015625 -43.054688 70.578125 -51.234375 L 49.359375 -51.234375 C 51.859375 -45.171875 54.140625 -39.15625 56.203125 -33.1875 C 58.273438 -27.226562 59.3125 -21.265625 59.3125 -15.296875 C 59.3125 -13.085938 59.023438 -10.78125 58.453125 -8.375 C 57.878906 -5.96875 56.84375 -3.96875 55.34375 -2.375 C 53.851562 -0.789062 51.664062 0 48.78125 0 Z M 46.625 -57.734375 L 69.28125 -57.734375 C 67.925781 -64.660156 66.429688 -71.5625 64.796875 -78.4375 C 63.160156 -85.320312 61.40625 -91.601562 59.53125 -97.28125 C 57.65625 -102.957031 55.726562 -107.503906 53.75 -110.921875 C 51.78125 -114.335938 49.785156 -116.046875 47.765625 -116.046875 C 45.265625 -116.046875 43.289062 -114.984375 41.84375 -112.859375 C 40.40625 -110.742188 39.375 -107.976562 38.75 -104.5625 C 38.125 -101.144531 37.8125 -97.515625 37.8125 -93.671875 C 37.8125 -87.316406 38.703125 -81.15625 40.484375 -75.1875 C 42.265625 -69.226562 44.3125 -63.410156 46.625 -57.734375 Z M 46.625 -57.734375 "/></g></g></g><g fill="#f8f0e3" fill-opacity="1"><g transform="translate(335.950987, 153.293752)"><g><path d="M 1.4375 -144.328125 L 59.609375 -144.328125 C 71.347656 -144.328125 80.753906 -142.472656 87.828125 -138.765625 C 94.898438 -135.066406 100.046875 -130.066406 103.265625 -123.765625 C 106.492188 -117.460938 108.109375 -110.414062 108.109375 -102.625 C 108.109375 -97.039062 107.359375 -91.53125 105.859375 -86.09375 C 104.367188 -80.65625 101.988281 -75.742188 98.71875 -71.359375 C 95.445312 -66.984375 91.257812 -63.472656 86.15625 -60.828125 C 81.0625 -58.179688 74.90625 -56.859375 67.6875 -56.859375 C 62.207031 -56.859375 57.46875 -57.648438 53.46875 -59.234375 C 49.476562 -60.828125 46.039062 -62.800781 43.15625 -65.15625 C 40.269531 -67.519531 37.742188 -69.90625 35.578125 -72.3125 C 33.410156 -74.71875 31.484375 -76.710938 29.796875 -78.296875 C 28.117188 -79.878906 26.460938 -80.671875 24.828125 -80.671875 C 22.898438 -80.671875 21.597656 -80.191406 20.921875 -79.234375 C 20.253906 -78.273438 19.921875 -77.21875 19.921875 -76.0625 C 19.921875 -74.132812 20.929688 -72.207031 22.953125 -70.28125 C 24.972656 -68.363281 27.6875 -66.488281 31.09375 -64.65625 C 34.507812 -62.832031 38.285156 -61.078125 42.421875 -59.390625 C 46.566406 -57.703125 50.707031 -56.039062 54.84375 -54.40625 C 59.070312 -52.875 63.566406 -51.164062 68.328125 -49.28125 C 73.097656 -47.40625 77.742188 -45.3125 82.265625 -43 C 86.785156 -40.695312 90.875 -38.101562 94.53125 -35.21875 C 98.1875 -32.332031 101.117188 -29.0625 103.328125 -25.40625 C 105.546875 -21.75 106.65625 -17.660156 106.65625 -13.140625 C 106.65625 -8.515625 105.957031 -5.164062 104.5625 -3.09375 C 103.164062 -1.03125 100.691406 0 97.140625 0 L 65.953125 0 C 64.992188 0 64.054688 -0.238281 63.140625 -0.71875 C 62.222656 -1.195312 61.765625 -2.0625 61.765625 -3.3125 C 61.765625 -5.050781 61.984375 -6.566406 62.421875 -7.859375 C 62.859375 -9.160156 63.265625 -10.554688 63.640625 -12.046875 C 64.023438 -13.535156 64.21875 -15.484375 64.21875 -17.890625 C 64.21875 -21.066406 63.234375 -24.410156 61.265625 -27.921875 C 59.296875 -31.441406 56.695312 -34.90625 53.46875 -38.3125 C 50.25 -41.726562 46.757812 -44.953125 43 -47.984375 C 39.25 -51.015625 35.59375 -53.707031 32.03125 -56.0625 C 28.476562 -58.425781 25.304688 -60.28125 22.515625 -61.625 C 19.722656 -62.976562 17.75 -63.65625 16.59375 -63.65625 C 15.632812 -63.65625 14.960938 -63.269531 14.578125 -62.5 C 14.191406 -61.726562 14 -61.148438 14 -60.765625 C 14 -58.359375 14.9375 -56.191406 16.8125 -54.265625 C 18.6875 -52.335938 21.113281 -50.457031 24.09375 -48.625 C 27.082031 -46.800781 30.234375 -44.851562 33.546875 -42.78125 C 36.867188 -40.71875 40 -38.382812 42.9375 -35.78125 C 45.875 -33.1875 48.28125 -30.15625 50.15625 -26.6875 C 52.03125 -23.226562 52.96875 -19.191406 52.96875 -14.578125 C 52.96875 -12.648438 52.601562 -10.554688 51.875 -8.296875 C 51.15625 -6.035156 50.050781 -4.085938 48.5625 -2.453125 C 47.070312 -0.816406 45.125 0 42.71875 0 L 1.59375 0 C 3.507812 -1.925781 4.828125 -4.210938 5.546875 -6.859375 C 6.273438 -9.503906 6.640625 -12.894531 6.640625 -17.03125 L 6.640625 -41.703125 L 6.5 -72.15625 L 6.5 -127.296875 C 6.5 -131.429688 6.132812 -134.820312 5.40625 -137.46875 C 4.6875 -140.113281 3.363281 -142.398438 1.4375 -144.328125 Z M 51.234375 -114.15625 C 47.578125 -114.15625 43.582031 -114.007812 39.25 -113.71875 C 34.925781 -113.4375 30.835938 -112.835938 26.984375 -111.921875 C 23.140625 -111.015625 19.988281 -109.597656 17.53125 -107.671875 C 15.082031 -105.742188 13.859375 -103.144531 13.859375 -99.875 C 13.859375 -96.601562 15.15625 -94.03125 17.75 -92.15625 C 20.351562 -90.28125 23.796875 -88.859375 28.078125 -87.890625 C 32.359375 -86.929688 37.023438 -86.304688 42.078125 -86.015625 C 47.128906 -85.734375 52.15625 -85.59375 57.15625 -85.59375 C 62.15625 -85.59375 67.203125 -85.734375 72.296875 -86.015625 C 77.398438 -86.304688 82.09375 -86.929688 86.375 -87.890625 C 90.65625 -88.859375 94.09375 -90.28125 96.6875 -92.15625 C 99.289062 -94.03125 100.59375 -96.601562 100.59375 -99.875 C 100.59375 -102.46875 99.535156 -104.628906 97.421875 -106.359375 C 95.304688 -108.097656 92.488281 -109.492188 88.96875 -110.546875 C 85.457031 -111.609375 81.535156 -112.378906 77.203125 -112.859375 C 72.878906 -113.347656 68.457031 -113.6875 63.9375 -113.875 C 59.414062 -114.0625 55.179688 -114.15625 51.234375 -114.15625 Z M 51.234375 -114.15625 "/></g></g></g><g fill="#f8f0e3" fill-opacity="1"><g transform="translate(442.026738, 153.293752)"><g><path d="M 6.0625 -88.1875 C 5.101562 -88.1875 4.332031 -88.519531 3.75 -89.1875 C 3.175781 -89.863281 2.890625 -90.679688 2.890625 -91.640625 L 2.890625 -144.328125 L 115.03125 -144.328125 L 115.03125 -91.640625 C 115.03125 -90.679688 114.765625 -89.863281 114.234375 -89.1875 C 113.703125 -88.519531 112.910156 -88.1875 111.859375 -88.1875 C 110.703125 -88.1875 109.375 -89.363281 107.875 -91.71875 C 106.382812 -94.070312 104.796875 -97.101562 103.109375 -100.8125 C 101.429688 -104.519531 99.703125 -108.460938 97.921875 -112.640625 C 96.140625 -116.828125 94.359375 -120.773438 92.578125 -124.484375 C 90.804688 -128.191406 89.078125 -131.222656 87.390625 -133.578125 C 85.703125 -135.929688 84.09375 -137.109375 82.5625 -137.109375 C 80.4375 -137.109375 79.15625 -136.117188 78.71875 -134.140625 C 78.289062 -132.171875 78.078125 -130.082031 78.078125 -127.875 L 78.078125 -17.03125 C 78.078125 -12.894531 78.4375 -9.503906 79.15625 -6.859375 C 79.882812 -4.210938 81.210938 -1.925781 83.140625 0 L 34.78125 0 C 36.707031 -1.925781 38.03125 -4.210938 38.75 -6.859375 C 39.46875 -9.503906 39.828125 -12.894531 39.828125 -17.03125 L 39.828125 -127.875 C 39.828125 -130.082031 39.609375 -132.171875 39.171875 -134.140625 C 38.742188 -136.117188 37.472656 -137.109375 35.359375 -137.109375 C 33.816406 -137.109375 32.203125 -135.929688 30.515625 -133.578125 C 28.835938 -131.222656 27.109375 -128.191406 25.328125 -124.484375 C 23.546875 -120.773438 21.765625 -116.828125 19.984375 -112.640625 C 18.203125 -108.460938 16.46875 -104.519531 14.78125 -100.8125 C 13.101562 -97.101562 11.539062 -94.070312 10.09375 -91.71875 C 8.65625 -89.363281 7.3125 -88.1875 6.0625 -88.1875 Z M 6.0625 -88.1875 "/></g></g></g><g fill="#f8f0e3" fill-opacity="1"><g transform="translate(554.308329, 153.293752)"><g><path d="M 78.375 0 L 1.4375 0 C 3.363281 -1.925781 4.6875 -4.210938 5.40625 -6.859375 C 6.132812 -9.503906 6.5 -12.894531 6.5 -17.03125 L 6.5 -127.296875 C 6.5 -131.429688 6.132812 -134.820312 5.40625 -137.46875 C 4.6875 -140.113281 3.363281 -142.398438 1.4375 -144.328125 L 45.75 -144.328125 C 49.695312 -144.328125 52.753906 -143.648438 54.921875 -142.296875 C 57.085938 -140.953125 58.601562 -139.296875 59.46875 -137.328125 C 60.332031 -135.359375 60.765625 -133.410156 60.765625 -131.484375 C 60.765625 -127.921875 59.753906 -124.285156 57.734375 -120.578125 C 55.710938 -116.878906 53.113281 -113.082031 49.9375 -109.1875 C 46.757812 -105.289062 43.390625 -101.222656 39.828125 -96.984375 C 36.273438 -92.753906 32.910156 -88.328125 29.734375 -83.703125 C 26.554688 -79.085938 23.957031 -74.253906 21.9375 -69.203125 C 19.914062 -64.148438 18.90625 -58.832031 18.90625 -53.25 C 18.90625 -50.082031 19.410156 -46.5 20.421875 -42.5 C 21.429688 -38.507812 22.921875 -34.445312 24.890625 -30.3125 C 26.867188 -26.175781 29.347656 -22.347656 32.328125 -18.828125 C 35.304688 -15.316406 38.789062 -12.503906 42.78125 -10.390625 C 46.78125 -8.273438 51.234375 -7.21875 56.140625 -7.21875 C 59.222656 -7.21875 62.207031 -7.722656 65.09375 -8.734375 C 67.976562 -9.742188 70.359375 -11.257812 72.234375 -13.28125 C 74.109375 -15.300781 75.046875 -17.800781 75.046875 -20.78125 C 75.046875 -24.632812 74.226562 -27.929688 72.59375 -30.671875 C 70.957031 -33.410156 68.9375 -35.929688 66.53125 -38.234375 C 64.125 -40.546875 61.691406 -42.976562 59.234375 -45.53125 C 56.785156 -48.082031 54.742188 -51.066406 53.109375 -54.484375 C 51.472656 -57.898438 50.65625 -62.109375 50.65625 -67.109375 C 50.65625 -70.765625 51.546875 -74.179688 53.328125 -77.359375 C 55.109375 -80.535156 57.488281 -83.109375 60.46875 -85.078125 C 63.457031 -87.054688 66.78125 -88.046875 70.4375 -88.046875 C 72.738281 -88.046875 75.71875 -87.609375 79.375 -86.734375 C 83.03125 -85.867188 86.6875 -84.710938 90.34375 -83.265625 C 94 -81.828125 97.078125 -80.144531 99.578125 -78.21875 C 102.085938 -76.300781 103.34375 -74.28125 103.34375 -72.15625 C 103.34375 -69.375 102.570312 -67.164062 101.03125 -65.53125 C 99.488281 -63.894531 97.515625 -62.570312 95.109375 -61.5625 C 92.703125 -60.550781 90.175781 -59.632812 87.53125 -58.8125 C 84.882812 -58 82.359375 -57.132812 79.953125 -56.21875 C 77.546875 -55.300781 75.570312 -54.070312 74.03125 -52.53125 C 72.5 -50.988281 71.734375 -48.921875 71.734375 -46.328125 C 71.734375 -44.210938 72.523438 -42.382812 74.109375 -40.84375 C 75.703125 -39.300781 77.722656 -37.878906 80.171875 -36.578125 C 82.628906 -35.285156 85.25 -33.941406 88.03125 -32.546875 C 90.820312 -31.148438 93.445312 -29.535156 95.90625 -27.703125 C 98.363281 -25.878906 100.382812 -23.691406 101.96875 -21.140625 C 103.550781 -18.585938 104.34375 -15.484375 104.34375 -11.828125 C 104.34375 -8.554688 103.550781 -6.078125 101.96875 -4.390625 C 100.382812 -2.710938 98.289062 -1.582031 95.6875 -1 C 93.09375 -0.425781 90.28125 -0.113281 87.25 -0.0625 C 84.21875 -0.0195312 81.257812 0 78.375 0 Z M 78.375 0 "/></g></g></g><g fill="#f8f0e3" fill-opacity="1"><g transform="translate(654.466925, 153.293752)"><g><path d="M 3.609375 -72.15625 C 3.609375 -79.28125 4.28125 -86.398438 5.625 -93.515625 C 6.976562 -100.640625 9.046875 -107.375 11.828125 -113.71875 C 14.617188 -120.070312 18.082031 -125.703125 22.21875 -130.609375 C 26.363281 -135.523438 31.25 -139.398438 36.875 -142.234375 C 42.5 -145.078125 48.875 -146.5 56 -146.5 C 59.75 -146.5 63.332031 -146.015625 66.75 -145.046875 C 70.164062 -144.085938 73.675781 -143.125 77.28125 -142.15625 C 80.894531 -141.195312 84.863281 -140.71875 89.1875 -140.71875 C 92.5625 -140.71875 95.234375 -141.195312 97.203125 -142.15625 C 99.171875 -143.125 100.851562 -144.085938 102.25 -145.046875 C 103.644531 -146.015625 105.066406 -146.5 106.515625 -146.5 C 108.441406 -146.5 109.546875 -145.414062 109.828125 -143.25 C 110.117188 -141.082031 109.90625 -138.382812 109.1875 -135.15625 C 108.46875 -131.9375 107.429688 -128.738281 106.078125 -125.5625 C 105.117188 -123.351562 103.722656 -120.734375 101.890625 -117.703125 C 100.066406 -114.671875 97.804688 -112.046875 95.109375 -109.828125 C 92.421875 -107.617188 89.34375 -106.515625 85.875 -106.515625 C 80.769531 -106.515625 76.222656 -107.09375 72.234375 -108.25 C 68.242188 -109.40625 64.585938 -110.847656 61.265625 -112.578125 C 57.941406 -114.304688 54.765625 -116.035156 51.734375 -117.765625 C 48.703125 -119.503906 45.597656 -120.945312 42.421875 -122.09375 C 39.253906 -123.25 35.796875 -123.828125 32.046875 -123.828125 C 29.640625 -123.828125 27.664062 -123.175781 26.125 -121.875 C 24.582031 -120.582031 23.378906 -118.972656 22.515625 -117.046875 C 21.648438 -115.117188 21.046875 -113.191406 20.703125 -111.265625 C 20.367188 -109.347656 20.203125 -107.71875 20.203125 -106.375 C 20.203125 -105.695312 20.175781 -104.46875 20.125 -102.6875 C 20.082031 -100.90625 20.082031 -99.03125 20.125 -97.0625 C 20.175781 -95.09375 20.414062 -93.410156 20.84375 -92.015625 C 21.28125 -90.617188 21.984375 -89.921875 22.953125 -89.921875 C 24.390625 -89.921875 25.851562 -90.546875 27.34375 -91.796875 C 28.84375 -93.046875 30.84375 -94.296875 33.34375 -95.546875 C 35.84375 -96.796875 39.207031 -97.421875 43.4375 -97.421875 C 47 -97.421875 50.460938 -96.816406 53.828125 -95.609375 C 57.203125 -94.410156 60.472656 -93.039062 63.640625 -91.5 C 66.816406 -89.957031 69.921875 -88.585938 72.953125 -87.390625 C 75.984375 -86.191406 78.894531 -85.59375 81.6875 -85.59375 C 83.90625 -85.59375 85.640625 -86.070312 86.890625 -87.03125 C 88.140625 -87.988281 89.148438 -88.925781 89.921875 -89.84375 C 90.691406 -90.757812 91.457031 -91.21875 92.21875 -91.21875 C 93.375 -91.21875 94.265625 -90.421875 94.890625 -88.828125 C 95.515625 -87.242188 95.828125 -85.296875 95.828125 -82.984375 C 95.828125 -80.578125 95.367188 -77.976562 94.453125 -75.1875 C 93.546875 -72.40625 92.101562 -69.757812 90.125 -67.25 C 88.15625 -64.75 85.609375 -62.703125 82.484375 -61.109375 C 79.359375 -59.523438 75.582031 -58.734375 71.15625 -58.734375 C 66.914062 -58.734375 63.0625 -59.625 59.59375 -61.40625 C 56.132812 -63.1875 52.984375 -65.375 50.140625 -67.96875 C 47.304688 -70.570312 44.660156 -73.148438 42.203125 -75.703125 C 39.753906 -78.253906 37.375 -80.414062 35.0625 -82.1875 C 32.757812 -83.96875 30.40625 -84.859375 28 -84.859375 C 26.457031 -84.859375 25.445312 -84.378906 24.96875 -83.421875 C 24.488281 -82.460938 24.296875 -81.351562 24.390625 -80.09375 C 24.484375 -78.84375 24.675781 -77.738281 24.96875 -76.78125 C 27.851562 -67.925781 31.820312 -60.109375 36.875 -53.328125 C 41.925781 -46.546875 47.625 -41.226562 53.96875 -37.375 C 60.320312 -33.53125 66.820312 -31.609375 73.46875 -31.609375 C 78.5625 -31.609375 82.742188 -32.328125 86.015625 -33.765625 C 89.285156 -35.210938 91.957031 -36.992188 94.03125 -39.109375 C 96.101562 -41.222656 97.785156 -43.335938 99.078125 -45.453125 C 100.378906 -47.578125 101.582031 -49.359375 102.6875 -50.796875 C 103.789062 -52.242188 105.066406 -52.96875 106.515625 -52.96875 C 107.378906 -52.96875 108.195312 -52.507812 108.96875 -51.59375 C 109.738281 -50.675781 110.125 -48.535156 110.125 -45.171875 C 110.125 -40.265625 109.0625 -35.066406 106.9375 -29.578125 C 104.820312 -24.097656 101.71875 -18.953125 97.625 -14.140625 C 93.539062 -9.328125 88.515625 -5.40625 82.546875 -2.375 C 76.585938 0.65625 69.757812 2.171875 62.0625 2.171875 C 53.976562 2.171875 46.398438 0.628906 39.328125 -2.453125 C 32.253906 -5.535156 26.046875 -10.15625 20.703125 -16.3125 C 15.367188 -22.46875 11.1875 -30.210938 8.15625 -39.546875 C 5.125 -48.878906 3.609375 -59.75 3.609375 -72.15625 Z M 3.609375 -72.15625 "/></g></g></g><g fill="#f8f0e3" fill-opacity="1"><g transform="translate(761.841565, 153.293752)"><g><path d="M 0 -144.328125 L 38.828125 -144.328125 C 43.441406 -144.328125 47.117188 -143.050781 49.859375 -140.5 C 52.609375 -137.945312 54.582031 -134.769531 55.78125 -130.96875 C 56.988281 -127.175781 57.59375 -123.351562 57.59375 -119.5 C 57.59375 -114.882812 56.914062 -110.769531 55.5625 -107.15625 C 54.21875 -103.550781 52.65625 -100.132812 50.875 -96.90625 C 49.09375 -93.6875 47.53125 -90.296875 46.1875 -86.734375 C 44.84375 -83.179688 44.171875 -79.09375 44.171875 -74.46875 C 44.171875 -70.914062 45.613281 -67.597656 48.5 -64.515625 C 51.382812 -61.429688 55.804688 -59.941406 61.765625 -60.046875 C 66.484375 -60.046875 70.285156 -60.835938 73.171875 -62.421875 C 76.054688 -64.003906 78.269531 -66 79.8125 -68.40625 C 81.351562 -70.8125 82.382812 -73.335938 82.90625 -75.984375 C 83.4375 -78.628906 83.703125 -81.109375 83.703125 -83.421875 C 83.703125 -87.171875 82.976562 -90.945312 81.53125 -94.75 C 80.09375 -98.550781 78.316406 -102.328125 76.203125 -106.078125 C 74.085938 -109.828125 71.96875 -113.484375 69.84375 -117.046875 C 67.726562 -120.609375 65.945312 -124 64.5 -127.21875 C 63.0625 -130.445312 62.34375 -133.40625 62.34375 -136.09375 C 62.34375 -138.3125 63.113281 -140.238281 64.65625 -141.875 C 66.195312 -143.507812 68.125 -144.328125 70.4375 -144.328125 L 104.0625 -144.328125 C 107.238281 -144.328125 109.644531 -143.171875 111.28125 -140.859375 C 112.914062 -138.554688 114.019531 -135.769531 114.59375 -132.5 C 115.175781 -129.226562 115.46875 -126.097656 115.46875 -123.109375 C 115.46875 -115.890625 114.40625 -109.203125 112.28125 -103.046875 C 110.164062 -96.890625 107.425781 -91.1875 104.0625 -85.9375 C 100.695312 -80.695312 97.132812 -75.816406 93.375 -71.296875 C 89.625 -66.773438 86.066406 -62.539062 82.703125 -58.59375 C 79.335938 -54.65625 76.59375 -50.953125 74.46875 -47.484375 C 72.351562 -44.015625 71.296875 -40.695312 71.296875 -37.53125 C 71.296875 -32.132812 72.015625 -27.679688 73.453125 -24.171875 C 74.898438 -20.660156 76.535156 -17.722656 78.359375 -15.359375 C 80.191406 -13.003906 81.828125 -10.960938 83.265625 -9.234375 C 84.710938 -7.503906 85.4375 -5.773438 85.4375 -4.046875 C 85.4375 -2.890625 84.882812 -1.925781 83.78125 -1.15625 C 82.675781 -0.382812 80.726562 0 77.9375 0 L 42.859375 0 C 40.835938 0 39.15625 -0.71875 37.8125 -2.15625 C 36.46875 -3.601562 35.484375 -5.410156 34.859375 -7.578125 C 34.234375 -9.742188 33.921875 -11.835938 33.921875 -13.859375 C 33.921875 -17.609375 35.023438 -21 37.234375 -24.03125 C 39.453125 -27.0625 42.195312 -29.828125 45.46875 -32.328125 C 48.738281 -34.828125 52.007812 -37.132812 55.28125 -39.25 C 58.550781 -41.375 61.289062 -43.347656 63.5 -45.171875 C 65.71875 -47.003906 66.828125 -48.785156 66.828125 -50.515625 C 66.828125 -51.960938 66.203125 -52.6875 64.953125 -52.6875 C 63.703125 -52.6875 62.5 -52.394531 61.34375 -51.8125 C 60.1875 -51.238281 58.644531 -50.640625 56.71875 -50.015625 C 54.789062 -49.390625 52.097656 -49.078125 48.640625 -49.078125 C 43.148438 -49.078125 38.648438 -50.035156 35.140625 -51.953125 C 31.628906 -53.878906 28.835938 -56.453125 26.765625 -59.671875 C 24.703125 -62.898438 23.164062 -66.460938 22.15625 -70.359375 C 21.144531 -74.253906 20.445312 -78.128906 20.0625 -81.984375 C 19.582031 -86.785156 19.03125 -92.097656 18.40625 -97.921875 C 17.78125 -103.742188 16.816406 -109.585938 15.515625 -115.453125 C 14.210938 -121.328125 12.332031 -126.789062 9.875 -131.84375 C 7.425781 -136.894531 4.132812 -141.054688 0 -144.328125 Z M 0 -144.328125 "/></g></g></g><g fill="#f8f0e3" fill-opacity="1"><g transform="translate(0.770888, 307.488768)"><g><path d="M 35.5 0 L 1.4375 0 C 3.363281 -1.925781 4.6875 -4.210938 5.40625 -6.859375 C 6.132812 -9.503906 6.5 -12.894531 6.5 -17.03125 L 6.5 -127.296875 C 6.5 -131.429688 6.132812 -134.820312 5.40625 -137.46875 C 4.6875 -140.113281 3.363281 -142.398438 1.4375 -144.328125 L 39.6875 -144.328125 C 41.519531 -144.328125 43.253906 -143.195312 44.890625 -140.9375 C 46.523438 -138.675781 47.34375 -136.296875 47.34375 -133.796875 C 47.34375 -129.460938 46.523438 -125.851562 44.890625 -122.96875 C 43.253906 -120.082031 41.160156 -117.703125 38.609375 -115.828125 C 36.054688 -113.953125 33.359375 -112.363281 30.515625 -111.0625 C 27.679688 -109.757812 24.988281 -108.503906 22.4375 -107.296875 C 19.894531 -106.097656 17.804688 -104.726562 16.171875 -103.1875 C 14.535156 -101.65625 13.71875 -99.6875 13.71875 -97.28125 C 13.71875 -96.601562 13.976562 -95.953125 14.5 -95.328125 C 15.03125 -94.703125 15.679688 -94.390625 16.453125 -94.390625 C 17.898438 -94.390625 19.535156 -94.894531 21.359375 -95.90625 C 23.191406 -96.914062 25.523438 -98.066406 28.359375 -99.359375 C 31.203125 -100.660156 34.90625 -101.816406 39.46875 -102.828125 C 44.039062 -103.835938 49.789062 -104.34375 56.71875 -104.34375 C 63.644531 -104.34375 69.414062 -103.835938 74.03125 -102.828125 C 78.65625 -101.816406 82.429688 -100.660156 85.359375 -99.359375 C 88.296875 -98.066406 90.726562 -96.914062 92.65625 -95.90625 C 94.582031 -94.894531 96.265625 -94.390625 97.703125 -94.390625 C 98.472656 -94.390625 99.125 -94.703125 99.65625 -95.328125 C 100.1875 -95.953125 100.453125 -96.601562 100.453125 -97.28125 C 100.453125 -99.6875 99.632812 -101.65625 98 -103.1875 C 96.363281 -104.726562 94.269531 -106.097656 91.71875 -107.296875 C 89.164062 -108.503906 86.46875 -109.757812 83.625 -111.0625 C 80.789062 -112.363281 78.097656 -113.953125 75.546875 -115.828125 C 73.003906 -117.703125 70.914062 -120.082031 69.28125 -122.96875 C 67.644531 -125.851562 66.828125 -129.460938 66.828125 -133.796875 C 66.828125 -136.296875 67.644531 -138.675781 69.28125 -140.9375 C 70.914062 -143.195312 72.644531 -144.328125 74.46875 -144.328125 L 112.71875 -144.328125 C 110.789062 -142.398438 109.46875 -140.113281 108.75 -137.46875 C 108.03125 -134.820312 107.671875 -131.429688 107.671875 -127.296875 L 107.671875 -17.03125 C 107.671875 -12.894531 108.03125 -9.503906 108.75 -6.859375 C 109.46875 -4.210938 110.789062 -1.925781 112.71875 0 L 78.65625 0 C 74.8125 0 71.78125 -0.671875 69.5625 -2.015625 C 67.351562 -3.367188 65.816406 -5.03125 64.953125 -7 C 64.085938 -8.96875 63.65625 -10.914062 63.65625 -12.84375 C 63.65625 -17.457031 64.539062 -21.878906 66.3125 -26.109375 C 68.09375 -30.347656 70.378906 -34.390625 73.171875 -38.234375 C 75.960938 -42.085938 78.921875 -45.742188 82.046875 -49.203125 C 85.171875 -52.671875 88.128906 -55.96875 90.921875 -59.09375 C 93.710938 -62.226562 96 -65.1875 97.78125 -67.96875 C 99.5625 -70.757812 100.453125 -73.410156 100.453125 -75.921875 C 100.453125 -77.554688 99.726562 -78.375 98.28125 -78.375 C 97.03125 -78.375 95.585938 -77.769531 93.953125 -76.5625 C 92.316406 -75.363281 90.03125 -73.992188 87.09375 -72.453125 C 84.164062 -70.910156 80.222656 -69.535156 75.265625 -68.328125 C 70.304688 -67.128906 63.929688 -66.53125 56.140625 -66.53125 C 48.347656 -66.53125 42.070312 -67.128906 37.3125 -68.328125 C 32.550781 -69.535156 28.820312 -70.910156 26.125 -72.453125 C 23.425781 -73.992188 21.351562 -75.363281 19.90625 -76.5625 C 18.46875 -77.769531 17.125 -78.375 15.875 -78.375 C 14.4375 -78.375 13.71875 -77.554688 13.71875 -75.921875 C 13.71875 -73.410156 14.601562 -70.757812 16.375 -67.96875 C 18.15625 -65.1875 20.441406 -62.226562 23.234375 -59.09375 C 26.023438 -55.96875 28.984375 -52.671875 32.109375 -49.203125 C 35.234375 -45.742188 38.191406 -42.085938 40.984375 -38.234375 C 43.773438 -34.390625 46.0625 -30.347656 47.84375 -26.109375 C 49.625 -21.878906 50.515625 -17.457031 50.515625 -12.84375 C 50.515625 -10.914062 50.082031 -8.96875 49.21875 -7 C 48.351562 -5.03125 46.835938 -3.367188 44.671875 -2.015625 C 42.503906 -0.671875 39.445312 0 35.5 0 Z M 35.5 0 "/></g></g></g><g fill="#f8f0e3" fill-opacity="1"><g transform="translate(109.300115, 307.488768)"><g><path d="M 3.609375 -72.15625 C 3.609375 -83.320312 4.953125 -93.453125 7.640625 -102.546875 C 10.335938 -111.640625 14.1875 -119.476562 19.1875 -126.0625 C 24.195312 -132.65625 30.1875 -137.707031 37.15625 -141.21875 C 44.132812 -144.738281 51.90625 -146.5 60.46875 -146.5 C 68.9375 -146.5 76.660156 -144.738281 83.640625 -141.21875 C 90.617188 -137.707031 96.609375 -132.65625 101.609375 -126.0625 C 106.609375 -119.476562 110.453125 -111.640625 113.140625 -102.546875 C 115.835938 -93.453125 117.1875 -83.320312 117.1875 -72.15625 C 117.1875 -61 115.835938 -50.875 113.140625 -41.78125 C 110.453125 -32.6875 106.609375 -24.84375 101.609375 -18.25 C 96.609375 -11.664062 90.617188 -6.613281 83.640625 -3.09375 C 76.660156 0.414062 68.9375 2.171875 60.46875 2.171875 C 51.90625 2.171875 44.132812 0.414062 37.15625 -3.09375 C 30.1875 -6.613281 24.195312 -11.664062 19.1875 -18.25 C 14.1875 -24.84375 10.335938 -32.6875 7.640625 -41.78125 C 4.953125 -50.875 3.609375 -61 3.609375 -72.15625 Z M 48.78125 -136.671875 C 45.414062 -136.671875 42.769531 -134.867188 40.84375 -131.265625 C 38.914062 -127.660156 37.613281 -122.773438 36.9375 -116.609375 C 36.269531 -110.453125 36.148438 -103.550781 36.578125 -95.90625 C 37.015625 -88.257812 37.90625 -80.34375 39.25 -72.15625 C 40.601562 -63.976562 42.3125 -56.066406 44.375 -48.421875 C 46.445312 -40.773438 48.804688 -33.867188 51.453125 -27.703125 C 54.097656 -21.546875 56.9375 -16.664062 59.96875 -13.0625 C 63 -9.457031 66.101562 -7.65625 69.28125 -7.65625 C 73.320312 -7.65625 76.546875 -9.457031 78.953125 -13.0625 C 81.359375 -16.664062 83.039062 -21.546875 84 -27.703125 C 84.957031 -33.867188 85.289062 -40.773438 85 -48.421875 C 84.71875 -56.066406 83.898438 -63.976562 82.546875 -72.15625 C 81.203125 -80.34375 79.398438 -88.257812 77.140625 -95.90625 C 74.878906 -103.550781 72.28125 -110.453125 69.34375 -116.609375 C 66.414062 -122.773438 63.21875 -127.660156 59.75 -131.265625 C 56.289062 -134.867188 52.632812 -136.671875 48.78125 -136.671875 Z M 48.78125 -136.671875 "/></g></g></g><g fill="#f8f0e3" fill-opacity="1"><g transform="translate(224.468101, 307.488768)"><g><path d="M 78.375 0 L 1.4375 0 C 3.363281 -1.925781 4.6875 -4.210938 5.40625 -6.859375 C 6.132812 -9.503906 6.5 -12.894531 6.5 -17.03125 L 6.5 -127.296875 C 6.5 -131.429688 6.132812 -134.820312 5.40625 -137.46875 C 4.6875 -140.113281 3.363281 -142.398438 1.4375 -144.328125 L 45.75 -144.328125 C 49.695312 -144.328125 52.753906 -143.648438 54.921875 -142.296875 C 57.085938 -140.953125 58.601562 -139.296875 59.46875 -137.328125 C 60.332031 -135.359375 60.765625 -133.410156 60.765625 -131.484375 C 60.765625 -127.921875 59.753906 -124.285156 57.734375 -120.578125 C 55.710938 -116.878906 53.113281 -113.082031 49.9375 -109.1875 C 46.757812 -105.289062 43.390625 -101.222656 39.828125 -96.984375 C 36.273438 -92.753906 32.910156 -88.328125 29.734375 -83.703125 C 26.554688 -79.085938 23.957031 -74.253906 21.9375 -69.203125 C 19.914062 -64.148438 18.90625 -58.832031 18.90625 -53.25 C 18.90625 -50.082031 19.410156 -46.5 20.421875 -42.5 C 21.429688 -38.507812 22.921875 -34.445312 24.890625 -30.3125 C 26.867188 -26.175781 29.347656 -22.347656 32.328125 -18.828125 C 35.304688 -15.316406 38.789062 -12.503906 42.78125 -10.390625 C 46.78125 -8.273438 51.234375 -7.21875 56.140625 -7.21875 C 59.222656 -7.21875 62.207031 -7.722656 65.09375 -8.734375 C 67.976562 -9.742188 70.359375 -11.257812 72.234375 -13.28125 C 74.109375 -15.300781 75.046875 -17.800781 75.046875 -20.78125 C 75.046875 -24.632812 74.226562 -27.929688 72.59375 -30.671875 C 70.957031 -33.410156 68.9375 -35.929688 66.53125 -38.234375 C 64.125 -40.546875 61.691406 -42.976562 59.234375 -45.53125 C 56.785156 -48.082031 54.742188 -51.066406 53.109375 -54.484375 C 51.472656 -57.898438 50.65625 -62.109375 50.65625 -67.109375 C 50.65625 -70.765625 51.546875 -74.179688 53.328125 -77.359375 C 55.109375 -80.535156 57.488281 -83.109375 60.46875 -85.078125 C 63.457031 -87.054688 66.78125 -88.046875 70.4375 -88.046875 C 72.738281 -88.046875 75.71875 -87.609375 79.375 -86.734375 C 83.03125 -85.867188 86.6875 -84.710938 90.34375 -83.265625 C 94 -81.828125 97.078125 -80.144531 99.578125 -78.21875 C 102.085938 -76.300781 103.34375 -74.28125 103.34375 -72.15625 C 103.34375 -69.375 102.570312 -67.164062 101.03125 -65.53125 C 99.488281 -63.894531 97.515625 -62.570312 95.109375 -61.5625 C 92.703125 -60.550781 90.175781 -59.632812 87.53125 -58.8125 C 84.882812 -58 82.359375 -57.132812 79.953125 -56.21875 C 77.546875 -55.300781 75.570312 -54.070312 74.03125 -52.53125 C 72.5 -50.988281 71.734375 -48.921875 71.734375 -46.328125 C 71.734375 -44.210938 72.523438 -42.382812 74.109375 -40.84375 C 75.703125 -39.300781 77.722656 -37.878906 80.171875 -36.578125 C 82.628906 -35.285156 85.25 -33.941406 88.03125 -32.546875 C 90.820312 -31.148438 93.445312 -29.535156 95.90625 -27.703125 C 98.363281 -25.878906 100.382812 -23.691406 101.96875 -21.140625 C 103.550781 -18.585938 104.34375 -15.484375 104.34375 -11.828125 C 104.34375 -8.554688 103.550781 -6.078125 101.96875 -4.390625 C 100.382812 -2.710938 98.289062 -1.582031 95.6875 -1 C 93.09375 -0.425781 90.28125 -0.113281 87.25 -0.0625 C 84.21875 -0.0195312 81.257812 0 78.375 0 Z M 78.375 0 "/></g></g></g><g fill="#f8f0e3" fill-opacity="1"><g transform="translate(324.626697, 307.488768)"><g><path d="M 78.375 0 L 1.4375 0 C 3.363281 -1.925781 4.6875 -4.210938 5.40625 -6.859375 C 6.132812 -9.503906 6.5 -12.894531 6.5 -17.03125 L 6.5 -127.296875 C 6.5 -131.429688 6.132812 -134.820312 5.40625 -137.46875 C 4.6875 -140.113281 3.363281 -142.398438 1.4375 -144.328125 L 45.75 -144.328125 C 49.695312 -144.328125 52.753906 -143.648438 54.921875 -142.296875 C 57.085938 -140.953125 58.601562 -139.296875 59.46875 -137.328125 C 60.332031 -135.359375 60.765625 -133.410156 60.765625 -131.484375 C 60.765625 -127.921875 59.753906 -124.285156 57.734375 -120.578125 C 55.710938 -116.878906 53.113281 -113.082031 49.9375 -109.1875 C 46.757812 -105.289062 43.390625 -101.222656 39.828125 -96.984375 C 36.273438 -92.753906 32.910156 -88.328125 29.734375 -83.703125 C 26.554688 -79.085938 23.957031 -74.253906 21.9375 -69.203125 C 19.914062 -64.148438 18.90625 -58.832031 18.90625 -53.25 C 18.90625 -50.082031 19.410156 -46.5 20.421875 -42.5 C 21.429688 -38.507812 22.921875 -34.445312 24.890625 -30.3125 C 26.867188 -26.175781 29.347656 -22.347656 32.328125 -18.828125 C 35.304688 -15.316406 38.789062 -12.503906 42.78125 -10.390625 C 46.78125 -8.273438 51.234375 -7.21875 56.140625 -7.21875 C 59.222656 -7.21875 62.207031 -7.722656 65.09375 -8.734375 C 67.976562 -9.742188 70.359375 -11.257812 72.234375 -13.28125 C 74.109375 -15.300781 75.046875 -17.800781 75.046875 -20.78125 C 75.046875 -24.632812 74.226562 -27.929688 72.59375 -30.671875 C 70.957031 -33.410156 68.9375 -35.929688 66.53125 -38.234375 C 64.125 -40.546875 61.691406 -42.976562 59.234375 -45.53125 C 56.785156 -48.082031 54.742188 -51.066406 53.109375 -54.484375 C 51.472656 -57.898438 50.65625 -62.109375 50.65625 -67.109375 C 50.65625 -70.765625 51.546875 -74.179688 53.328125 -77.359375 C 55.109375 -80.535156 57.488281 -83.109375 60.46875 -85.078125 C 63.457031 -87.054688 66.78125 -88.046875 70.4375 -88.046875 C 72.738281 -88.046875 75.71875 -87.609375 79.375 -86.734375 C 83.03125 -85.867188 86.6875 -84.710938 90.34375 -83.265625 C 94 -81.828125 97.078125 -80.144531 99.578125 -78.21875 C 102.085938 -76.300781 103.34375 -74.28125 103.34375 -72.15625 C 103.34375 -69.375 102.570312 -67.164062 101.03125 -65.53125 C 99.488281 -63.894531 97.515625 -62.570312 95.109375 -61.5625 C 92.703125 -60.550781 90.175781 -59.632812 87.53125 -58.8125 C 84.882812 -58 82.359375 -57.132812 79.953125 -56.21875 C 77.546875 -55.300781 75.570312 -54.070312 74.03125 -52.53125 C 72.5 -50.988281 71.734375 -48.921875 71.734375 -46.328125 C 71.734375 -44.210938 72.523438 -42.382812 74.109375 -40.84375 C 75.703125 -39.300781 77.722656 -37.878906 80.171875 -36.578125 C 82.628906 -35.285156 85.25 -33.941406 88.03125 -32.546875 C 90.820312 -31.148438 93.445312 -29.535156 95.90625 -27.703125 C 98.363281 -25.878906 100.382812 -23.691406 101.96875 -21.140625 C 103.550781 -18.585938 104.34375 -15.484375 104.34375 -11.828125 C 104.34375 -8.554688 103.550781 -6.078125 101.96875 -4.390625 C 100.382812 -2.710938 98.289062 -1.582031 95.6875 -1 C 93.09375 -0.425781 90.28125 -0.113281 87.25 -0.0625 C 84.21875 -0.0195312 81.257812 0 78.375 0 Z M 78.375 0 "/></g></g></g><g fill="#f8f0e3" fill-opacity="1"><g transform="translate(424.785293, 307.488768)"><g><path d="M 3.609375 -72.15625 C 3.609375 -83.320312 4.953125 -93.453125 7.640625 -102.546875 C 10.335938 -111.640625 14.1875 -119.476562 19.1875 -126.0625 C 24.195312 -132.65625 30.1875 -137.707031 37.15625 -141.21875 C 44.132812 -144.738281 51.90625 -146.5 60.46875 -146.5 C 68.9375 -146.5 76.660156 -144.738281 83.640625 -141.21875 C 90.617188 -137.707031 96.609375 -132.65625 101.609375 -126.0625 C 106.609375 -119.476562 110.453125 -111.640625 113.140625 -102.546875 C 115.835938 -93.453125 117.1875 -83.320312 117.1875 -72.15625 C 117.1875 -61 115.835938 -50.875 113.140625 -41.78125 C 110.453125 -32.6875 106.609375 -24.84375 101.609375 -18.25 C 96.609375 -11.664062 90.617188 -6.613281 83.640625 -3.09375 C 76.660156 0.414062 68.9375 2.171875 60.46875 2.171875 C 51.90625 2.171875 44.132812 0.414062 37.15625 -3.09375 C 30.1875 -6.613281 24.195312 -11.664062 19.1875 -18.25 C 14.1875 -24.84375 10.335938 -32.6875 7.640625 -41.78125 C 4.953125 -50.875 3.609375 -61 3.609375 -72.15625 Z M 48.78125 -136.671875 C 45.414062 -136.671875 42.769531 -134.867188 40.84375 -131.265625 C 38.914062 -127.660156 37.613281 -122.773438 36.9375 -116.609375 C 36.269531 -110.453125 36.148438 -103.550781 36.578125 -95.90625 C 37.015625 -88.257812 37.90625 -80.34375 39.25 -72.15625 C 40.601562 -63.976562 42.3125 -56.066406 44.375 -48.421875 C 46.445312 -40.773438 48.804688 -33.867188 51.453125 -27.703125 C 54.097656 -21.546875 56.9375 -16.664062 59.96875 -13.0625 C 63 -9.457031 66.101562 -7.65625 69.28125 -7.65625 C 73.320312 -7.65625 76.546875 -9.457031 78.953125 -13.0625 C 81.359375 -16.664062 83.039062 -21.546875 84 -27.703125 C 84.957031 -33.867188 85.289062 -40.773438 85 -48.421875 C 84.71875 -56.066406 83.898438 -63.976562 82.546875 -72.15625 C 81.203125 -80.34375 79.398438 -88.257812 77.140625 -95.90625 C 74.878906 -103.550781 72.28125 -110.453125 69.34375 -116.609375 C 66.414062 -122.773438 63.21875 -127.660156 59.75 -131.265625 C 56.289062 -134.867188 52.632812 -136.671875 48.78125 -136.671875 Z M 48.78125 -136.671875 "/></g></g></g><g fill="#f8f0e3" fill-opacity="1"><g transform="translate(539.953301, 307.488768)"><g><path d="M 12.703125 -116.328125 C 10.867188 -122.296875 9.035156 -127.851562 7.203125 -133 C 5.378906 -138.144531 2.976562 -141.921875 0 -144.328125 L 59.609375 -144.328125 C 57.972656 -142.492188 56.695312 -140.160156 55.78125 -137.328125 C 54.863281 -134.492188 54.40625 -131.582031 54.40625 -128.59375 C 54.40625 -126.769531 54.671875 -123.59375 55.203125 -119.0625 C 55.734375 -114.539062 56.503906 -109.203125 57.515625 -103.046875 C 58.523438 -96.890625 59.703125 -90.421875 61.046875 -83.640625 C 62.398438 -76.859375 63.867188 -70.191406 65.453125 -63.640625 C 67.035156 -57.097656 68.738281 -51.15625 70.5625 -45.8125 C 72.394531 -40.476562 74.273438 -36.222656 76.203125 -33.046875 C 78.128906 -29.867188 80.054688 -28.28125 81.984375 -28.28125 C 84.484375 -28.28125 86.597656 -29.578125 88.328125 -32.171875 C 90.054688 -34.773438 91.425781 -38.265625 92.4375 -42.640625 C 93.445312 -47.023438 94.191406 -51.863281 94.671875 -57.15625 C 95.160156 -62.445312 95.40625 -67.785156 95.40625 -73.171875 C 95.40625 -78.554688 95.234375 -83.609375 94.890625 -88.328125 C 94.554688 -93.046875 94.101562 -96.988281 93.53125 -100.15625 C 92.851562 -102.757812 92.128906 -105.40625 91.359375 -108.09375 C 90.585938 -110.789062 89.769531 -113.535156 88.90625 -116.328125 C 87.070312 -122.296875 85.238281 -127.851562 83.40625 -133 C 81.582031 -138.144531 79.179688 -141.921875 76.203125 -144.328125 L 135.8125 -144.328125 C 134.175781 -142.492188 132.898438 -140.160156 131.984375 -137.328125 C 131.066406 -134.492188 130.609375 -131.582031 130.609375 -128.59375 C 130.609375 -126.769531 130.875 -123.59375 131.40625 -119.0625 C 131.9375 -114.539062 132.707031 -109.203125 133.71875 -103.046875 C 134.726562 -96.890625 135.90625 -90.421875 137.25 -83.640625 C 138.601562 -76.859375 140.070312 -70.191406 141.65625 -63.640625 C 143.25 -57.097656 144.957031 -51.15625 146.78125 -45.8125 C 148.613281 -40.476562 150.488281 -36.222656 152.40625 -33.046875 C 154.332031 -29.867188 156.257812 -28.28125 158.1875 -28.28125 C 160.6875 -28.28125 162.65625 -29.335938 164.09375 -31.453125 C 165.539062 -33.578125 166.578125 -36.347656 167.203125 -39.765625 C 167.828125 -43.179688 168.140625 -46.8125 168.140625 -50.65625 C 168.140625 -56.425781 167.414062 -62.050781 165.96875 -67.53125 C 164.53125 -73.019531 162.753906 -78.363281 160.640625 -83.5625 C 158.523438 -88.757812 156.382812 -93.882812 154.21875 -98.9375 C 152.050781 -103.988281 150.242188 -109.015625 148.796875 -114.015625 C 147.359375 -119.023438 146.640625 -124.03125 146.640625 -129.03125 C 146.640625 -131.34375 146.925781 -133.675781 147.5 -136.03125 C 148.082031 -138.382812 149.140625 -140.351562 150.671875 -141.9375 C 152.210938 -143.53125 154.378906 -144.328125 157.171875 -144.328125 L 205.953125 -144.328125 C 202.972656 -141.921875 200.566406 -138.144531 198.734375 -133 C 196.910156 -127.851562 195.082031 -122.296875 193.25 -116.328125 C 190.363281 -106.515625 187.835938 -97.566406 185.671875 -89.484375 C 183.515625 -81.398438 181.59375 -73.53125 179.90625 -65.875 C 178.21875 -58.226562 176.578125 -50.269531 174.984375 -42 C 173.398438 -33.726562 171.695312 -24.585938 169.875 -14.578125 C 169.394531 -11.785156 169.414062 -9.039062 169.9375 -6.34375 C 170.46875 -3.65625 171.503906 -1.539062 173.046875 0 L 109.109375 0 C 110.742188 -1.539062 111.800781 -3.65625 112.28125 -6.34375 C 112.769531 -9.039062 112.769531 -11.785156 112.28125 -14.578125 C 110.644531 -23.910156 109.101562 -32.425781 107.65625 -40.125 C 106.21875 -47.820312 104.679688 -55.28125 103.046875 -62.5 C 101.410156 -55.28125 99.847656 -47.820312 98.359375 -40.125 C 96.867188 -32.425781 95.304688 -23.910156 93.671875 -14.578125 C 93.191406 -11.785156 93.210938 -9.039062 93.734375 -6.34375 C 94.265625 -3.65625 95.300781 -1.539062 96.84375 0 L 32.90625 0 C 34.539062 -1.539062 35.597656 -3.65625 36.078125 -6.34375 C 36.554688 -9.039062 36.554688 -11.785156 36.078125 -14.578125 C 34.253906 -24.585938 32.546875 -33.726562 30.953125 -42 C 29.367188 -50.269531 27.707031 -58.226562 25.96875 -65.875 C 24.238281 -73.53125 22.316406 -81.398438 20.203125 -89.484375 C 18.085938 -97.566406 15.585938 -106.515625 12.703125 -116.328125 Z M 12.703125 -116.328125 "/></g></g></g><g fill="#f8f0e3" fill-opacity="1"><g transform="translate(740.270828, 307.488768)"><g><path d="M 0 0 C 2.976562 -2.5 5.378906 -6.296875 7.203125 -11.390625 C 9.035156 -16.492188 10.867188 -22.03125 12.703125 -28 C 15.585938 -37.8125 18.113281 -46.757812 20.28125 -54.84375 C 22.445312 -62.925781 24.367188 -70.789062 26.046875 -78.4375 C 27.734375 -86.09375 29.367188 -94.054688 30.953125 -102.328125 C 32.546875 -110.597656 34.253906 -119.738281 36.078125 -129.75 C 36.554688 -132.539062 36.554688 -135.28125 36.078125 -137.96875 C 35.597656 -140.664062 34.539062 -142.785156 32.90625 -144.328125 L 96.84375 -144.328125 C 95.300781 -142.785156 94.265625 -140.664062 93.734375 -137.96875 C 93.210938 -135.28125 93.191406 -132.539062 93.671875 -129.75 C 95.492188 -119.738281 97.195312 -110.597656 98.78125 -102.328125 C 100.375 -94.054688 102.007812 -86.09375 103.6875 -78.4375 C 105.375 -70.789062 107.300781 -62.925781 109.46875 -54.84375 C 111.632812 -46.757812 114.160156 -37.8125 117.046875 -28 C 118.878906 -22.03125 120.707031 -16.492188 122.53125 -11.390625 C 124.363281 -6.296875 126.769531 -2.5 129.75 0 L 70.140625 0 C 71.773438 -1.925781 73.050781 -4.28125 73.96875 -7.0625 C 74.882812 -9.851562 75.34375 -12.742188 75.34375 -15.734375 C 75.34375 -18.140625 74.90625 -22.613281 74.03125 -29.15625 C 73.164062 -35.695312 72.015625 -43.054688 70.578125 -51.234375 L 49.359375 -51.234375 C 51.859375 -45.171875 54.140625 -39.15625 56.203125 -33.1875 C 58.273438 -27.226562 59.3125 -21.265625 59.3125 -15.296875 C 59.3125 -13.085938 59.023438 -10.78125 58.453125 -8.375 C 57.878906 -5.96875 56.84375 -3.96875 55.34375 -2.375 C 53.851562 -0.789062 51.664062 0 48.78125 0 Z M 46.625 -57.734375 L 69.28125 -57.734375 C 67.925781 -64.660156 66.429688 -71.5625 64.796875 -78.4375 C 63.160156 -85.320312 61.40625 -91.601562 59.53125 -97.28125 C 57.65625 -102.957031 55.726562 -107.503906 53.75 -110.921875 C 51.78125 -114.335938 49.785156 -116.046875 47.765625 -116.046875 C 45.265625 -116.046875 43.289062 -114.984375 41.84375 -112.859375 C 40.40625 -110.742188 39.375 -107.976562 38.75 -104.5625 C 38.125 -101.144531 37.8125 -97.515625 37.8125 -93.671875 C 37.8125 -87.316406 38.703125 -81.15625 40.484375 -75.1875 C 42.265625 -69.226562 44.3125 -63.410156 46.625 -57.734375 Z M 46.625 -57.734375 "/></g></g></g><g fill="#f8f0e3" fill-opacity="1"><g transform="translate(864.386685, 307.488768)"><g><path d="M 0 -144.328125 L 38.828125 -144.328125 C 43.441406 -144.328125 47.117188 -143.050781 49.859375 -140.5 C 52.609375 -137.945312 54.582031 -134.769531 55.78125 -130.96875 C 56.988281 -127.175781 57.59375 -123.351562 57.59375 -119.5 C 57.59375 -114.882812 56.914062 -110.769531 55.5625 -107.15625 C 54.21875 -103.550781 52.65625 -100.132812 50.875 -96.90625 C 49.09375 -93.6875 47.53125 -90.296875 46.1875 -86.734375 C 44.84375 -83.179688 44.171875 -79.09375 44.171875 -74.46875 C 44.171875 -70.914062 45.613281 -67.597656 48.5 -64.515625 C 51.382812 -61.429688 55.804688 -59.941406 61.765625 -60.046875 C 66.484375 -60.046875 70.285156 -60.835938 73.171875 -62.421875 C 76.054688 -64.003906 78.269531 -66 79.8125 -68.40625 C 81.351562 -70.8125 82.382812 -73.335938 82.90625 -75.984375 C 83.4375 -78.628906 83.703125 -81.109375 83.703125 -83.421875 C 83.703125 -87.171875 82.976562 -90.945312 81.53125 -94.75 C 80.09375 -98.550781 78.316406 -102.328125 76.203125 -106.078125 C 74.085938 -109.828125 71.96875 -113.484375 69.84375 -117.046875 C 67.726562 -120.609375 65.945312 -124 64.5 -127.21875 C 63.0625 -130.445312 62.34375 -133.40625 62.34375 -136.09375 C 62.34375 -138.3125 63.113281 -140.238281 64.65625 -141.875 C 66.195312 -143.507812 68.125 -144.328125 70.4375 -144.328125 L 104.0625 -144.328125 C 107.238281 -144.328125 109.644531 -143.171875 111.28125 -140.859375 C 112.914062 -138.554688 114.019531 -135.769531 114.59375 -132.5 C 115.175781 -129.226562 115.46875 -126.097656 115.46875 -123.109375 C 115.46875 -115.890625 114.40625 -109.203125 112.28125 -103.046875 C 110.164062 -96.890625 107.425781 -91.1875 104.0625 -85.9375 C 100.695312 -80.695312 97.132812 -75.816406 93.375 -71.296875 C 89.625 -66.773438 86.066406 -62.539062 82.703125 -58.59375 C 79.335938 -54.65625 76.59375 -50.953125 74.46875 -47.484375 C 72.351562 -44.015625 71.296875 -40.695312 71.296875 -37.53125 C 71.296875 -32.132812 72.015625 -27.679688 73.453125 -24.171875 C 74.898438 -20.660156 76.535156 -17.722656 78.359375 -15.359375 C 80.191406 -13.003906 81.828125 -10.960938 83.265625 -9.234375 C 84.710938 -7.503906 85.4375 -5.773438 85.4375 -4.046875 C 85.4375 -2.890625 84.882812 -1.925781 83.78125 -1.15625 C 82.675781 -0.382812 80.726562 0 77.9375 0 L 42.859375 0 C 40.835938 0 39.15625 -0.71875 37.8125 -2.15625 C 36.46875 -3.601562 35.484375 -5.410156 34.859375 -7.578125 C 34.234375 -9.742188 33.921875 -11.835938 33.921875 -13.859375 C 33.921875 -17.609375 35.023438 -21 37.234375 -24.03125 C 39.453125 -27.0625 42.195312 -29.828125 45.46875 -32.328125 C 48.738281 -34.828125 52.007812 -37.132812 55.28125 -39.25 C 58.550781 -41.375 61.289062 -43.347656 63.5 -45.171875 C 65.71875 -47.003906 66.828125 -48.785156 66.828125 -50.515625 C 66.828125 -51.960938 66.203125 -52.6875 64.953125 -52.6875 C 63.703125 -52.6875 62.5 -52.394531 61.34375 -51.8125 C 60.1875 -51.238281 58.644531 -50.640625 56.71875 -50.015625 C 54.789062 -49.390625 52.097656 -49.078125 48.640625 -49.078125 C 43.148438 -49.078125 38.648438 -50.035156 35.140625 -51.953125 C 31.628906 -53.878906 28.835938 -56.453125 26.765625 -59.671875 C 24.703125 -62.898438 23.164062 -66.460938 22.15625 -70.359375 C 21.144531 -74.253906 20.445312 -78.128906 20.0625 -81.984375 C 19.582031 -86.785156 19.03125 -92.097656 18.40625 -97.921875 C 17.78125 -103.742188 16.816406 -109.585938 15.515625 -115.453125 C 14.210938 -121.328125 12.332031 -126.789062 9.875 -131.84375 C 7.425781 -136.894531 4.132812 -141.054688 0 -144.328125 Z M 0 -144.328125 "/></g></g></g></g></g></svg>