<svg xmlns="http://www.w3.org/2000/svg" xmlns:xlink="http://www.w3.org/1999/xlink" width="987" zoomAndPan="magnify" viewBox="0 0 740.25 311.25" height="415" preserveAspectRatio="xMidYMid meet" version="1.0"><defs><filter x="0%" y="0%" width="100%" height="100%" id="f2dfe9faf9"><feColorMatrix values="0 0 0 0 1 0 0 0 0 1 0 0 0 0 1 0 0 0 1 0" color-interpolation-filters="sRGB"/></filter><g/><mask id="a262de6a56"><g filter="url(#f2dfe9faf9)"><rect x="-74.025" width="888.3" fill="#000000" y="-31.125" height="373.499999" fill-opacity="0.3"/></g></mask><clipPath id="9dbc8b17ea"><rect x="0" width="620" y="0" height="228"/></clipPath></defs><g mask="url(#a262de6a56)"><g transform="matrix(1, 0, 0, 1, 57, 38)"><g clip-path="url(#9dbc8b17ea)"><g fill="#957669" fill-opacity="1"><g transform="translate(64.800298, 95.895913)"><g><path d="M 22.359375 0 L 0.90625 0 C 2.125 -1.207031 2.957031 -2.644531 3.40625 -4.3125 C 3.863281 -5.976562 4.09375 -8.117188 4.09375 -10.734375 L 4.09375 -80.1875 C 4.09375 -82.800781 3.863281 -84.941406 3.40625 -86.609375 C 2.957031 -88.273438 2.125 -89.710938 0.90625 -90.921875 L 25 -90.921875 C 26.15625 -90.921875 27.25 -90.207031 28.28125 -88.78125 C 29.3125 -87.363281 29.828125 -85.863281 29.828125 -84.28125 C 29.828125 -81.550781 29.3125 -79.273438 28.28125 -77.453125 C 27.25 -75.640625 25.925781 -74.140625 24.3125 -72.953125 C 22.707031 -71.773438 21.007812 -70.773438 19.21875 -69.953125 C 17.4375 -69.140625 15.742188 -68.351562 14.140625 -67.59375 C 12.535156 -66.84375 11.21875 -65.976562 10.1875 -65 C 9.15625 -64.03125 8.640625 -62.789062 8.640625 -61.28125 C 8.640625 -60.851562 8.804688 -60.441406 9.140625 -60.046875 C 9.472656 -59.660156 9.878906 -59.46875 10.359375 -59.46875 C 11.273438 -59.46875 12.304688 -59.785156 13.453125 -60.421875 C 14.609375 -61.054688 16.078125 -61.78125 17.859375 -62.59375 C 19.648438 -63.414062 21.984375 -64.144531 24.859375 -64.78125 C 27.742188 -65.414062 31.367188 -65.734375 35.734375 -65.734375 C 40.097656 -65.734375 43.734375 -65.414062 46.640625 -64.78125 C 49.546875 -64.144531 51.921875 -63.414062 53.765625 -62.59375 C 55.617188 -61.78125 57.148438 -61.054688 58.359375 -60.421875 C 59.578125 -59.785156 60.640625 -59.46875 61.546875 -59.46875 C 62.035156 -59.46875 62.445312 -59.660156 62.78125 -60.046875 C 63.113281 -60.441406 63.28125 -60.851562 63.28125 -61.28125 C 63.28125 -62.789062 62.765625 -64.03125 61.734375 -65 C 60.703125 -65.976562 59.382812 -66.84375 57.78125 -67.59375 C 56.175781 -68.351562 54.476562 -69.140625 52.6875 -69.953125 C 50.894531 -70.773438 49.195312 -71.773438 47.59375 -72.953125 C 45.988281 -74.140625 44.671875 -75.640625 43.640625 -77.453125 C 42.609375 -79.273438 42.09375 -81.550781 42.09375 -84.28125 C 42.09375 -85.863281 42.609375 -87.363281 43.640625 -88.78125 C 44.671875 -90.207031 45.765625 -90.921875 46.921875 -90.921875 L 71.015625 -90.921875 C 69.796875 -89.710938 68.957031 -88.273438 68.5 -86.609375 C 68.050781 -84.941406 67.828125 -82.800781 67.828125 -80.1875 L 67.828125 -10.734375 C 67.828125 -8.117188 68.050781 -5.976562 68.5 -4.3125 C 68.957031 -2.644531 69.796875 -1.207031 71.015625 0 L 49.546875 0 C 47.128906 0 45.222656 -0.421875 43.828125 -1.265625 C 42.429688 -2.117188 41.457031 -3.164062 40.90625 -4.40625 C 40.363281 -5.65625 40.09375 -6.882812 40.09375 -8.09375 C 40.09375 -11 40.648438 -13.785156 41.765625 -16.453125 C 42.890625 -19.117188 44.332031 -21.664062 46.09375 -24.09375 C 47.851562 -26.519531 49.71875 -28.820312 51.6875 -31 C 53.65625 -33.1875 55.519531 -35.265625 57.28125 -37.234375 C 59.039062 -39.203125 60.476562 -41.066406 61.59375 -42.828125 C 62.71875 -44.585938 63.28125 -46.253906 63.28125 -47.828125 C 63.28125 -48.859375 62.828125 -49.375 61.921875 -49.375 C 61.128906 -49.375 60.21875 -48.992188 59.1875 -48.234375 C 58.15625 -47.472656 56.710938 -46.609375 54.859375 -45.640625 C 53.015625 -44.671875 50.53125 -43.804688 47.40625 -43.046875 C 44.289062 -42.296875 40.28125 -41.921875 35.375 -41.921875 C 30.457031 -41.921875 26.5 -42.296875 23.5 -43.046875 C 20.5 -43.804688 18.148438 -44.671875 16.453125 -45.640625 C 14.753906 -46.609375 13.453125 -47.472656 12.546875 -48.234375 C 11.640625 -48.992188 10.789062 -49.375 10 -49.375 C 9.09375 -49.375 8.640625 -48.859375 8.640625 -47.828125 C 8.640625 -46.253906 9.195312 -44.585938 10.3125 -42.828125 C 11.4375 -41.066406 12.878906 -39.203125 14.640625 -37.234375 C 16.398438 -35.265625 18.265625 -33.1875 20.234375 -31 C 22.203125 -28.820312 24.0625 -26.519531 25.8125 -24.09375 C 27.570312 -21.664062 29.015625 -19.117188 30.140625 -16.453125 C 31.265625 -13.785156 31.828125 -11 31.828125 -8.09375 C 31.828125 -6.882812 31.550781 -5.65625 31 -4.40625 C 30.457031 -3.164062 29.503906 -2.117188 28.140625 -1.265625 C 26.773438 -0.421875 24.847656 0 22.359375 0 Z M 22.359375 0 "/></g></g></g><g fill="#957669" fill-opacity="1"><g transform="translate(133.17014, 95.895913)"><g><path d="M 0 0 C 1.875 -1.570312 3.390625 -3.960938 4.546875 -7.171875 C 5.703125 -10.390625 6.851562 -13.878906 8 -17.640625 C 9.820312 -23.816406 11.410156 -29.453125 12.765625 -34.546875 C 14.128906 -39.640625 15.34375 -44.59375 16.40625 -49.40625 C 17.46875 -54.226562 18.5 -59.242188 19.5 -64.453125 C 20.5 -69.671875 21.578125 -75.429688 22.734375 -81.734375 C 23.035156 -83.492188 23.035156 -85.222656 22.734375 -86.921875 C 22.429688 -88.617188 21.765625 -89.953125 20.734375 -90.921875 L 61.015625 -90.921875 C 60.035156 -89.953125 59.378906 -88.617188 59.046875 -86.921875 C 58.710938 -85.222656 58.703125 -83.492188 59.015625 -81.734375 C 60.160156 -75.429688 61.234375 -69.671875 62.234375 -64.453125 C 63.234375 -59.242188 64.265625 -54.226562 65.328125 -49.40625 C 66.390625 -44.59375 67.601562 -39.640625 68.96875 -34.546875 C 70.332031 -29.453125 71.921875 -23.816406 73.734375 -17.640625 C 74.890625 -13.878906 76.039062 -10.390625 77.1875 -7.171875 C 78.34375 -3.960938 79.859375 -1.570312 81.734375 0 L 44.1875 0 C 45.21875 -1.207031 46.019531 -2.691406 46.59375 -4.453125 C 47.175781 -6.210938 47.46875 -8.03125 47.46875 -9.90625 C 47.46875 -11.425781 47.191406 -14.242188 46.640625 -18.359375 C 46.097656 -22.484375 45.367188 -27.125 44.453125 -32.28125 L 31.09375 -32.28125 C 32.664062 -28.457031 34.101562 -24.664062 35.40625 -20.90625 C 36.71875 -17.15625 37.375 -13.398438 37.375 -9.640625 C 37.375 -8.242188 37.191406 -6.785156 36.828125 -5.265625 C 36.460938 -3.753906 35.804688 -2.5 34.859375 -1.5 C 33.921875 -0.5 32.546875 0 30.734375 0 Z M 29.375 -36.375 L 43.640625 -36.375 C 42.796875 -40.738281 41.859375 -45.085938 40.828125 -49.421875 C 39.796875 -53.753906 38.6875 -57.707031 37.5 -61.28125 C 36.320312 -64.851562 35.109375 -67.710938 33.859375 -69.859375 C 32.617188 -72.015625 31.363281 -73.09375 30.09375 -73.09375 C 28.519531 -73.09375 27.273438 -72.425781 26.359375 -71.09375 C 25.453125 -69.757812 24.800781 -68.015625 24.40625 -65.859375 C 24.019531 -63.710938 23.828125 -61.429688 23.828125 -59.015625 C 23.828125 -55.003906 24.382812 -51.117188 25.5 -47.359375 C 26.625 -43.609375 27.914062 -39.945312 29.375 -36.375 Z M 29.375 -36.375 "/></g></g></g><g fill="#957669" fill-opacity="1"><g transform="translate(211.359076, 95.895913)"><g><path d="M 0.90625 -90.921875 L 37.546875 -90.921875 C 44.941406 -90.921875 50.867188 -89.753906 55.328125 -87.421875 C 59.785156 -85.085938 63.023438 -81.9375 65.046875 -77.96875 C 67.078125 -74 68.09375 -69.554688 68.09375 -64.640625 C 68.09375 -61.128906 67.625 -57.660156 66.6875 -54.234375 C 65.75 -50.804688 64.25 -47.710938 62.1875 -44.953125 C 60.125 -42.203125 57.488281 -39.992188 54.28125 -38.328125 C 51.070312 -36.660156 47.191406 -35.828125 42.640625 -35.828125 C 39.179688 -35.828125 36.191406 -36.328125 33.671875 -37.328125 C 31.160156 -38.328125 28.992188 -39.566406 27.171875 -41.046875 C 25.359375 -42.535156 23.769531 -44.035156 22.40625 -45.546875 C 21.039062 -47.066406 19.828125 -48.328125 18.765625 -49.328125 C 17.710938 -50.328125 16.671875 -50.828125 15.640625 -50.828125 C 14.421875 -50.828125 13.597656 -50.519531 13.171875 -49.90625 C 12.753906 -49.300781 12.546875 -48.640625 12.546875 -47.921875 C 12.546875 -46.703125 13.179688 -45.484375 14.453125 -44.265625 C 15.722656 -43.054688 17.4375 -41.875 19.59375 -40.71875 C 21.75 -39.570312 24.128906 -38.46875 26.734375 -37.40625 C 29.335938 -36.351562 31.941406 -35.3125 34.546875 -34.28125 C 37.210938 -33.3125 40.046875 -32.234375 43.046875 -31.046875 C 46.046875 -29.867188 48.96875 -28.550781 51.8125 -27.09375 C 54.664062 -25.632812 57.242188 -23.992188 59.546875 -22.171875 C 61.859375 -20.359375 63.707031 -18.300781 65.09375 -16 C 66.488281 -13.695312 67.1875 -11.125 67.1875 -8.28125 C 67.1875 -5.363281 66.742188 -3.253906 65.859375 -1.953125 C 64.984375 -0.648438 63.425781 0 61.1875 0 L 41.546875 0 C 40.941406 0 40.351562 -0.148438 39.78125 -0.453125 C 39.207031 -0.753906 38.921875 -1.300781 38.921875 -2.09375 C 38.921875 -3.1875 39.054688 -4.140625 39.328125 -4.953125 C 39.597656 -5.773438 39.851562 -6.65625 40.09375 -7.59375 C 40.332031 -8.53125 40.453125 -9.757812 40.453125 -11.28125 C 40.453125 -13.28125 39.832031 -15.382812 38.59375 -17.59375 C 37.351562 -19.800781 35.71875 -21.984375 33.6875 -24.140625 C 31.65625 -26.296875 29.457031 -28.328125 27.09375 -30.234375 C 24.726562 -32.140625 22.425781 -33.832031 20.1875 -35.3125 C 17.945312 -36.800781 15.945312 -37.96875 14.1875 -38.8125 C 12.425781 -39.664062 11.179688 -40.09375 10.453125 -40.09375 C 9.847656 -40.09375 9.421875 -39.847656 9.171875 -39.359375 C 8.929688 -38.878906 8.8125 -38.519531 8.8125 -38.28125 C 8.8125 -36.757812 9.398438 -35.394531 10.578125 -34.1875 C 11.765625 -32.976562 13.296875 -31.796875 15.171875 -30.640625 C 17.054688 -29.484375 19.046875 -28.253906 21.140625 -26.953125 C 23.234375 -25.648438 25.203125 -24.179688 27.046875 -22.546875 C 28.898438 -20.910156 30.414062 -19 31.59375 -16.8125 C 32.78125 -14.632812 33.375 -12.09375 33.375 -9.1875 C 33.375 -7.96875 33.144531 -6.644531 32.6875 -5.21875 C 32.226562 -3.800781 31.53125 -2.578125 30.59375 -1.546875 C 29.65625 -0.515625 28.425781 0 26.90625 0 L 1 0 C 2.207031 -1.207031 3.039062 -2.644531 3.5 -4.3125 C 3.957031 -5.976562 4.1875 -8.117188 4.1875 -10.734375 L 4.1875 -26.28125 L 4.09375 -45.46875 L 4.09375 -80.1875 C 4.09375 -82.800781 3.863281 -84.941406 3.40625 -86.609375 C 2.957031 -88.273438 2.125 -89.710938 0.90625 -90.921875 Z M 32.28125 -71.921875 C 29.976562 -71.921875 27.460938 -71.828125 24.734375 -71.640625 C 22.003906 -71.460938 19.425781 -71.082031 17 -70.5 C 14.570312 -69.925781 12.585938 -69.035156 11.046875 -67.828125 C 9.503906 -66.617188 8.734375 -64.984375 8.734375 -62.921875 C 8.734375 -60.859375 9.550781 -59.234375 11.1875 -58.046875 C 12.820312 -56.867188 14.988281 -55.976562 17.6875 -55.375 C 20.382812 -54.769531 23.320312 -54.375 26.5 -54.1875 C 29.6875 -54.007812 32.851562 -53.921875 36 -53.921875 C 39.15625 -53.921875 42.335938 -54.007812 45.546875 -54.1875 C 48.765625 -54.375 51.722656 -54.769531 54.421875 -55.375 C 57.117188 -55.976562 59.285156 -56.867188 60.921875 -58.046875 C 62.554688 -59.234375 63.375 -60.859375 63.375 -62.921875 C 63.375 -64.554688 62.707031 -65.914062 61.375 -67 C 60.039062 -68.09375 58.265625 -68.972656 56.046875 -69.640625 C 53.835938 -70.304688 51.367188 -70.789062 48.640625 -71.09375 C 45.910156 -71.40625 43.117188 -71.617188 40.265625 -71.734375 C 37.421875 -71.859375 34.757812 -71.921875 32.28125 -71.921875 Z M 32.28125 -71.921875 "/></g></g></g><g fill="#957669" fill-opacity="1"><g transform="translate(278.183329, 95.895913)"><g><path d="M 3.8125 -55.546875 C 3.207031 -55.546875 2.722656 -55.757812 2.359375 -56.1875 C 1.992188 -56.613281 1.8125 -57.128906 1.8125 -57.734375 L 1.8125 -90.921875 L 72.46875 -90.921875 L 72.46875 -57.734375 C 72.46875 -57.128906 72.300781 -56.613281 71.96875 -56.1875 C 71.632812 -55.757812 71.132812 -55.546875 70.46875 -55.546875 C 69.738281 -55.546875 68.90625 -56.289062 67.96875 -57.78125 C 67.03125 -59.269531 66.03125 -61.179688 64.96875 -63.515625 C 63.90625 -65.847656 62.8125 -68.332031 61.6875 -70.96875 C 60.570312 -73.601562 59.453125 -76.085938 58.328125 -78.421875 C 57.203125 -80.753906 56.109375 -82.660156 55.046875 -84.140625 C 53.992188 -85.628906 52.976562 -86.375 52 -86.375 C 50.664062 -86.375 49.863281 -85.75 49.59375 -84.5 C 49.320312 -83.257812 49.1875 -81.945312 49.1875 -80.5625 L 49.1875 -10.734375 C 49.1875 -8.117188 49.410156 -5.976562 49.859375 -4.3125 C 50.316406 -2.644531 51.15625 -1.207031 52.375 0 L 21.90625 0 C 23.125 -1.207031 23.957031 -2.644531 24.40625 -4.3125 C 24.863281 -5.976562 25.09375 -8.117188 25.09375 -10.734375 L 25.09375 -80.5625 C 25.09375 -81.945312 24.957031 -83.257812 24.6875 -84.5 C 24.414062 -85.75 23.613281 -86.375 22.28125 -86.375 C 21.3125 -86.375 20.296875 -85.628906 19.234375 -84.140625 C 18.171875 -82.660156 17.078125 -80.753906 15.953125 -78.421875 C 14.835938 -76.085938 13.71875 -73.601562 12.59375 -70.96875 C 11.46875 -68.332031 10.375 -65.847656 9.3125 -63.515625 C 8.257812 -61.179688 7.273438 -59.269531 6.359375 -57.78125 C 5.453125 -56.289062 4.601562 -55.546875 3.8125 -55.546875 Z M 3.8125 -55.546875 "/></g></g></g><g fill="#957669" fill-opacity="1"><g transform="translate(348.916997, 95.895913)"><g><path d="M 49.375 0 L 0.90625 0 C 2.125 -1.207031 2.957031 -2.644531 3.40625 -4.3125 C 3.863281 -5.976562 4.09375 -8.117188 4.09375 -10.734375 L 4.09375 -80.1875 C 4.09375 -82.800781 3.863281 -84.941406 3.40625 -86.609375 C 2.957031 -88.273438 2.125 -89.710938 0.90625 -90.921875 L 28.828125 -90.921875 C 31.304688 -90.921875 33.226562 -90.492188 34.59375 -89.640625 C 35.957031 -88.796875 36.910156 -87.75 37.453125 -86.5 C 38.003906 -85.257812 38.28125 -84.035156 38.28125 -82.828125 C 38.28125 -80.585938 37.640625 -78.300781 36.359375 -75.96875 C 35.085938 -73.632812 33.453125 -71.238281 31.453125 -68.78125 C 29.453125 -66.320312 27.332031 -63.757812 25.09375 -61.09375 C 22.851562 -58.425781 20.734375 -55.640625 18.734375 -52.734375 C 16.734375 -49.828125 15.09375 -46.78125 13.8125 -43.59375 C 12.539062 -40.414062 11.90625 -37.066406 11.90625 -33.546875 C 11.90625 -31.546875 12.222656 -29.285156 12.859375 -26.765625 C 13.492188 -24.253906 14.429688 -21.695312 15.671875 -19.09375 C 16.921875 -16.488281 18.484375 -14.078125 20.359375 -11.859375 C 22.242188 -9.648438 24.441406 -7.878906 26.953125 -6.546875 C 29.472656 -5.210938 32.28125 -4.546875 35.375 -4.546875 C 37.3125 -4.546875 39.1875 -4.863281 41 -5.5 C 42.820312 -6.132812 44.320312 -7.085938 45.5 -8.359375 C 46.6875 -9.640625 47.28125 -11.21875 47.28125 -13.09375 C 47.28125 -15.519531 46.765625 -17.59375 45.734375 -19.3125 C 44.703125 -21.039062 43.425781 -22.632812 41.90625 -24.09375 C 40.394531 -25.550781 38.863281 -27.082031 37.3125 -28.6875 C 35.769531 -30.289062 34.484375 -32.164062 33.453125 -34.3125 C 32.421875 -36.46875 31.90625 -39.125 31.90625 -42.28125 C 31.90625 -44.582031 32.46875 -46.734375 33.59375 -48.734375 C 34.71875 -50.734375 36.21875 -52.351562 38.09375 -53.59375 C 39.976562 -54.84375 42.070312 -55.46875 44.375 -55.46875 C 45.820312 -55.46875 47.695312 -55.191406 50 -54.640625 C 52.3125 -54.097656 54.617188 -53.367188 56.921875 -52.453125 C 59.222656 -51.546875 61.160156 -50.488281 62.734375 -49.28125 C 64.304688 -48.070312 65.09375 -46.800781 65.09375 -45.46875 C 65.09375 -43.707031 64.609375 -42.3125 63.640625 -41.28125 C 62.671875 -40.25 61.425781 -39.414062 59.90625 -38.78125 C 58.394531 -38.144531 56.804688 -37.566406 55.140625 -37.046875 C 53.472656 -36.535156 51.878906 -35.988281 50.359375 -35.40625 C 48.847656 -34.832031 47.609375 -34.0625 46.640625 -33.09375 C 45.671875 -32.125 45.1875 -30.820312 45.1875 -29.1875 C 45.1875 -27.851562 45.6875 -26.703125 46.6875 -25.734375 C 47.6875 -24.765625 48.957031 -23.867188 50.5 -23.046875 C 52.050781 -22.234375 53.703125 -21.382812 55.453125 -20.5 C 57.210938 -19.625 58.863281 -18.609375 60.40625 -17.453125 C 61.957031 -16.304688 63.234375 -14.925781 64.234375 -13.3125 C 65.234375 -11.707031 65.734375 -9.753906 65.734375 -7.453125 C 65.734375 -5.390625 65.234375 -3.828125 64.234375 -2.765625 C 63.234375 -1.710938 61.914062 -1.003906 60.28125 -0.640625 C 58.644531 -0.273438 56.867188 -0.078125 54.953125 -0.046875 C 53.046875 -0.015625 51.1875 0 49.375 0 Z M 49.375 0 "/></g></g></g><g fill="#957669" fill-opacity="1"><g transform="translate(412.013634, 95.895913)"><g><path d="M 2.265625 -45.46875 C 2.265625 -49.945312 2.6875 -54.425781 3.53125 -58.90625 C 4.382812 -63.394531 5.691406 -67.640625 7.453125 -71.640625 C 9.210938 -75.640625 11.394531 -79.1875 14 -82.28125 C 16.601562 -85.375 19.675781 -87.8125 23.21875 -89.59375 C 26.769531 -91.382812 30.789062 -92.28125 35.28125 -92.28125 C 37.644531 -92.28125 39.898438 -91.976562 42.046875 -91.375 C 44.203125 -90.769531 46.414062 -90.164062 48.6875 -89.5625 C 50.957031 -88.957031 53.457031 -88.65625 56.1875 -88.65625 C 58.3125 -88.65625 59.992188 -88.957031 61.234375 -89.5625 C 62.472656 -90.164062 63.53125 -90.769531 64.40625 -91.375 C 65.289062 -91.976562 66.1875 -92.28125 67.09375 -92.28125 C 68.3125 -92.28125 69.007812 -91.597656 69.1875 -90.234375 C 69.375 -88.867188 69.238281 -87.171875 68.78125 -85.140625 C 68.320312 -83.117188 67.671875 -81.109375 66.828125 -79.109375 C 66.222656 -77.710938 65.34375 -76.054688 64.1875 -74.140625 C 63.039062 -72.234375 61.617188 -70.582031 59.921875 -69.1875 C 58.222656 -67.789062 56.28125 -67.09375 54.09375 -67.09375 C 50.882812 -67.09375 48.019531 -67.457031 45.5 -68.1875 C 42.988281 -68.914062 40.6875 -69.828125 38.59375 -70.921875 C 36.5 -72.015625 34.5 -73.101562 32.59375 -74.1875 C 30.6875 -75.28125 28.734375 -76.191406 26.734375 -76.921875 C 24.734375 -77.648438 22.550781 -78.015625 20.1875 -78.015625 C 18.664062 -78.015625 17.421875 -77.601562 16.453125 -76.78125 C 15.484375 -75.96875 14.722656 -74.953125 14.171875 -73.734375 C 13.628906 -72.523438 13.253906 -71.3125 13.046875 -70.09375 C 12.835938 -68.882812 12.734375 -67.859375 12.734375 -67.015625 C 12.734375 -66.585938 12.71875 -65.8125 12.6875 -64.6875 C 12.65625 -63.570312 12.65625 -62.390625 12.6875 -61.140625 C 12.71875 -59.898438 12.867188 -58.835938 13.140625 -57.953125 C 13.410156 -57.078125 13.847656 -56.640625 14.453125 -56.640625 C 15.367188 -56.640625 16.296875 -57.035156 17.234375 -57.828125 C 18.171875 -58.617188 19.425781 -59.40625 21 -60.1875 C 22.570312 -60.976562 24.695312 -61.375 27.375 -61.375 C 29.613281 -61.375 31.789062 -60.992188 33.90625 -60.234375 C 36.03125 -59.472656 38.09375 -58.609375 40.09375 -57.640625 C 42.09375 -56.671875 44.046875 -55.804688 45.953125 -55.046875 C 47.867188 -54.296875 49.707031 -53.921875 51.46875 -53.921875 C 52.851562 -53.921875 53.941406 -54.222656 54.734375 -54.828125 C 55.523438 -55.429688 56.160156 -56.019531 56.640625 -56.59375 C 57.128906 -57.175781 57.613281 -57.46875 58.09375 -57.46875 C 58.820312 -57.46875 59.382812 -56.96875 59.78125 -55.96875 C 60.175781 -54.96875 60.375 -53.738281 60.375 -52.28125 C 60.375 -50.757812 60.082031 -49.117188 59.5 -47.359375 C 58.925781 -45.609375 58.019531 -43.941406 56.78125 -42.359375 C 55.539062 -40.785156 53.929688 -39.5 51.953125 -38.5 C 49.984375 -37.5 47.609375 -37 44.828125 -37 C 42.160156 -37 39.734375 -37.5625 37.546875 -38.6875 C 35.367188 -39.8125 33.382812 -41.191406 31.59375 -42.828125 C 29.800781 -44.460938 28.132812 -46.082031 26.59375 -47.6875 C 25.050781 -49.289062 23.550781 -50.65625 22.09375 -51.78125 C 20.632812 -52.90625 19.148438 -53.46875 17.640625 -53.46875 C 16.671875 -53.46875 16.035156 -53.160156 15.734375 -52.546875 C 15.429688 -51.941406 15.304688 -51.242188 15.359375 -50.453125 C 15.421875 -49.671875 15.546875 -48.976562 15.734375 -48.375 C 17.546875 -42.789062 20.039062 -37.863281 23.21875 -33.59375 C 26.40625 -29.320312 30 -25.972656 34 -23.546875 C 38 -21.117188 42.09375 -19.90625 46.28125 -19.90625 C 49.488281 -19.90625 52.125 -20.359375 54.1875 -21.265625 C 56.25 -22.179688 57.929688 -23.304688 59.234375 -24.640625 C 60.535156 -25.972656 61.59375 -27.304688 62.40625 -28.640625 C 63.226562 -29.972656 63.988281 -31.09375 64.6875 -32 C 65.382812 -32.914062 66.1875 -33.375 67.09375 -33.375 C 67.644531 -33.375 68.160156 -33.082031 68.640625 -32.5 C 69.128906 -31.925781 69.375 -30.578125 69.375 -28.453125 C 69.375 -25.367188 68.707031 -22.097656 67.375 -18.640625 C 66.039062 -15.179688 64.082031 -11.9375 61.5 -8.90625 C 58.925781 -5.875 55.757812 -3.40625 52 -1.5 C 48.25 0.40625 43.945312 1.359375 39.09375 1.359375 C 34 1.359375 29.222656 0.390625 24.765625 -1.546875 C 20.316406 -3.484375 16.410156 -6.390625 13.046875 -10.265625 C 9.679688 -14.148438 7.039062 -19.03125 5.125 -24.90625 C 3.21875 -30.789062 2.265625 -37.644531 2.265625 -45.46875 Z M 2.265625 -45.46875 "/></g></g></g><g fill="#957669" fill-opacity="1"><g transform="translate(479.656126, 95.895913)"><g><path d="M 0 -90.921875 L 24.453125 -90.921875 C 27.367188 -90.921875 29.6875 -90.117188 31.40625 -88.515625 C 33.132812 -86.910156 34.378906 -84.910156 35.140625 -82.515625 C 35.898438 -80.117188 36.28125 -77.707031 36.28125 -75.28125 C 36.28125 -72.375 35.851562 -69.78125 35 -67.5 C 34.15625 -65.226562 33.171875 -63.078125 32.046875 -61.046875 C 30.929688 -59.023438 29.945312 -56.890625 29.09375 -54.640625 C 28.25 -52.398438 27.828125 -49.828125 27.828125 -46.921875 C 27.828125 -44.671875 28.734375 -42.578125 30.546875 -40.640625 C 32.367188 -38.703125 35.160156 -37.765625 38.921875 -37.828125 C 41.890625 -37.828125 44.28125 -38.328125 46.09375 -39.328125 C 47.914062 -40.328125 49.3125 -41.582031 50.28125 -43.09375 C 51.25 -44.613281 51.898438 -46.207031 52.234375 -47.875 C 52.566406 -49.539062 52.734375 -51.097656 52.734375 -52.546875 C 52.734375 -54.910156 52.273438 -57.289062 51.359375 -59.6875 C 50.453125 -62.082031 49.332031 -64.460938 48 -66.828125 C 46.664062 -69.191406 45.332031 -71.492188 44 -73.734375 C 42.664062 -75.984375 41.546875 -78.117188 40.640625 -80.140625 C 39.734375 -82.171875 39.28125 -84.035156 39.28125 -85.734375 C 39.28125 -87.128906 39.765625 -88.34375 40.734375 -89.375 C 41.703125 -90.40625 42.914062 -90.921875 44.375 -90.921875 L 65.546875 -90.921875 C 67.554688 -90.921875 69.070312 -90.191406 70.09375 -88.734375 C 71.125 -87.285156 71.820312 -85.53125 72.1875 -83.46875 C 72.550781 -81.40625 72.734375 -79.4375 72.734375 -77.5625 C 72.734375 -73.007812 72.066406 -68.789062 70.734375 -64.90625 C 69.398438 -61.03125 67.671875 -57.441406 65.546875 -54.140625 C 63.429688 -50.835938 61.191406 -47.757812 58.828125 -44.90625 C 56.460938 -42.0625 54.21875 -39.394531 52.09375 -36.90625 C 49.976562 -34.425781 48.253906 -32.09375 46.921875 -29.90625 C 45.585938 -27.726562 44.921875 -25.640625 44.921875 -23.640625 C 44.921875 -20.242188 45.375 -17.4375 46.28125 -15.21875 C 47.1875 -13.007812 48.210938 -11.160156 49.359375 -9.671875 C 50.515625 -8.191406 51.546875 -6.90625 52.453125 -5.8125 C 53.367188 -4.726562 53.828125 -3.640625 53.828125 -2.546875 C 53.828125 -1.816406 53.476562 -1.207031 52.78125 -0.71875 C 52.082031 -0.238281 50.851562 0 49.09375 0 L 27 0 C 25.726562 0 24.664062 -0.453125 23.8125 -1.359375 C 22.96875 -2.273438 22.347656 -3.410156 21.953125 -4.765625 C 21.554688 -6.128906 21.359375 -7.453125 21.359375 -8.734375 C 21.359375 -11.097656 22.054688 -13.234375 23.453125 -15.140625 C 24.847656 -17.046875 26.578125 -18.785156 28.640625 -20.359375 C 30.703125 -21.941406 32.765625 -23.398438 34.828125 -24.734375 C 36.890625 -26.066406 38.613281 -27.304688 40 -28.453125 C 41.394531 -29.609375 42.09375 -30.734375 42.09375 -31.828125 C 42.09375 -32.734375 41.703125 -33.1875 40.921875 -33.1875 C 40.128906 -33.1875 39.367188 -33.003906 38.640625 -32.640625 C 37.910156 -32.273438 36.9375 -31.894531 35.71875 -31.5 C 34.507812 -31.101562 32.816406 -30.90625 30.640625 -30.90625 C 27.179688 -30.90625 24.347656 -31.507812 22.140625 -32.71875 C 19.929688 -33.9375 18.171875 -35.5625 16.859375 -37.59375 C 15.554688 -39.625 14.585938 -41.863281 13.953125 -44.3125 C 13.316406 -46.769531 12.878906 -49.210938 12.640625 -51.640625 C 12.335938 -54.671875 11.988281 -58.019531 11.59375 -61.6875 C 11.195312 -65.351562 10.585938 -69.035156 9.765625 -72.734375 C 8.953125 -76.429688 7.769531 -79.867188 6.21875 -83.046875 C 4.675781 -86.234375 2.601562 -88.859375 0 -90.921875 Z M 0 -90.921875 "/></g></g></g><g fill="#957669" fill-opacity="1"><g transform="translate(0.209847, 197.650717)"><g><path d="M 22.359375 0 L 0.90625 0 C 2.125 -1.207031 2.957031 -2.644531 3.40625 -4.3125 C 3.863281 -5.976562 4.09375 -8.117188 4.09375 -10.734375 L 4.09375 -80.1875 C 4.09375 -82.800781 3.863281 -84.941406 3.40625 -86.609375 C 2.957031 -88.273438 2.125 -89.710938 0.90625 -90.921875 L 25 -90.921875 C 26.15625 -90.921875 27.25 -90.207031 28.28125 -88.78125 C 29.3125 -87.363281 29.828125 -85.863281 29.828125 -84.28125 C 29.828125 -81.550781 29.3125 -79.273438 28.28125 -77.453125 C 27.25 -75.640625 25.925781 -74.140625 24.3125 -72.953125 C 22.707031 -71.773438 21.007812 -70.773438 19.21875 -69.953125 C 17.4375 -69.140625 15.742188 -68.351562 14.140625 -67.59375 C 12.535156 -66.84375 11.21875 -65.976562 10.1875 -65 C 9.15625 -64.03125 8.640625 -62.789062 8.640625 -61.28125 C 8.640625 -60.851562 8.804688 -60.441406 9.140625 -60.046875 C 9.472656 -59.660156 9.878906 -59.46875 10.359375 -59.46875 C 11.273438 -59.46875 12.304688 -59.785156 13.453125 -60.421875 C 14.609375 -61.054688 16.078125 -61.78125 17.859375 -62.59375 C 19.648438 -63.414062 21.984375 -64.144531 24.859375 -64.78125 C 27.742188 -65.414062 31.367188 -65.734375 35.734375 -65.734375 C 40.097656 -65.734375 43.734375 -65.414062 46.640625 -64.78125 C 49.546875 -64.144531 51.921875 -63.414062 53.765625 -62.59375 C 55.617188 -61.78125 57.148438 -61.054688 58.359375 -60.421875 C 59.578125 -59.785156 60.640625 -59.46875 61.546875 -59.46875 C 62.035156 -59.46875 62.445312 -59.660156 62.78125 -60.046875 C 63.113281 -60.441406 63.28125 -60.851562 63.28125 -61.28125 C 63.28125 -62.789062 62.765625 -64.03125 61.734375 -65 C 60.703125 -65.976562 59.382812 -66.84375 57.78125 -67.59375 C 56.175781 -68.351562 54.476562 -69.140625 52.6875 -69.953125 C 50.894531 -70.773438 49.195312 -71.773438 47.59375 -72.953125 C 45.988281 -74.140625 44.671875 -75.640625 43.640625 -77.453125 C 42.609375 -79.273438 42.09375 -81.550781 42.09375 -84.28125 C 42.09375 -85.863281 42.609375 -87.363281 43.640625 -88.78125 C 44.671875 -90.207031 45.765625 -90.921875 46.921875 -90.921875 L 71.015625 -90.921875 C 69.796875 -89.710938 68.957031 -88.273438 68.5 -86.609375 C 68.050781 -84.941406 67.828125 -82.800781 67.828125 -80.1875 L 67.828125 -10.734375 C 67.828125 -8.117188 68.050781 -5.976562 68.5 -4.3125 C 68.957031 -2.644531 69.796875 -1.207031 71.015625 0 L 49.546875 0 C 47.128906 0 45.222656 -0.421875 43.828125 -1.265625 C 42.429688 -2.117188 41.457031 -3.164062 40.90625 -4.40625 C 40.363281 -5.65625 40.09375 -6.882812 40.09375 -8.09375 C 40.09375 -11 40.648438 -13.785156 41.765625 -16.453125 C 42.890625 -19.117188 44.332031 -21.664062 46.09375 -24.09375 C 47.851562 -26.519531 49.71875 -28.820312 51.6875 -31 C 53.65625 -33.1875 55.519531 -35.265625 57.28125 -37.234375 C 59.039062 -39.203125 60.476562 -41.066406 61.59375 -42.828125 C 62.71875 -44.585938 63.28125 -46.253906 63.28125 -47.828125 C 63.28125 -48.859375 62.828125 -49.375 61.921875 -49.375 C 61.128906 -49.375 60.21875 -48.992188 59.1875 -48.234375 C 58.15625 -47.472656 56.710938 -46.609375 54.859375 -45.640625 C 53.015625 -44.671875 50.53125 -43.804688 47.40625 -43.046875 C 44.289062 -42.296875 40.28125 -41.921875 35.375 -41.921875 C 30.457031 -41.921875 26.5 -42.296875 23.5 -43.046875 C 20.5 -43.804688 18.148438 -44.671875 16.453125 -45.640625 C 14.753906 -46.609375 13.453125 -47.472656 12.546875 -48.234375 C 11.640625 -48.992188 10.789062 -49.375 10 -49.375 C 9.09375 -49.375 8.640625 -48.859375 8.640625 -47.828125 C 8.640625 -46.253906 9.195312 -44.585938 10.3125 -42.828125 C 11.4375 -41.066406 12.878906 -39.203125 14.640625 -37.234375 C 16.398438 -35.265625 18.265625 -33.1875 20.234375 -31 C 22.203125 -28.820312 24.0625 -26.519531 25.8125 -24.09375 C 27.570312 -21.664062 29.015625 -19.117188 30.140625 -16.453125 C 31.265625 -13.785156 31.828125 -11 31.828125 -8.09375 C 31.828125 -6.882812 31.550781 -5.65625 31 -4.40625 C 30.457031 -3.164062 29.503906 -2.117188 28.140625 -1.265625 C 26.773438 -0.421875 24.847656 0 22.359375 0 Z M 22.359375 0 "/></g></g></g><g fill="#957669" fill-opacity="1"><g transform="translate(68.579689, 197.650717)"><g><path d="M 2.265625 -45.46875 C 2.265625 -52.5 3.113281 -58.875 4.8125 -64.59375 C 6.507812 -70.320312 8.9375 -75.257812 12.09375 -79.40625 C 15.25 -83.5625 19.019531 -86.742188 23.40625 -88.953125 C 27.800781 -91.171875 32.695312 -92.28125 38.09375 -92.28125 C 43.425781 -92.28125 48.289062 -91.171875 52.6875 -88.953125 C 57.082031 -86.742188 60.851562 -83.5625 64 -79.40625 C 67.15625 -75.257812 69.582031 -70.320312 71.28125 -64.59375 C 72.976562 -58.875 73.828125 -52.5 73.828125 -45.46875 C 73.828125 -38.425781 72.976562 -32.039062 71.28125 -26.3125 C 69.582031 -20.59375 67.15625 -15.65625 64 -11.5 C 60.851562 -7.351562 57.082031 -4.171875 52.6875 -1.953125 C 48.289062 0.253906 43.425781 1.359375 38.09375 1.359375 C 32.695312 1.359375 27.800781 0.253906 23.40625 -1.953125 C 19.019531 -4.171875 15.25 -7.351562 12.09375 -11.5 C 8.9375 -15.65625 6.507812 -20.59375 4.8125 -26.3125 C 3.113281 -32.039062 2.265625 -38.425781 2.265625 -45.46875 Z M 30.734375 -86.109375 C 28.609375 -86.109375 26.9375 -84.96875 25.71875 -82.6875 C 24.507812 -80.414062 23.691406 -77.335938 23.265625 -73.453125 C 22.847656 -69.578125 22.773438 -65.226562 23.046875 -60.40625 C 23.316406 -55.59375 23.875 -50.609375 24.71875 -45.453125 C 25.570312 -40.304688 26.648438 -35.320312 27.953125 -30.5 C 29.253906 -25.6875 30.738281 -21.335938 32.40625 -17.453125 C 34.070312 -13.578125 35.859375 -10.5 37.765625 -8.21875 C 39.679688 -5.945312 41.640625 -4.8125 43.640625 -4.8125 C 46.191406 -4.8125 48.222656 -5.945312 49.734375 -8.21875 C 51.242188 -10.5 52.300781 -13.578125 52.90625 -17.453125 C 53.519531 -21.335938 53.734375 -25.6875 53.546875 -30.5 C 53.367188 -35.320312 52.851562 -40.304688 52 -45.453125 C 51.15625 -50.609375 50.019531 -55.59375 48.59375 -60.40625 C 47.175781 -65.226562 45.539062 -69.578125 43.6875 -73.453125 C 41.84375 -77.335938 39.828125 -80.414062 37.640625 -82.6875 C 35.460938 -84.96875 33.160156 -86.109375 30.734375 -86.109375 Z M 30.734375 -86.109375 "/></g></g></g><g fill="#957669" fill-opacity="1"><g transform="translate(141.131733, 197.650717)"><g><path d="M 49.375 0 L 0.90625 0 C 2.125 -1.207031 2.957031 -2.644531 3.40625 -4.3125 C 3.863281 -5.976562 4.09375 -8.117188 4.09375 -10.734375 L 4.09375 -80.1875 C 4.09375 -82.800781 3.863281 -84.941406 3.40625 -86.609375 C 2.957031 -88.273438 2.125 -89.710938 0.90625 -90.921875 L 28.828125 -90.921875 C 31.304688 -90.921875 33.226562 -90.492188 34.59375 -89.640625 C 35.957031 -88.796875 36.910156 -87.75 37.453125 -86.5 C 38.003906 -85.257812 38.28125 -84.035156 38.28125 -82.828125 C 38.28125 -80.585938 37.640625 -78.300781 36.359375 -75.96875 C 35.085938 -73.632812 33.453125 -71.238281 31.453125 -68.78125 C 29.453125 -66.320312 27.332031 -63.757812 25.09375 -61.09375 C 22.851562 -58.425781 20.734375 -55.640625 18.734375 -52.734375 C 16.734375 -49.828125 15.09375 -46.78125 13.8125 -43.59375 C 12.539062 -40.414062 11.90625 -37.066406 11.90625 -33.546875 C 11.90625 -31.546875 12.222656 -29.285156 12.859375 -26.765625 C 13.492188 -24.253906 14.429688 -21.695312 15.671875 -19.09375 C 16.921875 -16.488281 18.484375 -14.078125 20.359375 -11.859375 C 22.242188 -9.648438 24.441406 -7.878906 26.953125 -6.546875 C 29.472656 -5.210938 32.28125 -4.546875 35.375 -4.546875 C 37.3125 -4.546875 39.1875 -4.863281 41 -5.5 C 42.820312 -6.132812 44.320312 -7.085938 45.5 -8.359375 C 46.6875 -9.640625 47.28125 -11.21875 47.28125 -13.09375 C 47.28125 -15.519531 46.765625 -17.59375 45.734375 -19.3125 C 44.703125 -21.039062 43.425781 -22.632812 41.90625 -24.09375 C 40.394531 -25.550781 38.863281 -27.082031 37.3125 -28.6875 C 35.769531 -30.289062 34.484375 -32.164062 33.453125 -34.3125 C 32.421875 -36.46875 31.90625 -39.125 31.90625 -42.28125 C 31.90625 -44.582031 32.46875 -46.734375 33.59375 -48.734375 C 34.71875 -50.734375 36.21875 -52.351562 38.09375 -53.59375 C 39.976562 -54.84375 42.070312 -55.46875 44.375 -55.46875 C 45.820312 -55.46875 47.695312 -55.191406 50 -54.640625 C 52.3125 -54.097656 54.617188 -53.367188 56.921875 -52.453125 C 59.222656 -51.546875 61.160156 -50.488281 62.734375 -49.28125 C 64.304688 -48.070312 65.09375 -46.800781 65.09375 -45.46875 C 65.09375 -43.707031 64.609375 -42.3125 63.640625 -41.28125 C 62.671875 -40.25 61.425781 -39.414062 59.90625 -38.78125 C 58.394531 -38.144531 56.804688 -37.566406 55.140625 -37.046875 C 53.472656 -36.535156 51.878906 -35.988281 50.359375 -35.40625 C 48.847656 -34.832031 47.609375 -34.0625 46.640625 -33.09375 C 45.671875 -32.125 45.1875 -30.820312 45.1875 -29.1875 C 45.1875 -27.851562 45.6875 -26.703125 46.6875 -25.734375 C 47.6875 -24.765625 48.957031 -23.867188 50.5 -23.046875 C 52.050781 -22.234375 53.703125 -21.382812 55.453125 -20.5 C 57.210938 -19.625 58.863281 -18.609375 60.40625 -17.453125 C 61.957031 -16.304688 63.234375 -14.925781 64.234375 -13.3125 C 65.234375 -11.707031 65.734375 -9.753906 65.734375 -7.453125 C 65.734375 -5.390625 65.234375 -3.828125 64.234375 -2.765625 C 63.234375 -1.710938 61.914062 -1.003906 60.28125 -0.640625 C 58.644531 -0.273438 56.867188 -0.078125 54.953125 -0.046875 C 53.046875 -0.015625 51.1875 0 49.375 0 Z M 49.375 0 "/></g></g></g><g fill="#957669" fill-opacity="1"><g transform="translate(204.228359, 197.650717)"><g><path d="M 49.375 0 L 0.90625 0 C 2.125 -1.207031 2.957031 -2.644531 3.40625 -4.3125 C 3.863281 -5.976562 4.09375 -8.117188 4.09375 -10.734375 L 4.09375 -80.1875 C 4.09375 -82.800781 3.863281 -84.941406 3.40625 -86.609375 C 2.957031 -88.273438 2.125 -89.710938 0.90625 -90.921875 L 28.828125 -90.921875 C 31.304688 -90.921875 33.226562 -90.492188 34.59375 -89.640625 C 35.957031 -88.796875 36.910156 -87.75 37.453125 -86.5 C 38.003906 -85.257812 38.28125 -84.035156 38.28125 -82.828125 C 38.28125 -80.585938 37.640625 -78.300781 36.359375 -75.96875 C 35.085938 -73.632812 33.453125 -71.238281 31.453125 -68.78125 C 29.453125 -66.320312 27.332031 -63.757812 25.09375 -61.09375 C 22.851562 -58.425781 20.734375 -55.640625 18.734375 -52.734375 C 16.734375 -49.828125 15.09375 -46.78125 13.8125 -43.59375 C 12.539062 -40.414062 11.90625 -37.066406 11.90625 -33.546875 C 11.90625 -31.546875 12.222656 -29.285156 12.859375 -26.765625 C 13.492188 -24.253906 14.429688 -21.695312 15.671875 -19.09375 C 16.921875 -16.488281 18.484375 -14.078125 20.359375 -11.859375 C 22.242188 -9.648438 24.441406 -7.878906 26.953125 -6.546875 C 29.472656 -5.210938 32.28125 -4.546875 35.375 -4.546875 C 37.3125 -4.546875 39.1875 -4.863281 41 -5.5 C 42.820312 -6.132812 44.320312 -7.085938 45.5 -8.359375 C 46.6875 -9.640625 47.28125 -11.21875 47.28125 -13.09375 C 47.28125 -15.519531 46.765625 -17.59375 45.734375 -19.3125 C 44.703125 -21.039062 43.425781 -22.632812 41.90625 -24.09375 C 40.394531 -25.550781 38.863281 -27.082031 37.3125 -28.6875 C 35.769531 -30.289062 34.484375 -32.164062 33.453125 -34.3125 C 32.421875 -36.46875 31.90625 -39.125 31.90625 -42.28125 C 31.90625 -44.582031 32.46875 -46.734375 33.59375 -48.734375 C 34.71875 -50.734375 36.21875 -52.351562 38.09375 -53.59375 C 39.976562 -54.84375 42.070312 -55.46875 44.375 -55.46875 C 45.820312 -55.46875 47.695312 -55.191406 50 -54.640625 C 52.3125 -54.097656 54.617188 -53.367188 56.921875 -52.453125 C 59.222656 -51.546875 61.160156 -50.488281 62.734375 -49.28125 C 64.304688 -48.070312 65.09375 -46.800781 65.09375 -45.46875 C 65.09375 -43.707031 64.609375 -42.3125 63.640625 -41.28125 C 62.671875 -40.25 61.425781 -39.414062 59.90625 -38.78125 C 58.394531 -38.144531 56.804688 -37.566406 55.140625 -37.046875 C 53.472656 -36.535156 51.878906 -35.988281 50.359375 -35.40625 C 48.847656 -34.832031 47.609375 -34.0625 46.640625 -33.09375 C 45.671875 -32.125 45.1875 -30.820312 45.1875 -29.1875 C 45.1875 -27.851562 45.6875 -26.703125 46.6875 -25.734375 C 47.6875 -24.765625 48.957031 -23.867188 50.5 -23.046875 C 52.050781 -22.234375 53.703125 -21.382812 55.453125 -20.5 C 57.210938 -19.625 58.863281 -18.609375 60.40625 -17.453125 C 61.957031 -16.304688 63.234375 -14.925781 64.234375 -13.3125 C 65.234375 -11.707031 65.734375 -9.753906 65.734375 -7.453125 C 65.734375 -5.390625 65.234375 -3.828125 64.234375 -2.765625 C 63.234375 -1.710938 61.914062 -1.003906 60.28125 -0.640625 C 58.644531 -0.273438 56.867188 -0.078125 54.953125 -0.046875 C 53.046875 -0.015625 51.1875 0 49.375 0 Z M 49.375 0 "/></g></g></g><g fill="#957669" fill-opacity="1"><g transform="translate(267.324973, 197.650717)"><g><path d="M 2.265625 -45.46875 C 2.265625 -52.5 3.113281 -58.875 4.8125 -64.59375 C 6.507812 -70.320312 8.9375 -75.257812 12.09375 -79.40625 C 15.25 -83.5625 19.019531 -86.742188 23.40625 -88.953125 C 27.800781 -91.171875 32.695312 -92.28125 38.09375 -92.28125 C 43.425781 -92.28125 48.289062 -91.171875 52.6875 -88.953125 C 57.082031 -86.742188 60.851562 -83.5625 64 -79.40625 C 67.15625 -75.257812 69.582031 -70.320312 71.28125 -64.59375 C 72.976562 -58.875 73.828125 -52.5 73.828125 -45.46875 C 73.828125 -38.425781 72.976562 -32.039062 71.28125 -26.3125 C 69.582031 -20.59375 67.15625 -15.65625 64 -11.5 C 60.851562 -7.351562 57.082031 -4.171875 52.6875 -1.953125 C 48.289062 0.253906 43.425781 1.359375 38.09375 1.359375 C 32.695312 1.359375 27.800781 0.253906 23.40625 -1.953125 C 19.019531 -4.171875 15.25 -7.351562 12.09375 -11.5 C 8.9375 -15.65625 6.507812 -20.59375 4.8125 -26.3125 C 3.113281 -32.039062 2.265625 -38.425781 2.265625 -45.46875 Z M 30.734375 -86.109375 C 28.609375 -86.109375 26.9375 -84.96875 25.71875 -82.6875 C 24.507812 -80.414062 23.691406 -77.335938 23.265625 -73.453125 C 22.847656 -69.578125 22.773438 -65.226562 23.046875 -60.40625 C 23.316406 -55.59375 23.875 -50.609375 24.71875 -45.453125 C 25.570312 -40.304688 26.648438 -35.320312 27.953125 -30.5 C 29.253906 -25.6875 30.738281 -21.335938 32.40625 -17.453125 C 34.070312 -13.578125 35.859375 -10.5 37.765625 -8.21875 C 39.679688 -5.945312 41.640625 -4.8125 43.640625 -4.8125 C 46.191406 -4.8125 48.222656 -5.945312 49.734375 -8.21875 C 51.242188 -10.5 52.300781 -13.578125 52.90625 -17.453125 C 53.519531 -21.335938 53.734375 -25.6875 53.546875 -30.5 C 53.367188 -35.320312 52.851562 -40.304688 52 -45.453125 C 51.15625 -50.609375 50.019531 -55.59375 48.59375 -60.40625 C 47.175781 -65.226562 45.539062 -69.578125 43.6875 -73.453125 C 41.84375 -77.335938 39.828125 -80.414062 37.640625 -82.6875 C 35.460938 -84.96875 33.160156 -86.109375 30.734375 -86.109375 Z M 30.734375 -86.109375 "/></g></g></g><g fill="#957669" fill-opacity="1"><g transform="translate(339.877029, 197.650717)"><g><path d="M 8 -73.28125 C 6.851562 -77.039062 5.703125 -80.539062 4.546875 -83.78125 C 3.390625 -87.03125 1.875 -89.410156 0 -90.921875 L 37.546875 -90.921875 C 36.515625 -89.765625 35.710938 -88.289062 35.140625 -86.5 C 34.566406 -84.71875 34.28125 -82.890625 34.28125 -81.015625 C 34.28125 -79.859375 34.445312 -77.851562 34.78125 -75 C 35.113281 -72.15625 35.597656 -68.789062 36.234375 -64.90625 C 36.867188 -61.03125 37.609375 -56.957031 38.453125 -52.6875 C 39.304688 -48.414062 40.234375 -44.21875 41.234375 -40.09375 C 42.234375 -35.96875 43.304688 -32.222656 44.453125 -28.859375 C 45.609375 -25.503906 46.789062 -22.828125 48 -20.828125 C 49.21875 -18.828125 50.429688 -17.828125 51.640625 -17.828125 C 53.210938 -17.828125 54.546875 -18.644531 55.640625 -20.28125 C 56.734375 -21.914062 57.597656 -24.109375 58.234375 -26.859375 C 58.867188 -29.617188 59.335938 -32.664062 59.640625 -36 C 59.941406 -39.332031 60.09375 -42.695312 60.09375 -46.09375 C 60.09375 -49.488281 59.988281 -52.671875 59.78125 -55.640625 C 59.570312 -58.609375 59.285156 -61.09375 58.921875 -63.09375 C 58.492188 -64.726562 58.035156 -66.394531 57.546875 -68.09375 C 57.066406 -69.789062 56.554688 -71.519531 56.015625 -73.28125 C 54.859375 -77.039062 53.703125 -80.539062 52.546875 -83.78125 C 51.398438 -87.03125 49.882812 -89.410156 48 -90.921875 L 85.5625 -90.921875 C 84.53125 -89.765625 83.722656 -88.289062 83.140625 -86.5 C 82.566406 -84.71875 82.28125 -82.890625 82.28125 -81.015625 C 82.28125 -79.859375 82.445312 -77.851562 82.78125 -75 C 83.113281 -72.15625 83.597656 -68.789062 84.234375 -64.90625 C 84.867188 -61.03125 85.609375 -56.957031 86.453125 -52.6875 C 87.304688 -48.414062 88.234375 -44.21875 89.234375 -40.09375 C 90.234375 -35.96875 91.304688 -32.222656 92.453125 -28.859375 C 93.609375 -25.503906 94.789062 -22.828125 96 -20.828125 C 97.21875 -18.828125 98.4375 -17.828125 99.65625 -17.828125 C 101.226562 -17.828125 102.46875 -18.492188 103.375 -19.828125 C 104.28125 -21.160156 104.929688 -22.898438 105.328125 -25.046875 C 105.722656 -27.203125 105.921875 -29.488281 105.921875 -31.90625 C 105.921875 -35.550781 105.46875 -39.097656 104.5625 -42.546875 C 103.65625 -46.003906 102.535156 -49.367188 101.203125 -52.640625 C 99.867188 -55.910156 98.519531 -59.132812 97.15625 -62.3125 C 95.789062 -65.5 94.648438 -68.671875 93.734375 -71.828125 C 92.828125 -74.984375 92.375 -78.132812 92.375 -81.28125 C 92.375 -82.738281 92.554688 -84.207031 92.921875 -85.6875 C 93.285156 -87.175781 93.953125 -88.421875 94.921875 -89.421875 C 95.890625 -90.421875 97.253906 -90.921875 99.015625 -90.921875 L 129.75 -90.921875 C 127.863281 -89.410156 126.34375 -87.03125 125.1875 -83.78125 C 124.039062 -80.539062 122.894531 -77.039062 121.75 -73.28125 C 119.925781 -67.101562 118.332031 -61.46875 116.96875 -56.375 C 115.601562 -51.28125 114.390625 -46.320312 113.328125 -41.5 C 112.273438 -36.6875 111.25 -31.671875 110.25 -26.453125 C 109.25 -21.242188 108.171875 -15.488281 107.015625 -9.1875 C 106.710938 -7.425781 106.726562 -5.695312 107.0625 -4 C 107.394531 -2.300781 108.046875 -0.96875 109.015625 0 L 68.734375 0 C 69.765625 -0.96875 70.429688 -2.300781 70.734375 -4 C 71.035156 -5.695312 71.035156 -7.425781 70.734375 -9.1875 C 69.703125 -15.0625 68.734375 -20.421875 67.828125 -25.265625 C 66.921875 -30.117188 65.953125 -34.820312 64.921875 -39.375 C 63.890625 -34.820312 62.898438 -30.117188 61.953125 -25.265625 C 61.015625 -20.421875 60.035156 -15.0625 59.015625 -9.1875 C 58.703125 -7.425781 58.710938 -5.695312 59.046875 -4 C 59.378906 -2.300781 60.035156 -0.96875 61.015625 0 L 20.734375 0 C 21.765625 -0.96875 22.429688 -2.300781 22.734375 -4 C 23.035156 -5.695312 23.035156 -7.425781 22.734375 -9.1875 C 21.578125 -15.488281 20.5 -21.242188 19.5 -26.453125 C 18.5 -31.671875 17.453125 -36.6875 16.359375 -41.5 C 15.273438 -46.320312 14.066406 -51.28125 12.734375 -56.375 C 11.398438 -61.46875 9.820312 -67.101562 8 -73.28125 Z M 8 -73.28125 "/></g></g></g><g fill="#957669" fill-opacity="1"><g transform="translate(466.07044, 197.650717)"><g><path d="M 0 0 C 1.875 -1.570312 3.390625 -3.960938 4.546875 -7.171875 C 5.703125 -10.390625 6.851562 -13.878906 8 -17.640625 C 9.820312 -23.816406 11.410156 -29.453125 12.765625 -34.546875 C 14.128906 -39.640625 15.34375 -44.59375 16.40625 -49.40625 C 17.46875 -54.226562 18.5 -59.242188 19.5 -64.453125 C 20.5 -69.671875 21.578125 -75.429688 22.734375 -81.734375 C 23.035156 -83.492188 23.035156 -85.222656 22.734375 -86.921875 C 22.429688 -88.617188 21.765625 -89.953125 20.734375 -90.921875 L 61.015625 -90.921875 C 60.035156 -89.953125 59.378906 -88.617188 59.046875 -86.921875 C 58.710938 -85.222656 58.703125 -83.492188 59.015625 -81.734375 C 60.160156 -75.429688 61.234375 -69.671875 62.234375 -64.453125 C 63.234375 -59.242188 64.265625 -54.226562 65.328125 -49.40625 C 66.390625 -44.59375 67.601562 -39.640625 68.96875 -34.546875 C 70.332031 -29.453125 71.921875 -23.816406 73.734375 -17.640625 C 74.890625 -13.878906 76.039062 -10.390625 77.1875 -7.171875 C 78.34375 -3.960938 79.859375 -1.570312 81.734375 0 L 44.1875 0 C 45.21875 -1.207031 46.019531 -2.691406 46.59375 -4.453125 C 47.175781 -6.210938 47.46875 -8.03125 47.46875 -9.90625 C 47.46875 -11.425781 47.191406 -14.242188 46.640625 -18.359375 C 46.097656 -22.484375 45.367188 -27.125 44.453125 -32.28125 L 31.09375 -32.28125 C 32.664062 -28.457031 34.101562 -24.664062 35.40625 -20.90625 C 36.71875 -17.15625 37.375 -13.398438 37.375 -9.640625 C 37.375 -8.242188 37.191406 -6.785156 36.828125 -5.265625 C 36.460938 -3.753906 35.804688 -2.5 34.859375 -1.5 C 33.921875 -0.5 32.546875 0 30.734375 0 Z M 29.375 -36.375 L 43.640625 -36.375 C 42.796875 -40.738281 41.859375 -45.085938 40.828125 -49.421875 C 39.796875 -53.753906 38.6875 -57.707031 37.5 -61.28125 C 36.320312 -64.851562 35.109375 -67.710938 33.859375 -69.859375 C 32.617188 -72.015625 31.363281 -73.09375 30.09375 -73.09375 C 28.519531 -73.09375 27.273438 -72.425781 26.359375 -71.09375 C 25.453125 -69.757812 24.800781 -68.015625 24.40625 -65.859375 C 24.019531 -63.710938 23.828125 -61.429688 23.828125 -59.015625 C 23.828125 -55.003906 24.382812 -51.117188 25.5 -47.359375 C 26.625 -43.609375 27.914062 -39.945312 29.375 -36.375 Z M 29.375 -36.375 "/></g></g></g><g fill="#957669" fill-opacity="1"><g transform="translate(544.259365, 197.650717)"><g><path d="M 0 -90.921875 L 24.453125 -90.921875 C 27.367188 -90.921875 29.6875 -90.117188 31.40625 -88.515625 C 33.132812 -86.910156 34.378906 -84.910156 35.140625 -82.515625 C 35.898438 -80.117188 36.28125 -77.707031 36.28125 -75.28125 C 36.28125 -72.375 35.851562 -69.78125 35 -67.5 C 34.15625 -65.226562 33.171875 -63.078125 32.046875 -61.046875 C 30.929688 -59.023438 29.945312 -56.890625 29.09375 -54.640625 C 28.25 -52.398438 27.828125 -49.828125 27.828125 -46.921875 C 27.828125 -44.671875 28.734375 -42.578125 30.546875 -40.640625 C 32.367188 -38.703125 35.160156 -37.765625 38.921875 -37.828125 C 41.890625 -37.828125 44.28125 -38.328125 46.09375 -39.328125 C 47.914062 -40.328125 49.3125 -41.582031 50.28125 -43.09375 C 51.25 -44.613281 51.898438 -46.207031 52.234375 -47.875 C 52.566406 -49.539062 52.734375 -51.097656 52.734375 -52.546875 C 52.734375 -54.910156 52.273438 -57.289062 51.359375 -59.6875 C 50.453125 -62.082031 49.332031 -64.460938 48 -66.828125 C 46.664062 -69.191406 45.332031 -71.492188 44 -73.734375 C 42.664062 -75.984375 41.546875 -78.117188 40.640625 -80.140625 C 39.734375 -82.171875 39.28125 -84.035156 39.28125 -85.734375 C 39.28125 -87.128906 39.765625 -88.34375 40.734375 -89.375 C 41.703125 -90.40625 42.914062 -90.921875 44.375 -90.921875 L 65.546875 -90.921875 C 67.554688 -90.921875 69.070312 -90.191406 70.09375 -88.734375 C 71.125 -87.285156 71.820312 -85.53125 72.1875 -83.46875 C 72.550781 -81.40625 72.734375 -79.4375 72.734375 -77.5625 C 72.734375 -73.007812 72.066406 -68.789062 70.734375 -64.90625 C 69.398438 -61.03125 67.671875 -57.441406 65.546875 -54.140625 C 63.429688 -50.835938 61.191406 -47.757812 58.828125 -44.90625 C 56.460938 -42.0625 54.21875 -39.394531 52.09375 -36.90625 C 49.976562 -34.425781 48.253906 -32.09375 46.921875 -29.90625 C 45.585938 -27.726562 44.921875 -25.640625 44.921875 -23.640625 C 44.921875 -20.242188 45.375 -17.4375 46.28125 -15.21875 C 47.1875 -13.007812 48.210938 -11.160156 49.359375 -9.671875 C 50.515625 -8.191406 51.546875 -6.90625 52.453125 -5.8125 C 53.367188 -4.726562 53.828125 -3.640625 53.828125 -2.546875 C 53.828125 -1.816406 53.476562 -1.207031 52.78125 -0.71875 C 52.082031 -0.238281 50.851562 0 49.09375 0 L 27 0 C 25.726562 0 24.664062 -0.453125 23.8125 -1.359375 C 22.96875 -2.273438 22.347656 -3.410156 21.953125 -4.765625 C 21.554688 -6.128906 21.359375 -7.453125 21.359375 -8.734375 C 21.359375 -11.097656 22.054688 -13.234375 23.453125 -15.140625 C 24.847656 -17.046875 26.578125 -18.785156 28.640625 -20.359375 C 30.703125 -21.941406 32.765625 -23.398438 34.828125 -24.734375 C 36.890625 -26.066406 38.613281 -27.304688 40 -28.453125 C 41.394531 -29.609375 42.09375 -30.734375 42.09375 -31.828125 C 42.09375 -32.734375 41.703125 -33.1875 40.921875 -33.1875 C 40.128906 -33.1875 39.367188 -33.003906 38.640625 -32.640625 C 37.910156 -32.273438 36.9375 -31.894531 35.71875 -31.5 C 34.507812 -31.101562 32.816406 -30.90625 30.640625 -30.90625 C 27.179688 -30.90625 24.347656 -31.507812 22.140625 -32.71875 C 19.929688 -33.9375 18.171875 -35.5625 16.859375 -37.59375 C 15.554688 -39.625 14.585938 -41.863281 13.953125 -44.3125 C 13.316406 -46.769531 12.878906 -49.210938 12.640625 -51.640625 C 12.335938 -54.671875 11.988281 -58.019531 11.59375 -61.6875 C 11.195312 -65.351562 10.585938 -69.035156 9.765625 -72.734375 C 8.953125 -76.429688 7.769531 -79.867188 6.21875 -83.046875 C 4.675781 -86.234375 2.601562 -88.859375 0 -90.921875 Z M 0 -90.921875 "/></g></g></g></g></g></g><g fill="#f8f0e3" fill-opacity="1"><g transform="translate(127.794526, 140.682715)"><g><path d="M 22.359375 0 L 0.90625 0 C 2.125 -1.207031 2.957031 -2.644531 3.40625 -4.3125 C 3.863281 -5.976562 4.09375 -8.117188 4.09375 -10.734375 L 4.09375 -80.1875 C 4.09375 -82.800781 3.863281 -84.941406 3.40625 -86.609375 C 2.957031 -88.273438 2.125 -89.710938 0.90625 -90.921875 L 25 -90.921875 C 26.15625 -90.921875 27.25 -90.207031 28.28125 -88.78125 C 29.3125 -87.363281 29.828125 -85.863281 29.828125 -84.28125 C 29.828125 -81.550781 29.3125 -79.273438 28.28125 -77.453125 C 27.25 -75.640625 25.925781 -74.140625 24.3125 -72.953125 C 22.707031 -71.773438 21.007812 -70.773438 19.21875 -69.953125 C 17.4375 -69.140625 15.742188 -68.351562 14.140625 -67.59375 C 12.535156 -66.84375 11.21875 -65.976562 10.1875 -65 C 9.15625 -64.03125 8.640625 -62.789062 8.640625 -61.28125 C 8.640625 -60.851562 8.804688 -60.441406 9.140625 -60.046875 C 9.472656 -59.660156 9.878906 -59.46875 10.359375 -59.46875 C 11.273438 -59.46875 12.304688 -59.785156 13.453125 -60.421875 C 14.609375 -61.054688 16.078125 -61.78125 17.859375 -62.59375 C 19.648438 -63.414062 21.984375 -64.144531 24.859375 -64.78125 C 27.742188 -65.414062 31.367188 -65.734375 35.734375 -65.734375 C 40.097656 -65.734375 43.734375 -65.414062 46.640625 -64.78125 C 49.546875 -64.144531 51.921875 -63.414062 53.765625 -62.59375 C 55.617188 -61.78125 57.148438 -61.054688 58.359375 -60.421875 C 59.578125 -59.785156 60.640625 -59.46875 61.546875 -59.46875 C 62.035156 -59.46875 62.445312 -59.660156 62.78125 -60.046875 C 63.113281 -60.441406 63.28125 -60.851562 63.28125 -61.28125 C 63.28125 -62.789062 62.765625 -64.03125 61.734375 -65 C 60.703125 -65.976562 59.382812 -66.84375 57.78125 -67.59375 C 56.175781 -68.351562 54.476562 -69.140625 52.6875 -69.953125 C 50.894531 -70.773438 49.195312 -71.773438 47.59375 -72.953125 C 45.988281 -74.140625 44.671875 -75.640625 43.640625 -77.453125 C 42.609375 -79.273438 42.09375 -81.550781 42.09375 -84.28125 C 42.09375 -85.863281 42.609375 -87.363281 43.640625 -88.78125 C 44.671875 -90.207031 45.765625 -90.921875 46.921875 -90.921875 L 71.015625 -90.921875 C 69.796875 -89.710938 68.957031 -88.273438 68.5 -86.609375 C 68.050781 -84.941406 67.828125 -82.800781 67.828125 -80.1875 L 67.828125 -10.734375 C 67.828125 -8.117188 68.050781 -5.976562 68.5 -4.3125 C 68.957031 -2.644531 69.796875 -1.207031 71.015625 0 L 49.546875 0 C 47.128906 0 45.222656 -0.421875 43.828125 -1.265625 C 42.429688 -2.117188 41.457031 -3.164062 40.90625 -4.40625 C 40.363281 -5.65625 40.09375 -6.882812 40.09375 -8.09375 C 40.09375 -11 40.648438 -13.785156 41.765625 -16.453125 C 42.890625 -19.117188 44.332031 -21.664062 46.09375 -24.09375 C 47.851562 -26.519531 49.71875 -28.820312 51.6875 -31 C 53.65625 -33.1875 55.519531 -35.265625 57.28125 -37.234375 C 59.039062 -39.203125 60.476562 -41.066406 61.59375 -42.828125 C 62.71875 -44.585938 63.28125 -46.253906 63.28125 -47.828125 C 63.28125 -48.859375 62.828125 -49.375 61.921875 -49.375 C 61.128906 -49.375 60.21875 -48.992188 59.1875 -48.234375 C 58.15625 -47.472656 56.710938 -46.609375 54.859375 -45.640625 C 53.015625 -44.671875 50.53125 -43.804688 47.40625 -43.046875 C 44.289062 -42.296875 40.28125 -41.921875 35.375 -41.921875 C 30.457031 -41.921875 26.5 -42.296875 23.5 -43.046875 C 20.5 -43.804688 18.148438 -44.671875 16.453125 -45.640625 C 14.753906 -46.609375 13.453125 -47.472656 12.546875 -48.234375 C 11.640625 -48.992188 10.789062 -49.375 10 -49.375 C 9.09375 -49.375 8.640625 -48.859375 8.640625 -47.828125 C 8.640625 -46.253906 9.195312 -44.585938 10.3125 -42.828125 C 11.4375 -41.066406 12.878906 -39.203125 14.640625 -37.234375 C 16.398438 -35.265625 18.265625 -33.1875 20.234375 -31 C 22.203125 -28.820312 24.0625 -26.519531 25.8125 -24.09375 C 27.570312 -21.664062 29.015625 -19.117188 30.140625 -16.453125 C 31.265625 -13.785156 31.828125 -11 31.828125 -8.09375 C 31.828125 -6.882812 31.550781 -5.65625 31 -4.40625 C 30.457031 -3.164062 29.503906 -2.117188 28.140625 -1.265625 C 26.773438 -0.421875 24.847656 0 22.359375 0 Z M 22.359375 0 "/></g></g></g><g fill="#f8f0e3" fill-opacity="1"><g transform="translate(196.164368, 140.682715)"><g><path d="M 0 0 C 1.875 -1.570312 3.390625 -3.960938 4.546875 -7.171875 C 5.703125 -10.390625 6.851562 -13.878906 8 -17.640625 C 9.820312 -23.816406 11.410156 -29.453125 12.765625 -34.546875 C 14.128906 -39.640625 15.34375 -44.59375 16.40625 -49.40625 C 17.46875 -54.226562 18.5 -59.242188 19.5 -64.453125 C 20.5 -69.671875 21.578125 -75.429688 22.734375 -81.734375 C 23.035156 -83.492188 23.035156 -85.222656 22.734375 -86.921875 C 22.429688 -88.617188 21.765625 -89.953125 20.734375 -90.921875 L 61.015625 -90.921875 C 60.035156 -89.953125 59.378906 -88.617188 59.046875 -86.921875 C 58.710938 -85.222656 58.703125 -83.492188 59.015625 -81.734375 C 60.160156 -75.429688 61.234375 -69.671875 62.234375 -64.453125 C 63.234375 -59.242188 64.265625 -54.226562 65.328125 -49.40625 C 66.390625 -44.59375 67.601562 -39.640625 68.96875 -34.546875 C 70.332031 -29.453125 71.921875 -23.816406 73.734375 -17.640625 C 74.890625 -13.878906 76.039062 -10.390625 77.1875 -7.171875 C 78.34375 -3.960938 79.859375 -1.570312 81.734375 0 L 44.1875 0 C 45.21875 -1.207031 46.019531 -2.691406 46.59375 -4.453125 C 47.175781 -6.210938 47.46875 -8.03125 47.46875 -9.90625 C 47.46875 -11.425781 47.191406 -14.242188 46.640625 -18.359375 C 46.097656 -22.484375 45.367188 -27.125 44.453125 -32.28125 L 31.09375 -32.28125 C 32.664062 -28.457031 34.101562 -24.664062 35.40625 -20.90625 C 36.71875 -17.15625 37.375 -13.398438 37.375 -9.640625 C 37.375 -8.242188 37.191406 -6.785156 36.828125 -5.265625 C 36.460938 -3.753906 35.804688 -2.5 34.859375 -1.5 C 33.921875 -0.5 32.546875 0 30.734375 0 Z M 29.375 -36.375 L 43.640625 -36.375 C 42.796875 -40.738281 41.859375 -45.085938 40.828125 -49.421875 C 39.796875 -53.753906 38.6875 -57.707031 37.5 -61.28125 C 36.320312 -64.851562 35.109375 -67.710938 33.859375 -69.859375 C 32.617188 -72.015625 31.363281 -73.09375 30.09375 -73.09375 C 28.519531 -73.09375 27.273438 -72.425781 26.359375 -71.09375 C 25.453125 -69.757812 24.800781 -68.015625 24.40625 -65.859375 C 24.019531 -63.710938 23.828125 -61.429688 23.828125 -59.015625 C 23.828125 -55.003906 24.382812 -51.117188 25.5 -47.359375 C 26.625 -43.609375 27.914062 -39.945312 29.375 -36.375 Z M 29.375 -36.375 "/></g></g></g><g fill="#f8f0e3" fill-opacity="1"><g transform="translate(274.353304, 140.682715)"><g><path d="M 0.90625 -90.921875 L 37.546875 -90.921875 C 44.941406 -90.921875 50.867188 -89.753906 55.328125 -87.421875 C 59.785156 -85.085938 63.023438 -81.9375 65.046875 -77.96875 C 67.078125 -74 68.09375 -69.554688 68.09375 -64.640625 C 68.09375 -61.128906 67.625 -57.660156 66.6875 -54.234375 C 65.75 -50.804688 64.25 -47.710938 62.1875 -44.953125 C 60.125 -42.203125 57.488281 -39.992188 54.28125 -38.328125 C 51.070312 -36.660156 47.191406 -35.828125 42.640625 -35.828125 C 39.179688 -35.828125 36.191406 -36.328125 33.671875 -37.328125 C 31.160156 -38.328125 28.992188 -39.566406 27.171875 -41.046875 C 25.359375 -42.535156 23.769531 -44.035156 22.40625 -45.546875 C 21.039062 -47.066406 19.828125 -48.328125 18.765625 -49.328125 C 17.710938 -50.328125 16.671875 -50.828125 15.640625 -50.828125 C 14.421875 -50.828125 13.597656 -50.519531 13.171875 -49.90625 C 12.753906 -49.300781 12.546875 -48.640625 12.546875 -47.921875 C 12.546875 -46.703125 13.179688 -45.484375 14.453125 -44.265625 C 15.722656 -43.054688 17.4375 -41.875 19.59375 -40.71875 C 21.75 -39.570312 24.128906 -38.46875 26.734375 -37.40625 C 29.335938 -36.351562 31.941406 -35.3125 34.546875 -34.28125 C 37.210938 -33.3125 40.046875 -32.234375 43.046875 -31.046875 C 46.046875 -29.867188 48.96875 -28.550781 51.8125 -27.09375 C 54.664062 -25.632812 57.242188 -23.992188 59.546875 -22.171875 C 61.859375 -20.359375 63.707031 -18.300781 65.09375 -16 C 66.488281 -13.695312 67.1875 -11.125 67.1875 -8.28125 C 67.1875 -5.363281 66.742188 -3.253906 65.859375 -1.953125 C 64.984375 -0.648438 63.425781 0 61.1875 0 L 41.546875 0 C 40.941406 0 40.351562 -0.148438 39.78125 -0.453125 C 39.207031 -0.753906 38.921875 -1.300781 38.921875 -2.09375 C 38.921875 -3.1875 39.054688 -4.140625 39.328125 -4.953125 C 39.597656 -5.773438 39.851562 -6.65625 40.09375 -7.59375 C 40.332031 -8.53125 40.453125 -9.757812 40.453125 -11.28125 C 40.453125 -13.28125 39.832031 -15.382812 38.59375 -17.59375 C 37.351562 -19.800781 35.71875 -21.984375 33.6875 -24.140625 C 31.65625 -26.296875 29.457031 -28.328125 27.09375 -30.234375 C 24.726562 -32.140625 22.425781 -33.832031 20.1875 -35.3125 C 17.945312 -36.800781 15.945312 -37.96875 14.1875 -38.8125 C 12.425781 -39.664062 11.179688 -40.09375 10.453125 -40.09375 C 9.847656 -40.09375 9.421875 -39.847656 9.171875 -39.359375 C 8.929688 -38.878906 8.8125 -38.519531 8.8125 -38.28125 C 8.8125 -36.757812 9.398438 -35.394531 10.578125 -34.1875 C 11.765625 -32.976562 13.296875 -31.796875 15.171875 -30.640625 C 17.054688 -29.484375 19.046875 -28.253906 21.140625 -26.953125 C 23.234375 -25.648438 25.203125 -24.179688 27.046875 -22.546875 C 28.898438 -20.910156 30.414062 -19 31.59375 -16.8125 C 32.78125 -14.632812 33.375 -12.09375 33.375 -9.1875 C 33.375 -7.96875 33.144531 -6.644531 32.6875 -5.21875 C 32.226562 -3.800781 31.53125 -2.578125 30.59375 -1.546875 C 29.65625 -0.515625 28.425781 0 26.90625 0 L 1 0 C 2.207031 -1.207031 3.039062 -2.644531 3.5 -4.3125 C 3.957031 -5.976562 4.1875 -8.117188 4.1875 -10.734375 L 4.1875 -26.28125 L 4.09375 -45.46875 L 4.09375 -80.1875 C 4.09375 -82.800781 3.863281 -84.941406 3.40625 -86.609375 C 2.957031 -88.273438 2.125 -89.710938 0.90625 -90.921875 Z M 32.28125 -71.921875 C 29.976562 -71.921875 27.460938 -71.828125 24.734375 -71.640625 C 22.003906 -71.460938 19.425781 -71.082031 17 -70.5 C 14.570312 -69.925781 12.585938 -69.035156 11.046875 -67.828125 C 9.503906 -66.617188 8.734375 -64.984375 8.734375 -62.921875 C 8.734375 -60.859375 9.550781 -59.234375 11.1875 -58.046875 C 12.820312 -56.867188 14.988281 -55.976562 17.6875 -55.375 C 20.382812 -54.769531 23.320312 -54.375 26.5 -54.1875 C 29.6875 -54.007812 32.851562 -53.921875 36 -53.921875 C 39.15625 -53.921875 42.335938 -54.007812 45.546875 -54.1875 C 48.765625 -54.375 51.722656 -54.769531 54.421875 -55.375 C 57.117188 -55.976562 59.285156 -56.867188 60.921875 -58.046875 C 62.554688 -59.234375 63.375 -60.859375 63.375 -62.921875 C 63.375 -64.554688 62.707031 -65.914062 61.375 -67 C 60.039062 -68.09375 58.265625 -68.972656 56.046875 -69.640625 C 53.835938 -70.304688 51.367188 -70.789062 48.640625 -71.09375 C 45.910156 -71.40625 43.117188 -71.617188 40.265625 -71.734375 C 37.421875 -71.859375 34.757812 -71.921875 32.28125 -71.921875 Z M 32.28125 -71.921875 "/></g></g></g><g fill="#f8f0e3" fill-opacity="1"><g transform="translate(341.177557, 140.682715)"><g><path d="M 3.8125 -55.546875 C 3.207031 -55.546875 2.722656 -55.757812 2.359375 -56.1875 C 1.992188 -56.613281 1.8125 -57.128906 1.8125 -57.734375 L 1.8125 -90.921875 L 72.46875 -90.921875 L 72.46875 -57.734375 C 72.46875 -57.128906 72.300781 -56.613281 71.96875 -56.1875 C 71.632812 -55.757812 71.132812 -55.546875 70.46875 -55.546875 C 69.738281 -55.546875 68.90625 -56.289062 67.96875 -57.78125 C 67.03125 -59.269531 66.03125 -61.179688 64.96875 -63.515625 C 63.90625 -65.847656 62.8125 -68.332031 61.6875 -70.96875 C 60.570312 -73.601562 59.453125 -76.085938 58.328125 -78.421875 C 57.203125 -80.753906 56.109375 -82.660156 55.046875 -84.140625 C 53.992188 -85.628906 52.976562 -86.375 52 -86.375 C 50.664062 -86.375 49.863281 -85.75 49.59375 -84.5 C 49.320312 -83.257812 49.1875 -81.945312 49.1875 -80.5625 L 49.1875 -10.734375 C 49.1875 -8.117188 49.410156 -5.976562 49.859375 -4.3125 C 50.316406 -2.644531 51.15625 -1.207031 52.375 0 L 21.90625 0 C 23.125 -1.207031 23.957031 -2.644531 24.40625 -4.3125 C 24.863281 -5.976562 25.09375 -8.117188 25.09375 -10.734375 L 25.09375 -80.5625 C 25.09375 -81.945312 24.957031 -83.257812 24.6875 -84.5 C 24.414062 -85.75 23.613281 -86.375 22.28125 -86.375 C 21.3125 -86.375 20.296875 -85.628906 19.234375 -84.140625 C 18.171875 -82.660156 17.078125 -80.753906 15.953125 -78.421875 C 14.835938 -76.085938 13.71875 -73.601562 12.59375 -70.96875 C 11.46875 -68.332031 10.375 -65.847656 9.3125 -63.515625 C 8.257812 -61.179688 7.273438 -59.269531 6.359375 -57.78125 C 5.453125 -56.289062 4.601562 -55.546875 3.8125 -55.546875 Z M 3.8125 -55.546875 "/></g></g></g><g fill="#f8f0e3" fill-opacity="1"><g transform="translate(411.911225, 140.682715)"><g><path d="M 49.375 0 L 0.90625 0 C 2.125 -1.207031 2.957031 -2.644531 3.40625 -4.3125 C 3.863281 -5.976562 4.09375 -8.117188 4.09375 -10.734375 L 4.09375 -80.1875 C 4.09375 -82.800781 3.863281 -84.941406 3.40625 -86.609375 C 2.957031 -88.273438 2.125 -89.710938 0.90625 -90.921875 L 28.828125 -90.921875 C 31.304688 -90.921875 33.226562 -90.492188 34.59375 -89.640625 C 35.957031 -88.796875 36.910156 -87.75 37.453125 -86.5 C 38.003906 -85.257812 38.28125 -84.035156 38.28125 -82.828125 C 38.28125 -80.585938 37.640625 -78.300781 36.359375 -75.96875 C 35.085938 -73.632812 33.453125 -71.238281 31.453125 -68.78125 C 29.453125 -66.320312 27.332031 -63.757812 25.09375 -61.09375 C 22.851562 -58.425781 20.734375 -55.640625 18.734375 -52.734375 C 16.734375 -49.828125 15.09375 -46.78125 13.8125 -43.59375 C 12.539062 -40.414062 11.90625 -37.066406 11.90625 -33.546875 C 11.90625 -31.546875 12.222656 -29.285156 12.859375 -26.765625 C 13.492188 -24.253906 14.429688 -21.695312 15.671875 -19.09375 C 16.921875 -16.488281 18.484375 -14.078125 20.359375 -11.859375 C 22.242188 -9.648438 24.441406 -7.878906 26.953125 -6.546875 C 29.472656 -5.210938 32.28125 -4.546875 35.375 -4.546875 C 37.3125 -4.546875 39.1875 -4.863281 41 -5.5 C 42.820312 -6.132812 44.320312 -7.085938 45.5 -8.359375 C 46.6875 -9.640625 47.28125 -11.21875 47.28125 -13.09375 C 47.28125 -15.519531 46.765625 -17.59375 45.734375 -19.3125 C 44.703125 -21.039062 43.425781 -22.632812 41.90625 -24.09375 C 40.394531 -25.550781 38.863281 -27.082031 37.3125 -28.6875 C 35.769531 -30.289062 34.484375 -32.164062 33.453125 -34.3125 C 32.421875 -36.46875 31.90625 -39.125 31.90625 -42.28125 C 31.90625 -44.582031 32.46875 -46.734375 33.59375 -48.734375 C 34.71875 -50.734375 36.21875 -52.351562 38.09375 -53.59375 C 39.976562 -54.84375 42.070312 -55.46875 44.375 -55.46875 C 45.820312 -55.46875 47.695312 -55.191406 50 -54.640625 C 52.3125 -54.097656 54.617188 -53.367188 56.921875 -52.453125 C 59.222656 -51.546875 61.160156 -50.488281 62.734375 -49.28125 C 64.304688 -48.070312 65.09375 -46.800781 65.09375 -45.46875 C 65.09375 -43.707031 64.609375 -42.3125 63.640625 -41.28125 C 62.671875 -40.25 61.425781 -39.414062 59.90625 -38.78125 C 58.394531 -38.144531 56.804688 -37.566406 55.140625 -37.046875 C 53.472656 -36.535156 51.878906 -35.988281 50.359375 -35.40625 C 48.847656 -34.832031 47.609375 -34.0625 46.640625 -33.09375 C 45.671875 -32.125 45.1875 -30.820312 45.1875 -29.1875 C 45.1875 -27.851562 45.6875 -26.703125 46.6875 -25.734375 C 47.6875 -24.765625 48.957031 -23.867188 50.5 -23.046875 C 52.050781 -22.234375 53.703125 -21.382812 55.453125 -20.5 C 57.210938 -19.625 58.863281 -18.609375 60.40625 -17.453125 C 61.957031 -16.304688 63.234375 -14.925781 64.234375 -13.3125 C 65.234375 -11.707031 65.734375 -9.753906 65.734375 -7.453125 C 65.734375 -5.390625 65.234375 -3.828125 64.234375 -2.765625 C 63.234375 -1.710938 61.914062 -1.003906 60.28125 -0.640625 C 58.644531 -0.273438 56.867188 -0.078125 54.953125 -0.046875 C 53.046875 -0.015625 51.1875 0 49.375 0 Z M 49.375 0 "/></g></g></g><g fill="#f8f0e3" fill-opacity="1"><g transform="translate(475.007862, 140.682715)"><g><path d="M 2.265625 -45.46875 C 2.265625 -49.945312 2.6875 -54.425781 3.53125 -58.90625 C 4.382812 -63.394531 5.691406 -67.640625 7.453125 -71.640625 C 9.210938 -75.640625 11.394531 -79.1875 14 -82.28125 C 16.601562 -85.375 19.675781 -87.8125 23.21875 -89.59375 C 26.769531 -91.382812 30.789062 -92.28125 35.28125 -92.28125 C 37.644531 -92.28125 39.898438 -91.976562 42.046875 -91.375 C 44.203125 -90.769531 46.414062 -90.164062 48.6875 -89.5625 C 50.957031 -88.957031 53.457031 -88.65625 56.1875 -88.65625 C 58.3125 -88.65625 59.992188 -88.957031 61.234375 -89.5625 C 62.472656 -90.164062 63.53125 -90.769531 64.40625 -91.375 C 65.289062 -91.976562 66.1875 -92.28125 67.09375 -92.28125 C 68.3125 -92.28125 69.007812 -91.597656 69.1875 -90.234375 C 69.375 -88.867188 69.238281 -87.171875 68.78125 -85.140625 C 68.320312 -83.117188 67.671875 -81.109375 66.828125 -79.109375 C 66.222656 -77.710938 65.34375 -76.054688 64.1875 -74.140625 C 63.039062 -72.234375 61.617188 -70.582031 59.921875 -69.1875 C 58.222656 -67.789062 56.28125 -67.09375 54.09375 -67.09375 C 50.882812 -67.09375 48.019531 -67.457031 45.5 -68.1875 C 42.988281 -68.914062 40.6875 -69.828125 38.59375 -70.921875 C 36.5 -72.015625 34.5 -73.101562 32.59375 -74.1875 C 30.6875 -75.28125 28.734375 -76.191406 26.734375 -76.921875 C 24.734375 -77.648438 22.550781 -78.015625 20.1875 -78.015625 C 18.664062 -78.015625 17.421875 -77.601562 16.453125 -76.78125 C 15.484375 -75.96875 14.722656 -74.953125 14.171875 -73.734375 C 13.628906 -72.523438 13.253906 -71.3125 13.046875 -70.09375 C 12.835938 -68.882812 12.734375 -67.859375 12.734375 -67.015625 C 12.734375 -66.585938 12.71875 -65.8125 12.6875 -64.6875 C 12.65625 -63.570312 12.65625 -62.390625 12.6875 -61.140625 C 12.71875 -59.898438 12.867188 -58.835938 13.140625 -57.953125 C 13.410156 -57.078125 13.847656 -56.640625 14.453125 -56.640625 C 15.367188 -56.640625 16.296875 -57.035156 17.234375 -57.828125 C 18.171875 -58.617188 19.425781 -59.40625 21 -60.1875 C 22.570312 -60.976562 24.695312 -61.375 27.375 -61.375 C 29.613281 -61.375 31.789062 -60.992188 33.90625 -60.234375 C 36.03125 -59.472656 38.09375 -58.609375 40.09375 -57.640625 C 42.09375 -56.671875 44.046875 -55.804688 45.953125 -55.046875 C 47.867188 -54.296875 49.707031 -53.921875 51.46875 -53.921875 C 52.851562 -53.921875 53.941406 -54.222656 54.734375 -54.828125 C 55.523438 -55.429688 56.160156 -56.019531 56.640625 -56.59375 C 57.128906 -57.175781 57.613281 -57.46875 58.09375 -57.46875 C 58.820312 -57.46875 59.382812 -56.96875 59.78125 -55.96875 C 60.175781 -54.96875 60.375 -53.738281 60.375 -52.28125 C 60.375 -50.757812 60.082031 -49.117188 59.5 -47.359375 C 58.925781 -45.609375 58.019531 -43.941406 56.78125 -42.359375 C 55.539062 -40.785156 53.929688 -39.5 51.953125 -38.5 C 49.984375 -37.5 47.609375 -37 44.828125 -37 C 42.160156 -37 39.734375 -37.5625 37.546875 -38.6875 C 35.367188 -39.8125 33.382812 -41.191406 31.59375 -42.828125 C 29.800781 -44.460938 28.132812 -46.082031 26.59375 -47.6875 C 25.050781 -49.289062 23.550781 -50.65625 22.09375 -51.78125 C 20.632812 -52.90625 19.148438 -53.46875 17.640625 -53.46875 C 16.671875 -53.46875 16.035156 -53.160156 15.734375 -52.546875 C 15.429688 -51.941406 15.304688 -51.242188 15.359375 -50.453125 C 15.421875 -49.671875 15.546875 -48.976562 15.734375 -48.375 C 17.546875 -42.789062 20.039062 -37.863281 23.21875 -33.59375 C 26.40625 -29.320312 30 -25.972656 34 -23.546875 C 38 -21.117188 42.09375 -19.90625 46.28125 -19.90625 C 49.488281 -19.90625 52.125 -20.359375 54.1875 -21.265625 C 56.25 -22.179688 57.929688 -23.304688 59.234375 -24.640625 C 60.535156 -25.972656 61.59375 -27.304688 62.40625 -28.640625 C 63.226562 -29.972656 63.988281 -31.09375 64.6875 -32 C 65.382812 -32.914062 66.1875 -33.375 67.09375 -33.375 C 67.644531 -33.375 68.160156 -33.082031 68.640625 -32.5 C 69.128906 -31.925781 69.375 -30.578125 69.375 -28.453125 C 69.375 -25.367188 68.707031 -22.097656 67.375 -18.640625 C 66.039062 -15.179688 64.082031 -11.9375 61.5 -8.90625 C 58.925781 -5.875 55.757812 -3.40625 52 -1.5 C 48.25 0.40625 43.945312 1.359375 39.09375 1.359375 C 34 1.359375 29.222656 0.390625 24.765625 -1.546875 C 20.316406 -3.484375 16.410156 -6.390625 13.046875 -10.265625 C 9.679688 -14.148438 7.039062 -19.03125 5.125 -24.90625 C 3.21875 -30.789062 2.265625 -37.644531 2.265625 -45.46875 Z M 2.265625 -45.46875 "/></g></g></g><g fill="#f8f0e3" fill-opacity="1"><g transform="translate(542.650354, 140.682715)"><g><path d="M 0 -90.921875 L 24.453125 -90.921875 C 27.367188 -90.921875 29.6875 -90.117188 31.40625 -88.515625 C 33.132812 -86.910156 34.378906 -84.910156 35.140625 -82.515625 C 35.898438 -80.117188 36.28125 -77.707031 36.28125 -75.28125 C 36.28125 -72.375 35.851562 -69.78125 35 -67.5 C 34.15625 -65.226562 33.171875 -63.078125 32.046875 -61.046875 C 30.929688 -59.023438 29.945312 -56.890625 29.09375 -54.640625 C 28.25 -52.398438 27.828125 -49.828125 27.828125 -46.921875 C 27.828125 -44.671875 28.734375 -42.578125 30.546875 -40.640625 C 32.367188 -38.703125 35.160156 -37.765625 38.921875 -37.828125 C 41.890625 -37.828125 44.28125 -38.328125 46.09375 -39.328125 C 47.914062 -40.328125 49.3125 -41.582031 50.28125 -43.09375 C 51.25 -44.613281 51.898438 -46.207031 52.234375 -47.875 C 52.566406 -49.539062 52.734375 -51.097656 52.734375 -52.546875 C 52.734375 -54.910156 52.273438 -57.289062 51.359375 -59.6875 C 50.453125 -62.082031 49.332031 -64.460938 48 -66.828125 C 46.664062 -69.191406 45.332031 -71.492188 44 -73.734375 C 42.664062 -75.984375 41.546875 -78.117188 40.640625 -80.140625 C 39.734375 -82.171875 39.28125 -84.035156 39.28125 -85.734375 C 39.28125 -87.128906 39.765625 -88.34375 40.734375 -89.375 C 41.703125 -90.40625 42.914062 -90.921875 44.375 -90.921875 L 65.546875 -90.921875 C 67.554688 -90.921875 69.070312 -90.191406 70.09375 -88.734375 C 71.125 -87.285156 71.820312 -85.53125 72.1875 -83.46875 C 72.550781 -81.40625 72.734375 -79.4375 72.734375 -77.5625 C 72.734375 -73.007812 72.066406 -68.789062 70.734375 -64.90625 C 69.398438 -61.03125 67.671875 -57.441406 65.546875 -54.140625 C 63.429688 -50.835938 61.191406 -47.757812 58.828125 -44.90625 C 56.460938 -42.0625 54.21875 -39.394531 52.09375 -36.90625 C 49.976562 -34.425781 48.253906 -32.09375 46.921875 -29.90625 C 45.585938 -27.726562 44.921875 -25.640625 44.921875 -23.640625 C 44.921875 -20.242188 45.375 -17.4375 46.28125 -15.21875 C 47.1875 -13.007812 48.210938 -11.160156 49.359375 -9.671875 C 50.515625 -8.191406 51.546875 -6.90625 52.453125 -5.8125 C 53.367188 -4.726562 53.828125 -3.640625 53.828125 -2.546875 C 53.828125 -1.816406 53.476562 -1.207031 52.78125 -0.71875 C 52.082031 -0.238281 50.851562 0 49.09375 0 L 27 0 C 25.726562 0 24.664062 -0.453125 23.8125 -1.359375 C 22.96875 -2.273438 22.347656 -3.410156 21.953125 -4.765625 C 21.554688 -6.128906 21.359375 -7.453125 21.359375 -8.734375 C 21.359375 -11.097656 22.054688 -13.234375 23.453125 -15.140625 C 24.847656 -17.046875 26.578125 -18.785156 28.640625 -20.359375 C 30.703125 -21.941406 32.765625 -23.398438 34.828125 -24.734375 C 36.890625 -26.066406 38.613281 -27.304688 40 -28.453125 C 41.394531 -29.609375 42.09375 -30.734375 42.09375 -31.828125 C 42.09375 -32.734375 41.703125 -33.1875 40.921875 -33.1875 C 40.128906 -33.1875 39.367188 -33.003906 38.640625 -32.640625 C 37.910156 -32.273438 36.9375 -31.894531 35.71875 -31.5 C 34.507812 -31.101562 32.816406 -30.90625 30.640625 -30.90625 C 27.179688 -30.90625 24.347656 -31.507812 22.140625 -32.71875 C 19.929688 -33.9375 18.171875 -35.5625 16.859375 -37.59375 C 15.554688 -39.625 14.585938 -41.863281 13.953125 -44.3125 C 13.316406 -46.769531 12.878906 -49.210938 12.640625 -51.640625 C 12.335938 -54.671875 11.988281 -58.019531 11.59375 -61.6875 C 11.195312 -65.351562 10.585938 -69.035156 9.765625 -72.734375 C 8.953125 -76.429688 7.769531 -79.867188 6.21875 -83.046875 C 4.675781 -86.234375 2.601562 -88.859375 0 -90.921875 Z M 0 -90.921875 "/></g></g></g><g fill="#f8f0e3" fill-opacity="1"><g transform="translate(63.204075, 242.437518)"><g><path d="M 22.359375 0 L 0.90625 0 C 2.125 -1.207031 2.957031 -2.644531 3.40625 -4.3125 C 3.863281 -5.976562 4.09375 -8.117188 4.09375 -10.734375 L 4.09375 -80.1875 C 4.09375 -82.800781 3.863281 -84.941406 3.40625 -86.609375 C 2.957031 -88.273438 2.125 -89.710938 0.90625 -90.921875 L 25 -90.921875 C 26.15625 -90.921875 27.25 -90.207031 28.28125 -88.78125 C 29.3125 -87.363281 29.828125 -85.863281 29.828125 -84.28125 C 29.828125 -81.550781 29.3125 -79.273438 28.28125 -77.453125 C 27.25 -75.640625 25.925781 -74.140625 24.3125 -72.953125 C 22.707031 -71.773438 21.007812 -70.773438 19.21875 -69.953125 C 17.4375 -69.140625 15.742188 -68.351562 14.140625 -67.59375 C 12.535156 -66.84375 11.21875 -65.976562 10.1875 -65 C 9.15625 -64.03125 8.640625 -62.789062 8.640625 -61.28125 C 8.640625 -60.851562 8.804688 -60.441406 9.140625 -60.046875 C 9.472656 -59.660156 9.878906 -59.46875 10.359375 -59.46875 C 11.273438 -59.46875 12.304688 -59.785156 13.453125 -60.421875 C 14.609375 -61.054688 16.078125 -61.78125 17.859375 -62.59375 C 19.648438 -63.414062 21.984375 -64.144531 24.859375 -64.78125 C 27.742188 -65.414062 31.367188 -65.734375 35.734375 -65.734375 C 40.097656 -65.734375 43.734375 -65.414062 46.640625 -64.78125 C 49.546875 -64.144531 51.921875 -63.414062 53.765625 -62.59375 C 55.617188 -61.78125 57.148438 -61.054688 58.359375 -60.421875 C 59.578125 -59.785156 60.640625 -59.46875 61.546875 -59.46875 C 62.035156 -59.46875 62.445312 -59.660156 62.78125 -60.046875 C 63.113281 -60.441406 63.28125 -60.851562 63.28125 -61.28125 C 63.28125 -62.789062 62.765625 -64.03125 61.734375 -65 C 60.703125 -65.976562 59.382812 -66.84375 57.78125 -67.59375 C 56.175781 -68.351562 54.476562 -69.140625 52.6875 -69.953125 C 50.894531 -70.773438 49.195312 -71.773438 47.59375 -72.953125 C 45.988281 -74.140625 44.671875 -75.640625 43.640625 -77.453125 C 42.609375 -79.273438 42.09375 -81.550781 42.09375 -84.28125 C 42.09375 -85.863281 42.609375 -87.363281 43.640625 -88.78125 C 44.671875 -90.207031 45.765625 -90.921875 46.921875 -90.921875 L 71.015625 -90.921875 C 69.796875 -89.710938 68.957031 -88.273438 68.5 -86.609375 C 68.050781 -84.941406 67.828125 -82.800781 67.828125 -80.1875 L 67.828125 -10.734375 C 67.828125 -8.117188 68.050781 -5.976562 68.5 -4.3125 C 68.957031 -2.644531 69.796875 -1.207031 71.015625 0 L 49.546875 0 C 47.128906 0 45.222656 -0.421875 43.828125 -1.265625 C 42.429688 -2.117188 41.457031 -3.164062 40.90625 -4.40625 C 40.363281 -5.65625 40.09375 -6.882812 40.09375 -8.09375 C 40.09375 -11 40.648438 -13.785156 41.765625 -16.453125 C 42.890625 -19.117188 44.332031 -21.664062 46.09375 -24.09375 C 47.851562 -26.519531 49.71875 -28.820312 51.6875 -31 C 53.65625 -33.1875 55.519531 -35.265625 57.28125 -37.234375 C 59.039062 -39.203125 60.476562 -41.066406 61.59375 -42.828125 C 62.71875 -44.585938 63.28125 -46.253906 63.28125 -47.828125 C 63.28125 -48.859375 62.828125 -49.375 61.921875 -49.375 C 61.128906 -49.375 60.21875 -48.992188 59.1875 -48.234375 C 58.15625 -47.472656 56.710938 -46.609375 54.859375 -45.640625 C 53.015625 -44.671875 50.53125 -43.804688 47.40625 -43.046875 C 44.289062 -42.296875 40.28125 -41.921875 35.375 -41.921875 C 30.457031 -41.921875 26.5 -42.296875 23.5 -43.046875 C 20.5 -43.804688 18.148438 -44.671875 16.453125 -45.640625 C 14.753906 -46.609375 13.453125 -47.472656 12.546875 -48.234375 C 11.640625 -48.992188 10.789062 -49.375 10 -49.375 C 9.09375 -49.375 8.640625 -48.859375 8.640625 -47.828125 C 8.640625 -46.253906 9.195312 -44.585938 10.3125 -42.828125 C 11.4375 -41.066406 12.878906 -39.203125 14.640625 -37.234375 C 16.398438 -35.265625 18.265625 -33.1875 20.234375 -31 C 22.203125 -28.820312 24.0625 -26.519531 25.8125 -24.09375 C 27.570312 -21.664062 29.015625 -19.117188 30.140625 -16.453125 C 31.265625 -13.785156 31.828125 -11 31.828125 -8.09375 C 31.828125 -6.882812 31.550781 -5.65625 31 -4.40625 C 30.457031 -3.164062 29.503906 -2.117188 28.140625 -1.265625 C 26.773438 -0.421875 24.847656 0 22.359375 0 Z M 22.359375 0 "/></g></g></g><g fill="#f8f0e3" fill-opacity="1"><g transform="translate(131.573917, 242.437518)"><g><path d="M 2.265625 -45.46875 C 2.265625 -52.5 3.113281 -58.875 4.8125 -64.59375 C 6.507812 -70.320312 8.9375 -75.257812 12.09375 -79.40625 C 15.25 -83.5625 19.019531 -86.742188 23.40625 -88.953125 C 27.800781 -91.171875 32.695312 -92.28125 38.09375 -92.28125 C 43.425781 -92.28125 48.289062 -91.171875 52.6875 -88.953125 C 57.082031 -86.742188 60.851562 -83.5625 64 -79.40625 C 67.15625 -75.257812 69.582031 -70.320312 71.28125 -64.59375 C 72.976562 -58.875 73.828125 -52.5 73.828125 -45.46875 C 73.828125 -38.425781 72.976562 -32.039062 71.28125 -26.3125 C 69.582031 -20.59375 67.15625 -15.65625 64 -11.5 C 60.851562 -7.351562 57.082031 -4.171875 52.6875 -1.953125 C 48.289062 0.253906 43.425781 1.359375 38.09375 1.359375 C 32.695312 1.359375 27.800781 0.253906 23.40625 -1.953125 C 19.019531 -4.171875 15.25 -7.351562 12.09375 -11.5 C 8.9375 -15.65625 6.507812 -20.59375 4.8125 -26.3125 C 3.113281 -32.039062 2.265625 -38.425781 2.265625 -45.46875 Z M 30.734375 -86.109375 C 28.609375 -86.109375 26.9375 -84.96875 25.71875 -82.6875 C 24.507812 -80.414062 23.691406 -77.335938 23.265625 -73.453125 C 22.847656 -69.578125 22.773438 -65.226562 23.046875 -60.40625 C 23.316406 -55.59375 23.875 -50.609375 24.71875 -45.453125 C 25.570312 -40.304688 26.648438 -35.320312 27.953125 -30.5 C 29.253906 -25.6875 30.738281 -21.335938 32.40625 -17.453125 C 34.070312 -13.578125 35.859375 -10.5 37.765625 -8.21875 C 39.679688 -5.945312 41.640625 -4.8125 43.640625 -4.8125 C 46.191406 -4.8125 48.222656 -5.945312 49.734375 -8.21875 C 51.242188 -10.5 52.300781 -13.578125 52.90625 -17.453125 C 53.519531 -21.335938 53.734375 -25.6875 53.546875 -30.5 C 53.367188 -35.320312 52.851562 -40.304688 52 -45.453125 C 51.15625 -50.609375 50.019531 -55.59375 48.59375 -60.40625 C 47.175781 -65.226562 45.539062 -69.578125 43.6875 -73.453125 C 41.84375 -77.335938 39.828125 -80.414062 37.640625 -82.6875 C 35.460938 -84.96875 33.160156 -86.109375 30.734375 -86.109375 Z M 30.734375 -86.109375 "/></g></g></g><g fill="#f8f0e3" fill-opacity="1"><g transform="translate(204.125961, 242.437518)"><g><path d="M 49.375 0 L 0.90625 0 C 2.125 -1.207031 2.957031 -2.644531 3.40625 -4.3125 C 3.863281 -5.976562 4.09375 -8.117188 4.09375 -10.734375 L 4.09375 -80.1875 C 4.09375 -82.800781 3.863281 -84.941406 3.40625 -86.609375 C 2.957031 -88.273438 2.125 -89.710938 0.90625 -90.921875 L 28.828125 -90.921875 C 31.304688 -90.921875 33.226562 -90.492188 34.59375 -89.640625 C 35.957031 -88.796875 36.910156 -87.75 37.453125 -86.5 C 38.003906 -85.257812 38.28125 -84.035156 38.28125 -82.828125 C 38.28125 -80.585938 37.640625 -78.300781 36.359375 -75.96875 C 35.085938 -73.632812 33.453125 -71.238281 31.453125 -68.78125 C 29.453125 -66.320312 27.332031 -63.757812 25.09375 -61.09375 C 22.851562 -58.425781 20.734375 -55.640625 18.734375 -52.734375 C 16.734375 -49.828125 15.09375 -46.78125 13.8125 -43.59375 C 12.539062 -40.414062 11.90625 -37.066406 11.90625 -33.546875 C 11.90625 -31.546875 12.222656 -29.285156 12.859375 -26.765625 C 13.492188 -24.253906 14.429688 -21.695312 15.671875 -19.09375 C 16.921875 -16.488281 18.484375 -14.078125 20.359375 -11.859375 C 22.242188 -9.648438 24.441406 -7.878906 26.953125 -6.546875 C 29.472656 -5.210938 32.28125 -4.546875 35.375 -4.546875 C 37.3125 -4.546875 39.1875 -4.863281 41 -5.5 C 42.820312 -6.132812 44.320312 -7.085938 45.5 -8.359375 C 46.6875 -9.640625 47.28125 -11.21875 47.28125 -13.09375 C 47.28125 -15.519531 46.765625 -17.59375 45.734375 -19.3125 C 44.703125 -21.039062 43.425781 -22.632812 41.90625 -24.09375 C 40.394531 -25.550781 38.863281 -27.082031 37.3125 -28.6875 C 35.769531 -30.289062 34.484375 -32.164062 33.453125 -34.3125 C 32.421875 -36.46875 31.90625 -39.125 31.90625 -42.28125 C 31.90625 -44.582031 32.46875 -46.734375 33.59375 -48.734375 C 34.71875 -50.734375 36.21875 -52.351562 38.09375 -53.59375 C 39.976562 -54.84375 42.070312 -55.46875 44.375 -55.46875 C 45.820312 -55.46875 47.695312 -55.191406 50 -54.640625 C 52.3125 -54.097656 54.617188 -53.367188 56.921875 -52.453125 C 59.222656 -51.546875 61.160156 -50.488281 62.734375 -49.28125 C 64.304688 -48.070312 65.09375 -46.800781 65.09375 -45.46875 C 65.09375 -43.707031 64.609375 -42.3125 63.640625 -41.28125 C 62.671875 -40.25 61.425781 -39.414062 59.90625 -38.78125 C 58.394531 -38.144531 56.804688 -37.566406 55.140625 -37.046875 C 53.472656 -36.535156 51.878906 -35.988281 50.359375 -35.40625 C 48.847656 -34.832031 47.609375 -34.0625 46.640625 -33.09375 C 45.671875 -32.125 45.1875 -30.820312 45.1875 -29.1875 C 45.1875 -27.851562 45.6875 -26.703125 46.6875 -25.734375 C 47.6875 -24.765625 48.957031 -23.867188 50.5 -23.046875 C 52.050781 -22.234375 53.703125 -21.382812 55.453125 -20.5 C 57.210938 -19.625 58.863281 -18.609375 60.40625 -17.453125 C 61.957031 -16.304688 63.234375 -14.925781 64.234375 -13.3125 C 65.234375 -11.707031 65.734375 -9.753906 65.734375 -7.453125 C 65.734375 -5.390625 65.234375 -3.828125 64.234375 -2.765625 C 63.234375 -1.710938 61.914062 -1.003906 60.28125 -0.640625 C 58.644531 -0.273438 56.867188 -0.078125 54.953125 -0.046875 C 53.046875 -0.015625 51.1875 0 49.375 0 Z M 49.375 0 "/></g></g></g><g fill="#f8f0e3" fill-opacity="1"><g transform="translate(267.222587, 242.437518)"><g><path d="M 49.375 0 L 0.90625 0 C 2.125 -1.207031 2.957031 -2.644531 3.40625 -4.3125 C 3.863281 -5.976562 4.09375 -8.117188 4.09375 -10.734375 L 4.09375 -80.1875 C 4.09375 -82.800781 3.863281 -84.941406 3.40625 -86.609375 C 2.957031 -88.273438 2.125 -89.710938 0.90625 -90.921875 L 28.828125 -90.921875 C 31.304688 -90.921875 33.226562 -90.492188 34.59375 -89.640625 C 35.957031 -88.796875 36.910156 -87.75 37.453125 -86.5 C 38.003906 -85.257812 38.28125 -84.035156 38.28125 -82.828125 C 38.28125 -80.585938 37.640625 -78.300781 36.359375 -75.96875 C 35.085938 -73.632812 33.453125 -71.238281 31.453125 -68.78125 C 29.453125 -66.320312 27.332031 -63.757812 25.09375 -61.09375 C 22.851562 -58.425781 20.734375 -55.640625 18.734375 -52.734375 C 16.734375 -49.828125 15.09375 -46.78125 13.8125 -43.59375 C 12.539062 -40.414062 11.90625 -37.066406 11.90625 -33.546875 C 11.90625 -31.546875 12.222656 -29.285156 12.859375 -26.765625 C 13.492188 -24.253906 14.429688 -21.695312 15.671875 -19.09375 C 16.921875 -16.488281 18.484375 -14.078125 20.359375 -11.859375 C 22.242188 -9.648438 24.441406 -7.878906 26.953125 -6.546875 C 29.472656 -5.210938 32.28125 -4.546875 35.375 -4.546875 C 37.3125 -4.546875 39.1875 -4.863281 41 -5.5 C 42.820312 -6.132812 44.320312 -7.085938 45.5 -8.359375 C 46.6875 -9.640625 47.28125 -11.21875 47.28125 -13.09375 C 47.28125 -15.519531 46.765625 -17.59375 45.734375 -19.3125 C 44.703125 -21.039062 43.425781 -22.632812 41.90625 -24.09375 C 40.394531 -25.550781 38.863281 -27.082031 37.3125 -28.6875 C 35.769531 -30.289062 34.484375 -32.164062 33.453125 -34.3125 C 32.421875 -36.46875 31.90625 -39.125 31.90625 -42.28125 C 31.90625 -44.582031 32.46875 -46.734375 33.59375 -48.734375 C 34.71875 -50.734375 36.21875 -52.351562 38.09375 -53.59375 C 39.976562 -54.84375 42.070312 -55.46875 44.375 -55.46875 C 45.820312 -55.46875 47.695312 -55.191406 50 -54.640625 C 52.3125 -54.097656 54.617188 -53.367188 56.921875 -52.453125 C 59.222656 -51.546875 61.160156 -50.488281 62.734375 -49.28125 C 64.304688 -48.070312 65.09375 -46.800781 65.09375 -45.46875 C 65.09375 -43.707031 64.609375 -42.3125 63.640625 -41.28125 C 62.671875 -40.25 61.425781 -39.414062 59.90625 -38.78125 C 58.394531 -38.144531 56.804688 -37.566406 55.140625 -37.046875 C 53.472656 -36.535156 51.878906 -35.988281 50.359375 -35.40625 C 48.847656 -34.832031 47.609375 -34.0625 46.640625 -33.09375 C 45.671875 -32.125 45.1875 -30.820312 45.1875 -29.1875 C 45.1875 -27.851562 45.6875 -26.703125 46.6875 -25.734375 C 47.6875 -24.765625 48.957031 -23.867188 50.5 -23.046875 C 52.050781 -22.234375 53.703125 -21.382812 55.453125 -20.5 C 57.210938 -19.625 58.863281 -18.609375 60.40625 -17.453125 C 61.957031 -16.304688 63.234375 -14.925781 64.234375 -13.3125 C 65.234375 -11.707031 65.734375 -9.753906 65.734375 -7.453125 C 65.734375 -5.390625 65.234375 -3.828125 64.234375 -2.765625 C 63.234375 -1.710938 61.914062 -1.003906 60.28125 -0.640625 C 58.644531 -0.273438 56.867188 -0.078125 54.953125 -0.046875 C 53.046875 -0.015625 51.1875 0 49.375 0 Z M 49.375 0 "/></g></g></g><g fill="#f8f0e3" fill-opacity="1"><g transform="translate(330.319201, 242.437518)"><g><path d="M 2.265625 -45.46875 C 2.265625 -52.5 3.113281 -58.875 4.8125 -64.59375 C 6.507812 -70.320312 8.9375 -75.257812 12.09375 -79.40625 C 15.25 -83.5625 19.019531 -86.742188 23.40625 -88.953125 C 27.800781 -91.171875 32.695312 -92.28125 38.09375 -92.28125 C 43.425781 -92.28125 48.289062 -91.171875 52.6875 -88.953125 C 57.082031 -86.742188 60.851562 -83.5625 64 -79.40625 C 67.15625 -75.257812 69.582031 -70.320312 71.28125 -64.59375 C 72.976562 -58.875 73.828125 -52.5 73.828125 -45.46875 C 73.828125 -38.425781 72.976562 -32.039062 71.28125 -26.3125 C 69.582031 -20.59375 67.15625 -15.65625 64 -11.5 C 60.851562 -7.351562 57.082031 -4.171875 52.6875 -1.953125 C 48.289062 0.253906 43.425781 1.359375 38.09375 1.359375 C 32.695312 1.359375 27.800781 0.253906 23.40625 -1.953125 C 19.019531 -4.171875 15.25 -7.351562 12.09375 -11.5 C 8.9375 -15.65625 6.507812 -20.59375 4.8125 -26.3125 C 3.113281 -32.039062 2.265625 -38.425781 2.265625 -45.46875 Z M 30.734375 -86.109375 C 28.609375 -86.109375 26.9375 -84.96875 25.71875 -82.6875 C 24.507812 -80.414062 23.691406 -77.335938 23.265625 -73.453125 C 22.847656 -69.578125 22.773438 -65.226562 23.046875 -60.40625 C 23.316406 -55.59375 23.875 -50.609375 24.71875 -45.453125 C 25.570312 -40.304688 26.648438 -35.320312 27.953125 -30.5 C 29.253906 -25.6875 30.738281 -21.335938 32.40625 -17.453125 C 34.070312 -13.578125 35.859375 -10.5 37.765625 -8.21875 C 39.679688 -5.945312 41.640625 -4.8125 43.640625 -4.8125 C 46.191406 -4.8125 48.222656 -5.945312 49.734375 -8.21875 C 51.242188 -10.5 52.300781 -13.578125 52.90625 -17.453125 C 53.519531 -21.335938 53.734375 -25.6875 53.546875 -30.5 C 53.367188 -35.320312 52.851562 -40.304688 52 -45.453125 C 51.15625 -50.609375 50.019531 -55.59375 48.59375 -60.40625 C 47.175781 -65.226562 45.539062 -69.578125 43.6875 -73.453125 C 41.84375 -77.335938 39.828125 -80.414062 37.640625 -82.6875 C 35.460938 -84.96875 33.160156 -86.109375 30.734375 -86.109375 Z M 30.734375 -86.109375 "/></g></g></g><g fill="#f8f0e3" fill-opacity="1"><g transform="translate(402.871257, 242.437518)"><g><path d="M 8 -73.28125 C 6.851562 -77.039062 5.703125 -80.539062 4.546875 -83.78125 C 3.390625 -87.03125 1.875 -89.410156 0 -90.921875 L 37.546875 -90.921875 C 36.515625 -89.765625 35.710938 -88.289062 35.140625 -86.5 C 34.566406 -84.71875 34.28125 -82.890625 34.28125 -81.015625 C 34.28125 -79.859375 34.445312 -77.851562 34.78125 -75 C 35.113281 -72.15625 35.597656 -68.789062 36.234375 -64.90625 C 36.867188 -61.03125 37.609375 -56.957031 38.453125 -52.6875 C 39.304688 -48.414062 40.234375 -44.21875 41.234375 -40.09375 C 42.234375 -35.96875 43.304688 -32.222656 44.453125 -28.859375 C 45.609375 -25.503906 46.789062 -22.828125 48 -20.828125 C 49.21875 -18.828125 50.429688 -17.828125 51.640625 -17.828125 C 53.210938 -17.828125 54.546875 -18.644531 55.640625 -20.28125 C 56.734375 -21.914062 57.597656 -24.109375 58.234375 -26.859375 C 58.867188 -29.617188 59.335938 -32.664062 59.640625 -36 C 59.941406 -39.332031 60.09375 -42.695312 60.09375 -46.09375 C 60.09375 -49.488281 59.988281 -52.671875 59.78125 -55.640625 C 59.570312 -58.609375 59.285156 -61.09375 58.921875 -63.09375 C 58.492188 -64.726562 58.035156 -66.394531 57.546875 -68.09375 C 57.066406 -69.789062 56.554688 -71.519531 56.015625 -73.28125 C 54.859375 -77.039062 53.703125 -80.539062 52.546875 -83.78125 C 51.398438 -87.03125 49.882812 -89.410156 48 -90.921875 L 85.5625 -90.921875 C 84.53125 -89.765625 83.722656 -88.289062 83.140625 -86.5 C 82.566406 -84.71875 82.28125 -82.890625 82.28125 -81.015625 C 82.28125 -79.859375 82.445312 -77.851562 82.78125 -75 C 83.113281 -72.15625 83.597656 -68.789062 84.234375 -64.90625 C 84.867188 -61.03125 85.609375 -56.957031 86.453125 -52.6875 C 87.304688 -48.414062 88.234375 -44.21875 89.234375 -40.09375 C 90.234375 -35.96875 91.304688 -32.222656 92.453125 -28.859375 C 93.609375 -25.503906 94.789062 -22.828125 96 -20.828125 C 97.21875 -18.828125 98.4375 -17.828125 99.65625 -17.828125 C 101.226562 -17.828125 102.46875 -18.492188 103.375 -19.828125 C 104.28125 -21.160156 104.929688 -22.898438 105.328125 -25.046875 C 105.722656 -27.203125 105.921875 -29.488281 105.921875 -31.90625 C 105.921875 -35.550781 105.46875 -39.097656 104.5625 -42.546875 C 103.65625 -46.003906 102.535156 -49.367188 101.203125 -52.640625 C 99.867188 -55.910156 98.519531 -59.132812 97.15625 -62.3125 C 95.789062 -65.5 94.648438 -68.671875 93.734375 -71.828125 C 92.828125 -74.984375 92.375 -78.132812 92.375 -81.28125 C 92.375 -82.738281 92.554688 -84.207031 92.921875 -85.6875 C 93.285156 -87.175781 93.953125 -88.421875 94.921875 -89.421875 C 95.890625 -90.421875 97.253906 -90.921875 99.015625 -90.921875 L 129.75 -90.921875 C 127.863281 -89.410156 126.34375 -87.03125 125.1875 -83.78125 C 124.039062 -80.539062 122.894531 -77.039062 121.75 -73.28125 C 119.925781 -67.101562 118.332031 -61.46875 116.96875 -56.375 C 115.601562 -51.28125 114.390625 -46.320312 113.328125 -41.5 C 112.273438 -36.6875 111.25 -31.671875 110.25 -26.453125 C 109.25 -21.242188 108.171875 -15.488281 107.015625 -9.1875 C 106.710938 -7.425781 106.726562 -5.695312 107.0625 -4 C 107.394531 -2.300781 108.046875 -0.96875 109.015625 0 L 68.734375 0 C 69.765625 -0.96875 70.429688 -2.300781 70.734375 -4 C 71.035156 -5.695312 71.035156 -7.425781 70.734375 -9.1875 C 69.703125 -15.0625 68.734375 -20.421875 67.828125 -25.265625 C 66.921875 -30.117188 65.953125 -34.820312 64.921875 -39.375 C 63.890625 -34.820312 62.898438 -30.117188 61.953125 -25.265625 C 61.015625 -20.421875 60.035156 -15.0625 59.015625 -9.1875 C 58.703125 -7.425781 58.710938 -5.695312 59.046875 -4 C 59.378906 -2.300781 60.035156 -0.96875 61.015625 0 L 20.734375 0 C 21.765625 -0.96875 22.429688 -2.300781 22.734375 -4 C 23.035156 -5.695312 23.035156 -7.425781 22.734375 -9.1875 C 21.578125 -15.488281 20.5 -21.242188 19.5 -26.453125 C 18.5 -31.671875 17.453125 -36.6875 16.359375 -41.5 C 15.273438 -46.320312 14.066406 -51.28125 12.734375 -56.375 C 11.398438 -61.46875 9.820312 -67.101562 8 -73.28125 Z M 8 -73.28125 "/></g></g></g><g fill="#f8f0e3" fill-opacity="1"><g transform="translate(529.064668, 242.437518)"><g><path d="M 0 0 C 1.875 -1.570312 3.390625 -3.960938 4.546875 -7.171875 C 5.703125 -10.390625 6.851562 -13.878906 8 -17.640625 C 9.820312 -23.816406 11.410156 -29.453125 12.765625 -34.546875 C 14.128906 -39.640625 15.34375 -44.59375 16.40625 -49.40625 C 17.46875 -54.226562 18.5 -59.242188 19.5 -64.453125 C 20.5 -69.671875 21.578125 -75.429688 22.734375 -81.734375 C 23.035156 -83.492188 23.035156 -85.222656 22.734375 -86.921875 C 22.429688 -88.617188 21.765625 -89.953125 20.734375 -90.921875 L 61.015625 -90.921875 C 60.035156 -89.953125 59.378906 -88.617188 59.046875 -86.921875 C 58.710938 -85.222656 58.703125 -83.492188 59.015625 -81.734375 C 60.160156 -75.429688 61.234375 -69.671875 62.234375 -64.453125 C 63.234375 -59.242188 64.265625 -54.226562 65.328125 -49.40625 C 66.390625 -44.59375 67.601562 -39.640625 68.96875 -34.546875 C 70.332031 -29.453125 71.921875 -23.816406 73.734375 -17.640625 C 74.890625 -13.878906 76.039062 -10.390625 77.1875 -7.171875 C 78.34375 -3.960938 79.859375 -1.570312 81.734375 0 L 44.1875 0 C 45.21875 -1.207031 46.019531 -2.691406 46.59375 -4.453125 C 47.175781 -6.210938 47.46875 -8.03125 47.46875 -9.90625 C 47.46875 -11.425781 47.191406 -14.242188 46.640625 -18.359375 C 46.097656 -22.484375 45.367188 -27.125 44.453125 -32.28125 L 31.09375 -32.28125 C 32.664062 -28.457031 34.101562 -24.664062 35.40625 -20.90625 C 36.71875 -17.15625 37.375 -13.398438 37.375 -9.640625 C 37.375 -8.242188 37.191406 -6.785156 36.828125 -5.265625 C 36.460938 -3.753906 35.804688 -2.5 34.859375 -1.5 C 33.921875 -0.5 32.546875 0 30.734375 0 Z M 29.375 -36.375 L 43.640625 -36.375 C 42.796875 -40.738281 41.859375 -45.085938 40.828125 -49.421875 C 39.796875 -53.753906 38.6875 -57.707031 37.5 -61.28125 C 36.320312 -64.851562 35.109375 -67.710938 33.859375 -69.859375 C 32.617188 -72.015625 31.363281 -73.09375 30.09375 -73.09375 C 28.519531 -73.09375 27.273438 -72.425781 26.359375 -71.09375 C 25.453125 -69.757812 24.800781 -68.015625 24.40625 -65.859375 C 24.019531 -63.710938 23.828125 -61.429688 23.828125 -59.015625 C 23.828125 -55.003906 24.382812 -51.117188 25.5 -47.359375 C 26.625 -43.609375 27.914062 -39.945312 29.375 -36.375 Z M 29.375 -36.375 "/></g></g></g><g fill="#f8f0e3" fill-opacity="1"><g transform="translate(607.253593, 242.437518)"><g><path d="M 0 -90.921875 L 24.453125 -90.921875 C 27.367188 -90.921875 29.6875 -90.117188 31.40625 -88.515625 C 33.132812 -86.910156 34.378906 -84.910156 35.140625 -82.515625 C 35.898438 -80.117188 36.28125 -77.707031 36.28125 -75.28125 C 36.28125 -72.375 35.851562 -69.78125 35 -67.5 C 34.15625 -65.226562 33.171875 -63.078125 32.046875 -61.046875 C 30.929688 -59.023438 29.945312 -56.890625 29.09375 -54.640625 C 28.25 -52.398438 27.828125 -49.828125 27.828125 -46.921875 C 27.828125 -44.671875 28.734375 -42.578125 30.546875 -40.640625 C 32.367188 -38.703125 35.160156 -37.765625 38.921875 -37.828125 C 41.890625 -37.828125 44.28125 -38.328125 46.09375 -39.328125 C 47.914062 -40.328125 49.3125 -41.582031 50.28125 -43.09375 C 51.25 -44.613281 51.898438 -46.207031 52.234375 -47.875 C 52.566406 -49.539062 52.734375 -51.097656 52.734375 -52.546875 C 52.734375 -54.910156 52.273438 -57.289062 51.359375 -59.6875 C 50.453125 -62.082031 49.332031 -64.460938 48 -66.828125 C 46.664062 -69.191406 45.332031 -71.492188 44 -73.734375 C 42.664062 -75.984375 41.546875 -78.117188 40.640625 -80.140625 C 39.734375 -82.171875 39.28125 -84.035156 39.28125 -85.734375 C 39.28125 -87.128906 39.765625 -88.34375 40.734375 -89.375 C 41.703125 -90.40625 42.914062 -90.921875 44.375 -90.921875 L 65.546875 -90.921875 C 67.554688 -90.921875 69.070312 -90.191406 70.09375 -88.734375 C 71.125 -87.285156 71.820312 -85.53125 72.1875 -83.46875 C 72.550781 -81.40625 72.734375 -79.4375 72.734375 -77.5625 C 72.734375 -73.007812 72.066406 -68.789062 70.734375 -64.90625 C 69.398438 -61.03125 67.671875 -57.441406 65.546875 -54.140625 C 63.429688 -50.835938 61.191406 -47.757812 58.828125 -44.90625 C 56.460938 -42.0625 54.21875 -39.394531 52.09375 -36.90625 C 49.976562 -34.425781 48.253906 -32.09375 46.921875 -29.90625 C 45.585938 -27.726562 44.921875 -25.640625 44.921875 -23.640625 C 44.921875 -20.242188 45.375 -17.4375 46.28125 -15.21875 C 47.1875 -13.007812 48.210938 -11.160156 49.359375 -9.671875 C 50.515625 -8.191406 51.546875 -6.90625 52.453125 -5.8125 C 53.367188 -4.726562 53.828125 -3.640625 53.828125 -2.546875 C 53.828125 -1.816406 53.476562 -1.207031 52.78125 -0.71875 C 52.082031 -0.238281 50.851562 0 49.09375 0 L 27 0 C 25.726562 0 24.664062 -0.453125 23.8125 -1.359375 C 22.96875 -2.273438 22.347656 -3.410156 21.953125 -4.765625 C 21.554688 -6.128906 21.359375 -7.453125 21.359375 -8.734375 C 21.359375 -11.097656 22.054688 -13.234375 23.453125 -15.140625 C 24.847656 -17.046875 26.578125 -18.785156 28.640625 -20.359375 C 30.703125 -21.941406 32.765625 -23.398438 34.828125 -24.734375 C 36.890625 -26.066406 38.613281 -27.304688 40 -28.453125 C 41.394531 -29.609375 42.09375 -30.734375 42.09375 -31.828125 C 42.09375 -32.734375 41.703125 -33.1875 40.921875 -33.1875 C 40.128906 -33.1875 39.367188 -33.003906 38.640625 -32.640625 C 37.910156 -32.273438 36.9375 -31.894531 35.71875 -31.5 C 34.507812 -31.101562 32.816406 -30.90625 30.640625 -30.90625 C 27.179688 -30.90625 24.347656 -31.507812 22.140625 -32.71875 C 19.929688 -33.9375 18.171875 -35.5625 16.859375 -37.59375 C 15.554688 -39.625 14.585938 -41.863281 13.953125 -44.3125 C 13.316406 -46.769531 12.878906 -49.210938 12.640625 -51.640625 C 12.335938 -54.671875 11.988281 -58.019531 11.59375 -61.6875 C 11.195312 -65.351562 10.585938 -69.035156 9.765625 -72.734375 C 8.953125 -76.429688 7.769531 -79.867188 6.21875 -83.046875 C 4.675781 -86.234375 2.601562 -88.859375 0 -90.921875 Z M 0 -90.921875 "/></g></g></g></svg>